<svg xmlns="http://www.w3.org/2000/svg" viewBox="0 0 75.06 75.06"><defs><style>.cls-1{fill:#6ba7a4;}.cls-2{fill:#fff;}.cls-3{fill:#00a1ec;}.cls-4{fill:#ffc217;}.cls-5{fill:#ea4848;}.cls-6{fill:#00c08b;}.cls-7{fill:#ff9600;}.cls-8{fill:#009a92;}.cls-9{fill:none;stroke:#009a92;stroke-width:0.49px;}.cls-10{fill:#009f8a;}</style></defs><g id="圖層_2" data-name="圖層 2"><g id="圖層_1-2" data-name="圖層 1"><rect class="cls-1" width="75.06" height="75.06" rx="11.39"/><path class="cls-2" d="M63.67,75.06H11.39A11.39,11.39,0,0,1,0,63.67V56H75.06v7.65A11.39,11.39,0,0,1,63.67,75.06Z"/><rect class="cls-3" x="30.52" y="62.35" width="3.43" height="1.56" rx="0.31"/><path class="cls-4" d="M43.39,64.53h0a2.73,2.73,0,0,0-3.91-2.45.31.31,0,0,0-.31-.27h-.93a.31.31,0,0,0-.31.32v5.22a.31.31,0,0,0,.31.31h.93a.31.31,0,0,0,.32-.31V64.53h0a1.17,1.17,0,1,1,2.34,0v2.82a.31.31,0,0,0,.31.31h.93a.31.31,0,0,0,.32-.31V64.53Z"/><path class="cls-5" d="M54.11,61.8A2.93,2.93,0,1,0,57,64.73,2.93,2.93,0,0,0,54.11,61.8Zm0,4.29a1.37,1.37,0,1,1,1.36-1.36A1.36,1.36,0,0,1,54.11,66.09Z"/><rect class="cls-6" x="35.2" y="61.8" width="1.56" height="5.85" rx="0.31"/><path class="cls-7" d="M50.09,61.8h-.93a.32.32,0,0,0-.32.32v.27a2.88,2.88,0,0,0-1.75-.59,2.93,2.93,0,1,0,1.75,5.27v1.36a1.42,1.42,0,0,1-2.81.26.32.32,0,0,0-.31-.26h-.95a.32.32,0,0,0-.31.35,3,3,0,0,0,5.94-.35V62.12A.31.31,0,0,0,50.09,61.8Zm-3,4.29a1.37,1.37,0,1,1,1.36-1.36A1.37,1.37,0,0,1,47.09,66.09Z"/><path class="cls-3" d="M32.86,59.07H28.5a.31.31,0,0,0-.31.32v8a.31.31,0,0,0,.31.31h.94a.31.31,0,0,0,.31-.31V60.63h4.68A1.56,1.56,0,0,0,32.86,59.07Z"/><circle class="cls-6" cx="26.62" cy="66.84" r="0.78"/><path class="cls-6" d="M36.25,59.27a.31.31,0,0,0-.54,0l-.5.86a.31.31,0,0,0,.27.47h1a.31.31,0,0,0,.27-.47Z"/><path class="cls-6" d="M21.56,60.63A3.51,3.51,0,1,0,24.5,66a.32.32,0,0,0-.26-.48H23a.3.3,0,0,0-.2.08,2,2,0,0,1-1.27.47,2,2,0,0,1-1.85-1.33h5a.31.31,0,0,0,.31-.28c0-.13,0-.26,0-.39A3.53,3.53,0,0,0,21.56,60.63Zm-1.87,2.89a2,2,0,0,1,3.7,0Z"/><path class="cls-2" d="M57.57,20.76A21.31,21.31,0,0,1,52,44.24a21.85,21.85,0,0,1-21.35,4.45A21.21,21.21,0,0,1,27.28,9.82C34,6,44,6.62,50.05,11.24a21.62,21.62,0,0,1,7.52,9.52"/><path class="cls-8" d="M36.49,17.2c.76-.22,1.73-.8,2.49-.22.53.8,2,1.06,1.6,2.18a15.06,15.06,0,0,0,2.58,2.71c.23,0,.31-.09.4-.22l-.27-.14c.32-.26,1.07.18,1.56-.09a1.22,1.22,0,0,1,1,.4A7,7,0,0,0,46.41,23l.17-.09A10.52,10.52,0,0,0,47.16,24c1.6.54,2.36,2.45,3.78,3.25a23.26,23.26,0,0,0,5.61,3.34c-.09.26.22.26.35.35v0a1.25,1.25,0,0,0-.89-.18c.27.4.94.22,1.07.67h-.71c0,.13.18.13.27.17-.36-.13-.72.14-.94-.31A30.64,30.64,0,0,1,51.61,29l0,0a18.44,18.44,0,0,0,3.6,2.36c.4.22,1,.36,1.2.76-.13,0-.36,0-.4.22l-.31-.18c-.09.05,0,.13,0,.18l.23.18a19.2,19.2,0,0,1-4.58-2.67c-.67-.45-1.34-.8-2-1.29-.08,0-.22-.05-.26.09.76.58,1.55.93,2.31,1.47a12.74,12.74,0,0,1-4.14-3c-.49-.49-1.2-1.52-2-1.34-.31.18-.8.14-1.16.31-.26,0-.49-.31-.75-.09-.23.49-.94.09-1.07.63-.44.17-1.25,0-1.38.58l0,.22c-.89.4-2.09.26-2.71,1.11-.18.18-.53-.05-.71.18a.13.13,0,0,0-.13-.18c-.23-.09-.36.13-.54.18-.13-.23.18-.27.14-.41-.4-.17-.58.36-.89.54,0-.36.44-.4.57-.71-.22-.13-.4.09-.57.13.08,0,.26-.36,0-.36.22-.35.71-.22.84-.62h-.35c.35-.26.75-.57,1.06-.84-.13,0-.4-.36-.62-.05,0,0,.09-.08,0-.13s-.4.13-.62.13c0,.05,0-.13-.09-.17h-.13c.13-.09.31-.31.49-.45l-.09-.09c.67-.4,1.33-.84,2-1.16l.13-.13a.46.46,0,0,0-.71,0c.58,0,.05-.67.62-.75a1.78,1.78,0,0,1,.9-1.07c-.58-.53-.81-1.51-1.47-1.82-.05-.4-.45,0-.49-.4-.8-.05-1.74.35-2.27-.36a3.31,3.31,0,0,0-1.33,0,4.31,4.31,0,0,0-.72,1.11,4,4,0,0,0-.79,1.11,3.65,3.65,0,0,1-1.61,1.42V23.6c-.49.67-1.55.4-2.18,1.11l0-.17a.37.37,0,0,0-.45.26v.09c-.31-.09-.53.27-.66.45-.76.8-2,.8-2.8,1.47-.09,0,0,0,0,0-1.47.31-2.18,1.42-3.16,2.49a6.37,6.37,0,0,1-1.07,1.07c.09.35-.45.49-.62.67.17-.32.57-.58.62-.94-.36.18-.45.58-.84.76-.23-.18.22-.31.08-.49l-.53.4.49-.67c-.27,0-.53.49-.85.54-.08.13-.22.13-.4.13v0A8.71,8.71,0,0,0,19.1,30c-.31-.18-.67.23-.89.18s0-.27-.27-.18c.23-.18.45-.31.54-.57-.18-.05-.4.08-.58.17,0-.22.49-.36.35-.71-.57-.09-.48.49-1,.62.49-.66,1.2-1.07,1.69-1.78l0,0a12.92,12.92,0,0,1,3.25-2.31c.93-.54,2.18-.8,2.85-1.69a7.93,7.93,0,0,0,.71-1c.13.05.18-.09.22-.17a4.2,4.2,0,0,1,2.18-.67c.36-.36,1-.13,1.29-.62.93-1.11,1.29-2.49,2.09-3.61.26-.35.58-.93,1.11-1.06a21.17,21.17,0,0,1,3.87.71"/><path class="cls-9" d="M36.49,17.2c.76-.22,1.73-.8,2.49-.22.53.8,2,1.06,1.6,2.18a15.06,15.06,0,0,0,2.58,2.71c.23,0,.31-.09.4-.22l-.27-.14c.32-.26,1.07.18,1.56-.09a1.22,1.22,0,0,1,1,.4A7,7,0,0,0,46.41,23l.17-.09A10.52,10.52,0,0,0,47.16,24c1.6.54,2.36,2.45,3.78,3.25a23.26,23.26,0,0,0,5.61,3.34c-.09.26.22.26.35.35v0a1.25,1.25,0,0,0-.89-.18c.27.4.94.22,1.07.67h-.71c0,.13.18.13.27.17-.36-.13-.72.14-.94-.31A30.64,30.64,0,0,1,51.61,29l0,0a18.44,18.44,0,0,0,3.6,2.36c.4.22,1,.36,1.2.76-.13,0-.36,0-.4.22l-.31-.18c-.09.05,0,.13,0,.18l.23.18a19.2,19.2,0,0,1-4.58-2.67c-.67-.45-1.34-.8-2-1.29-.08,0-.22-.05-.26.09.76.58,1.55.93,2.31,1.47a12.74,12.74,0,0,1-4.14-3c-.49-.49-1.2-1.52-2-1.34-.31.18-.8.14-1.16.31-.26,0-.49-.31-.75-.09-.23.49-.94.09-1.07.63-.44.17-1.25,0-1.38.58l0,.22c-.89.4-2.09.26-2.71,1.11-.18.18-.53-.05-.71.18a.13.13,0,0,0-.13-.18c-.23-.09-.36.13-.54.18-.13-.23.18-.27.14-.41-.4-.17-.58.36-.89.54,0-.36.44-.4.57-.71-.22-.13-.4.09-.57.13.08,0,.26-.36,0-.36.22-.35.71-.22.84-.62h-.35c.35-.26.75-.57,1.06-.84-.13,0-.4-.36-.62-.05,0,0,.09-.08,0-.13s-.4.13-.62.13c0,.05,0-.13-.09-.17h-.13c.13-.09.31-.31.49-.45l-.09-.09c.67-.4,1.33-.84,2-1.16l.13-.13a.46.46,0,0,0-.71,0c.58,0,.05-.67.62-.75a1.78,1.78,0,0,1,.9-1.07c-.58-.53-.81-1.51-1.47-1.82-.05-.4-.45,0-.49-.4-.8-.05-1.74.35-2.27-.36a3.31,3.31,0,0,0-1.33,0,4.31,4.31,0,0,0-.72,1.11,4,4,0,0,0-.79,1.11,3.65,3.65,0,0,1-1.61,1.42V23.6c-.49.67-1.55.4-2.18,1.11l0-.17a.37.37,0,0,0-.45.26v.09c-.31-.09-.53.27-.66.45-.76.8-2,.8-2.8,1.47-.09,0,0,0,0,0-1.47.31-2.18,1.42-3.16,2.49a6.37,6.37,0,0,1-1.07,1.07c.09.35-.45.49-.62.67.17-.32.57-.58.62-.94-.36.18-.45.58-.84.76-.23-.18.22-.31.08-.49l-.53.4.49-.67c-.27,0-.53.49-.85.54-.08.13-.22.13-.4.13v0A8.71,8.71,0,0,0,19.1,30c-.31-.18-.67.23-.89.18s0-.27-.27-.18c.23-.18.45-.31.54-.57-.18-.05-.4.08-.58.17,0-.22.49-.36.35-.71-.57-.09-.48.49-1,.62.49-.66,1.2-1.07,1.69-1.78l0,0a12.92,12.92,0,0,1,3.25-2.31c.93-.54,2.18-.8,2.85-1.69a7.93,7.93,0,0,0,.71-1c.13.05.18-.09.22-.17a4.2,4.2,0,0,1,2.18-.67c.36-.36,1-.13,1.29-.62.93-1.11,1.29-2.49,2.09-3.61.26-.35.58-.93,1.11-1.06A21.17,21.17,0,0,1,36.49,17.2Z"/><polygon class="cls-2" points="46.41 22.49 46.23 21.91 46.41 22.4 46.41 22.49"/><path class="cls-2" d="M46.72,23.38c-.18,0-.14-.18-.22-.31a.64.64,0,0,1,.22.31"/><path class="cls-10" d="M25.51,23.69c-.14-.26.22-.35.35-.58a1,1,0,0,1-.35.58"/><polygon class="cls-10" points="29.77 23.78 29.77 23.74 29.91 23.74 29.77 23.78"/><path class="cls-10" d="M28.84,24.05c-.09.09-.13.22-.27.18s.18-.27.27-.18"/><path class="cls-2" d="M37.38,24.8c-.22.18-.67.32-.71.58-.4,0-.67.36-1,.36,0-.36.58-.14.62-.49l.36-.27,0,.14c.14-.14.58-.05.45-.41Z"/><path class="cls-2" d="M36,25.07a.71.71,0,0,1-.49.36c.09-.22.26-.22.49-.36"/><path class="cls-10" d="M26.8,25.6c.08.14-.09,0-.14.09s.09-.09.14-.09"/><rect class="cls-2" x="36.8" y="25.83" width="0.13" height="0.13"/><path class="cls-2" d="M36.62,26.14c0,.09-.09.09-.13.18h-.13c0-.14.09-.18.17-.23s0,.05.09.05"/><path class="cls-2" d="M37.47,27c0,.18-.27.18-.36.23s0-.09,0-.18.17-.09.31-.05"/><path class="cls-10" d="M37.56,27.25c-.05.18-.36.18-.54.31,0-.18.23-.26.36-.35s.18,0,.18,0"/><path class="cls-10" d="M48.23,27.7c.18.08.27.3.4.44l-.13.13a3.17,3.17,0,0,1-.67-1c.13.13.22.36.4.45"/><path class="cls-2" d="M54.64,30.05c-.14.09-.32-.09-.45-.13Z"/><path class="cls-2" d="M55.88,30.72c-.35-.22-.84-.22-1.11-.49a2.48,2.48,0,0,1,1.11.49"/><polygon class="cls-2" points="51.97 30.68 51.44 30.27 51.79 30.45 51.97 30.68"/><polygon class="cls-2" points="55.75 32.01 55.79 31.92 55.92 32.01 55.75 32.01"/><path class="cls-2" d="M55.57,32.23h-.18v-.09s.13,0,.18.09"/></g></g></svg>