<svg xmlns="http://www.w3.org/2000/svg" viewBox="0 0 167.85 128.98"><defs><style>.cls-1{fill:#57595b;}.cls-2{fill:#fff;}.cls-3{fill:#191919;}.cls-4{fill:#6cceba;}</style></defs><g id="圖層_2" data-name="圖層 2"><g id="圖層_1-2" data-name="圖層 1"><polygon class="cls-1" points="67.99 26.42 68.18 27.07 70.42 26.31 69.14 29.87 71.12 29.23 71.89 30.34 72.85 31.23 75.37 28.22 75.78 30.39 76.59 31.94 77.63 33.27 79.37 28.94 80.24 33.33 81.85 28.3 83.09 28.93 84.5 28.12 85.42 29.99 85.35 34.37 88 30.02 87.69 33.72 88 35.31 89.64 34.46 92.56 32.25 91.61 35.36 93.57 34.87 95.32 34.88 94.66 37.03 95.09 38.12 96.34 38.68 97.24 39.54 95.7 41.5 97.02 42.15 99.64 42.57 97.16 44.39 100.24 45.05 96.06 46.63 97.44 47.62 96.98 49 100.58 49.95 100.83 50.88 97.88 52.46 97.59 53.74 98.75 54.6 98.85 55.8 99.21 56.92 102.16 56.54 100.76 58.71 102.67 58.65 100.45 62.07 103.78 60.5 103.05 61.25 103.42 62.42 104.52 62.92 104.71 64.13 108.59 63.06 108.94 64.38 109.19 65.69 108.6 67.25 108.83 68.44 108.32 69.77 111.15 70.55 106.89 72.15 108.26 73.18 108.74 74.33 110.66 75.76 109.2 76.78 107.66 77.6 107.5 78.73 106.99 79.75 106.54 80.78 104.4 80.81 104.73 82.26 105.96 84.61 105.33 85.7 105.89 86.47 102.64 85.06 102.05 86.05 102.52 87.67 101.5 88.34 102.36 89.91 101.24 90.58 97.33 90.56 98.33 92.1 102.42 93.93 97.17 94.44 98.76 95.68 101.73 97.03 97.85 97.84 97.8 98.96 99.59 100.22 101.35 101.66 97.93 102.23 100.81 104.17 100.78 105.53 98.34 105.89 96.66 106.33 94.44 106.24 93.8 106.96 95.32 109.4 94.12 109.82 92.99 110.19 94.38 113.52 90.52 110.31 90.88 112.69 89.78 112.92 90.13 116.31 87.47 112.8 87.06 114.93 85.64 113.71 84.73 114.55 84.11 117.53 82.81 116.07 81.96 117.59 81 118.43 79.66 116.71 78.28 115.76 77.7 117.54 76.69 117.85 74.6 116.08 75.8 120.44 74.58 120.31 71 117.19 72.02 120.69 69.32 118.83 70.75 122.93 68.62 121.9 67.66 122.56 68.62 125.99 65.14 123.02 66.52 127.22 64.25 125.56 62.02 123.2 61.7 124.95 61.45 127.62 60.2 127.31 59.34 128.98 57.84 125.85 56.86 126.51 55.86 125.68 54.86 125.83 53.52 127.83 53.04 124.91 52.35 123.88 49.98 127.67 50.73 123.09 48.27 125.87 48.17 123.88 46.02 125.37 46.35 122.78 45.44 122.24 44.17 122.3 42.05 123.74 41.67 122.32 42.41 119.05 39.92 121.09 38.68 121.08 37.69 120.86 37.78 118.32 36.19 119.43 35.03 119.8 34.27 118.86 33.24 118.54 32.02 119.07 31.27 117.56 30.06 118.03 29.43 115.99 27.65 118.9 26.69 117.74 25.23 118.22 24.49 116.8 23.27 116.55 24 113.04 23.34 112.27 21.59 112.89 18.8 114.33 19.58 111.84 20.6 109.53 19.96 108.8 15.61 110.44 19.02 107.12 17.26 106.89 18.6 105.23 16.81 104.83 16.21 103.92 15.7 102.94 13.72 102.1 15.26 100.82 16.21 99.43 12.4 98.3 13.03 97.26 16.88 95.51 13.56 95.06 12.41 94.33 11.09 93.79 10.91 92.84 14.85 89.47 11.6 90.1 11.17 89.07 12.03 87.07 8.53 88.45 11.93 84.48 10.43 84.31 10.12 83.2 6.13 84.96 7.93 82.21 5.36 82.87 6.43 80.7 5.13 80.23 5.08 79.01 5.15 77.81 4.44 76.95 2.23 76.45 1.35 75.4 2.56 74 2.33 72.87 3.34 71.72 0 70.41 3.79 69.6 5.5 68.86 2.54 67.07 1.08 65.33 2.73 64.61 3.89 63.83 3.35 62.16 6.11 62.52 6.63 61.55 8.33 61.38 7.25 59.32 6.41 57.43 6.41 56.1 8.11 55.92 12.37 57.46 10.97 55.08 11.56 54.03 9.7 51.98 13.26 52.07 14.87 51.17 12.23 49.34 15.38 48.61 13 46.9 15.74 46.1 14.63 44.87 16.09 44.25 15.7 43.09 16.16 42.21 14.81 40.35 13.93 38.47 18.6 40.35 17.84 38.54 19.66 38.85 16.57 34.16 19.3 35.49 20.5 35.3 21.31 34.59 20.67 31.11 21.83 30.56 23.96 32.58 25.64 34.31 26.32 32.97 26.91 30.11 28.58 34.73 29.39 31.77 30.51 30.8 31.64 30.73 32.73 32 33.56 29 35.16 32.73 35.51 29.06 37.21 31.28 37.41 28.65 38.01 27.63 38.8 27.14 39.85 27.07 43.25 30.06 44.28 29.35 43.48 26.71 45.98 27.86 47.12 27.61 44.61 23.18 45.77 22.59 46.79 21.85 48.55 22.41 50.84 24.54 50.8 21.74 51.84 21.2 53.41 22.8 54.59 23.59 55.5 23.01 56.43 21 57.46 23.83 58.77 20.06 59.92 20.41 60.87 21.51 61.42 23.5 62.42 23.7 64.31 22.01 65.39 22.47 67.19 21.81 66.07 25.47 68.75 23.89 67.99 26.42"/><ellipse class="cls-2" cx="38.28" cy="66.81" rx="7.04" ry="6.55"/><ellipse class="cls-2" cx="64.62" cy="66.81" rx="7.04" ry="6.55"/><ellipse class="cls-3" cx="39.22" cy="66.81" rx="4.14" ry="3.85"/><ellipse class="cls-3" cx="66.42" cy="66.81" rx="4.14" ry="3.85"/><polygon class="cls-4" points="113.82 41.9 123.13 25.27 139.76 37.24 113.82 41.9"/><ellipse class="cls-4" cx="143.15" cy="20.95" rx="24.7" ry="20.95"/></g></g></svg>