<svg xmlns="http://www.w3.org/2000/svg" viewBox="0 0 228.61 5.3"><defs><style>.cls-1{fill:#54bad3;}</style></defs><g id="圖層_2" data-name="圖層 2"><g id="圖層_1-2" data-name="圖層 1"><path class="cls-1" d="M228.55,5.24c.12-.08.06-.28-.27-.26L228,5.3Z"/><path class="cls-1" d="M226.35,4.52c-.4.14-.86.4-.62.72.4-.3.49-.16.92-.52.33,0,.57.13.51.25.12-.08.51.1.7-.1a1.76,1.76,0,0,0-1.55-.13C226.2,4.66,226.32,4.58,226.35,4.52Z"/><path class="cls-1" d="M194,2.64l.21,0Z"/><path class="cls-1" d="M173.9,1.84c.15,0,.21,0,.22-.07C174,1.79,173.86,1.81,173.9,1.84Z"/><path class="cls-1" d="M170.48,1.38l.2,0A.31.31,0,0,0,170.48,1.38Z"/><path class="cls-1" d="M194,2.64l-.53-.12C193.4,2.63,193.71,2.61,194,2.64Z"/><path class="cls-1" d="M221.85,5.11a.89.89,0,0,0,.29-.08l-.27,0Z"/><path class="cls-1" d="M202.84,2.7H203a.86.86,0,0,0,.14-.13Z"/><path class="cls-1" d="M209.63,2.93c-.15,0-.22.26-.28.38a.52.52,0,0,1,.34-.18A.3.3,0,0,0,209.63,2.93Z"/><path class="cls-1" d="M220.38,3.9l.19,0Z"/><path class="cls-1" d="M198,2.45a.33.33,0,0,0-.06-.1A.12.12,0,0,0,198,2.45Z"/><path class="cls-1" d="M8,5S8,5,8,5,7.9,5,8,5Z"/><path class="cls-1" d="M0,4h.1a1,1,0,0,0,0-.16Z"/><path class="cls-1" d="M164.21.88h0C164.4.85,164.3.86,164.21.88Z"/><path class="cls-1" d="M106.55.45c.66.25-1.06.33-.08.61C106.38,1,107.37.62,106.55.45Z"/><path class="cls-1" d="M221.67,5.06h-.28A.92.92,0,0,0,221.67,5.06Z"/><path class="cls-1" d="M106.47,1.06h0l.1,0Z"/><path class="cls-1" d="M149.73.76a.49.49,0,0,0,.15.13S149.84.82,149.73.76Z"/><path class="cls-1" d="M160.5,1.36l-.26,0A1.51,1.51,0,0,0,160.5,1.36Z"/><path class="cls-1" d="M144.13,1.06a.94.94,0,0,0-.39,0l.06,0A.4.4,0,0,1,144.13,1.06Z"/><path class="cls-1" d="M138.31,1l.1.06h.19Z"/><path class="cls-1" d="M25.63,4.21A.87.87,0,0,1,25.35,4C25.44,4.16,24.59,4.26,25.63,4.21Z"/><path class="cls-1" d="M221.85,5a.21.21,0,0,1-.18.11h.2A.08.08,0,0,0,221.85,5Z"/><path class="cls-1" d="M143.86,3.27l-.92,0A8.36,8.36,0,0,0,143.86,3.27Z"/><path class="cls-1" d="M67.36,3.1l-.21,0A.29.29,0,0,0,67.36,3.1Z"/><path class="cls-1" d="M140.19,3.23a1.6,1.6,0,0,0-.51-.2.3.3,0,0,0-.11.07Z"/><path class="cls-1" d="M25.35,4h0Z"/><path class="cls-1" d="M19.28,4.85c.88,0,.4-.38.58-.59,1.05-.15.5.25.86.43a14.63,14.63,0,0,1,1.64-.49c0,.06.13.08,0,.16.69-.32,2.06-.09,2.86-.48a.38.38,0,0,1,.11.08.66.66,0,0,1-.15-.5c.4,0,.73-.26.89,0-.25,0-.26.1-.37.18l.41-.12c.38.33-.56.14-.56.39a10.17,10.17,0,0,1,2.36-.38c.14.33-1.44.16-.61.43l-1-.09c.75.51-.58,0,.11.53,1.26.06,1.4-.23,2.66-.16.28-.2-.1-.28.17-.48,1.78-.39,1.44.81,2.73.32.34-.23.45-.67,1.4-.47L33.12,4c1.22,0,.68-.57,2-.35-.22.16-.95.16-.77.2.84.28.58-.24,1.22-.26l.14.34c1.3-.09,2.72-.38,4.15-.49-.07.11-.32.22,0,.31a27.83,27.83,0,0,1,5.63.09l.66-.31c.15,0,.29.13.12.19.69.1,0-.19.36-.31s.51.16.27.25a12.94,12.94,0,0,1,4.69-.33l-.25.09c1,.09,1.1-.63,2-.38l-.17.06c2.14.07,4.5-.25,6.15.17.3-.43,2.12.15,2.25-.45a11,11,0,0,0,2.6.55c.46,0,.68-.38,1.25-.45l0,.31.76-.34.42.36.53-.09c-.21,0-.45-.13-.42-.22a3.19,3.19,0,0,1,2.06.34l2-.3c0,.13-.37.17-.63.26,1-.34.2.32,1.16,0-.13-.06.07-.18.09-.24a6.71,6.71,0,0,0,2.38.08l-.15.21c1.46,0,3.08-.14,4.72-.16-.59-.09-.46-.46,0-.5l.2.32c.31-.2-.5-.11.13-.37.61,0,.42.37.07.48l.74-.12c0,.09-.13.15-.17.27.3-.2,1.29.31,1.72,0l0,.09c1.64,0,2.38-.14,3.72-.17,0-.28.54-.23.94-.46A26,26,0,0,0,89,2.89c.83-.14.24-.24.61-.41.06.26,1.24.23.63.41a30.85,30.85,0,0,0,3.61-.28c-.2-.1-.41-.15-.3-.23.32,0,.74.1.69.22l-.08,0c2-.4,4.65.71,6.26.17l-.09,0L102,2.55c.77,0-.46.19.11.35,1.79-.43,2.84.06,4.32-.22,1.14.75,4.06-.06,5.6.42l-.09-.18c.4-.17.49.11.78.15,0-.14-.43-.16-.18-.26,3.38-.22,7,.29,10.44.47,1.27.05.73-.92,2.32-.49l-.45.33c2.56-.39,5.23,0,7.74-.26-.15.08-.15.17-.4.17.53.25,2,0,2-.16.39,0,.09.18.33.28.53.15,1.33-.29,1.61,0,0,0-.15.08-.25.09.35-.11,1.62.05,1.29-.23.94.14,1.8-.1,2.55.07.49-.31,1.6.17,1.77-.27-.08.45,1.64.38,2.24.18-.2.13.51.15.28.34.67,0,1.3-.07,1.18-.31,1.24.57,2.52-.39,3.21.32,2-.21,3.89-.35,5.71-.42-.08.45-2,0-1.94.49A22.24,22.24,0,0,1,156.56,3c.44.07-.26.19-.41.26,1.73-.16,3.32.11,4.86-.1,0,0-.17.09-.33.12.3,0,.7.08.67-.13l-.29,0c-.48-.31,1.21-.59,1.26-.75-.52.58,1.51.18.68.91.2,0,.45-.13.41-.27.29,0,.38.13.08.28,1.08-.09.71-.31,1.68-.28,0,.09-.2.13-.3.24A3.51,3.51,0,0,1,166.69,3c-.05.06.05.14-.2.13,1.42,0,2.43-.46,4-.23-.47.42.53.15.6.52l.84-.09-.33-.19a12.86,12.86,0,0,1,2-.08l-.55.14,1.37,0L173.65,3c.75-.17-.07-.47.91-.34-.2,0,.73,0,1.11.25h0A2.41,2.41,0,0,1,177,2.84c.13.12-.13.41,0,.49.37-.3,1.72,0,2.18-.35-.15.07-.16.27-.11.31l.3-.25c.34.09.39.13.33.29,1,.07-.31-.48.9-.25-.1,0-.06.06-.25.09,1.21.15,2.35-.09,3.47.07.32.38-1,.06-.61.39,1.61,0,3.35-.35,4.91-.21l-.29,0c.24-.52,1.16.3,1.95.08-.19,0-.26.29-.21.23a23.49,23.49,0,0,0,3.82-.17l-.2.13c.62.15,1.65.13,2.33.22.21-.13.6-.1.37-.3,2.07.85,4-.29,5.85.44-.22,0-.53.1-.35.11l1.59-.06c-.12-.24-.2-.15-.53-.35a2.21,2.21,0,0,1,1-.2c-.72.13,0,.37.29.52,0-.08.06-.15,0-.22.81.44.16-.46,1.28-.14l-.07.12a5.46,5.46,0,0,1,1.28-.14c.18.28-.45.11-.49.33.64,0,1.28-.46,1.85-.17-.27.07-.66.05-.94.12a2.34,2.34,0,0,0,1.16.33h0l1.08.18-.28-.09c.84-.67,1.64-.06,2.74-.47-1.06.38-.18.24-.27.54.27.09.68.2.56.28.52-.22.85.23,1.58-.1,0,.1.55,0,.42.28.67-.05-.15-.18-.09-.3,1-.29,2.39.51,3.88.12,1.28-.12,1.53-.44,2.72-.55.39.17-.34.34-.34.34a4,4,0,0,0,1.72.09c-.12.08,0,.15.18.27.49,0,.34-.34,1-.16a1.5,1.5,0,0,1-.5.36c.58-.06,1.15-.21,1.75-.27.15.17-.37.24-.59.34.67,0,1.73-.07,1.95-.33l-.42-.12c.24,0,.11.24-.07.28-.58.18-.82-.13-.84-.23l.42,0c-.4-.59-1.7,0-2.54-.06l.37-.4-.89.31c-.18-.12-.29-.36.13-.4-.6-.23-.55.12-1.06-.13,0,0,0-.06,0-.07l-.6.09c.12-.08-.09-.29.27-.22-1.05-.29-1.73.23-2.12-.1l.09,0c-1.48.07-.15.3-1.28.6L216,3.47l-.16.29c-.16,0-.46,0-.4-.17-.57.18.1.14-.24.32-.73-.32-2,0-2.18-.45-.27.22.69.2-.1.33-.2-.53-.91.06-1.57-.21.22-.26.85-.09.19-.36-.43.44-1.31-.16-1.88-.09,0,.36-1.24.1-2.19.18a21.73,21.73,0,0,0-2.66-.44l0-.06c-.19.36-1.1.26-1.77.3,0-.21.16-.3.52-.38l-.62,0a1.41,1.41,0,0,1-.76.19l.17-.27a12.44,12.44,0,0,1-2.75,0c-.07.25.83.74-.31.87,0-.14-.07-.37.23-.42a1.31,1.31,0,0,1-.55,0l.46-.22c-.48-.12-.26.19-.65.15,0-.2-.28-.15-.22-.3s.34.09.49,0A2.51,2.51,0,0,1,198,2.45c0,.12,0,.27-.34.28-.83,0-.27-.24-.75-.36-.21.13-.74,0-.76.26-.24,0-.28-.15-.37-.23-.44.12-2,0-1.54.3l.11,0h-.07c-1.42.25-2.93-.27-4.33-.19v-.1a17,17,0,0,0-2.46.2c-.25,0-.58-.2-.47-.32a3.61,3.61,0,0,1-1.63,0c.64-.15-.22-.16.66-.11a3.53,3.53,0,0,0-1.91,0c.31-.25-.62-.34-1-.28l.57.2a8.07,8.07,0,0,1-1.22,0l.22-.33c-1.69-.45-3.08.6-4.36-.11-.45.22.92.19.51.45A10.91,10.91,0,0,1,177,1.47c-1.07-.21-1,.46-2.13.3.14.12.26.44-.57.53s-.95-.52-.46-.6c.19,0,.28,0,.27.07.26,0,.59-.08.28-.21l-.1.11c-.39-.13-1.46-.15-1.21-.34-.59.1-.25.19.18.27-1-.2-1.56-.06-2.59-.19.16.07.31.21.14.2-1.51-.18-.67.21-1.7.24-.57-.19.22-.42-.81-.3-.63-.13-.13-.31.12-.41A5.86,5.86,0,0,1,166.14.9l.5-.08a3.59,3.59,0,0,1-.79,0l.28.25c-.29-.05-.54-.06-.53-.16-.3.15.22.4-.38.6-.38-.13-1.18.1-1.31-.21,1.22.13-.13-.32.91-.35a2.35,2.35,0,0,1-.74,0s0-.07.13-.08c-1.17-.31-.55.34-1.76.31.16-.18-.27-.35-.47-.31.49,0,.23.3-.23.42-.77-.15-.84.09-1.25.06l.47.08c-.17.17-.55.14-1.09.18,0-.14.49-.08.3-.15-.61.3-1.35-.35-2.2-.16-.38-.13,0-.34-.37-.42-.94.21-1-.27-2-.09.28.24.33.18-.37.4l1.63-.14-1.05.33c.49,0,1-.13,1.33-.08-.5.18-.45.12-.22.33-.66-.37-1.33.18-2.1-.07l0-.59c-1.16-.29-2.08.26-3.59.09l.49.11c-.21.23-.94,0-1.43.11,0-.2-.25-.28-.46-.4,0,.14-1.11,0-1.25.35L148,1c-1.22-.12-1.4.54-2.58.45.36-.2-.17-.35.62-.49-.39,0-.75-.05-.75.08-.23-.12-1.09.25-1.45.06-.17.08-.22.29-.66.26,0,0,0-.09,0-.09s-.69.12-.31.34c-1.2-.63-3.37,0-4.42-.53-.85.06-1.88.11-2.66.11.05,0,0-.09.15-.07-1.07-.2-.66.56-1.88.34-.62-.33.65-.17.26-.29-.16-.65-1.47.07-2.28-.32l.19,0c-.62-.23-1.53.23-2.55.17,0,0,.05-.06,0-.1a11.45,11.45,0,0,1-3,.51c.31-.25.45-.13.26-.39-.44,0,.13.41-.75.48-.29-.14-.92-.26-1-.54H126c-.43-.36-1.08,0-1.52-.06l.06-.15c-1.27,0-1.29.43-2.66.4l.14.12c-.75.38-.63-.23-1.38.06l-.22-.4a23.94,23.94,0,0,1-2.62.45A11.36,11.36,0,0,1,120,.72,5.45,5.45,0,0,0,118,.94a1.4,1.4,0,0,1,.64-.08,5.11,5.11,0,0,1-2.37.45c.17-.77-2.54-.21-3.25-.8-1.73.29-3.42-.12-5.43-.07.71.59-.59,0-.47.63-.46,0-.64,0-.69,0L105.06.69c-.34-.17.44-.13.4-.27-1,0-.43-.26-1.11-.42.14.22-.36.31-.94.23l.82.28C102.8.84,103,0,101.55.32L102,.13c-.74.11-2.73,0-3.46.5-.13-.07-.3-.24,0-.28C96.79.28,94.63.89,93.25.6l.13-.15c-.33,0-.57.28-1,.14,0-.07.13-.15,0-.16a3.29,3.29,0,0,1-1.31.18l.37-.17C89.7.26,88.78.87,87.33,1c0-.44-1.36-.58-2-.64l0-.06A38.2,38.2,0,0,0,80,.88C78.88.42,76.12.73,74.26.48c.29.08,0,.35-.37.39s-1.2.32-1.14-.08h.16C72.57.4,71.68.52,71,.52l-.11.53c-1.84-.74-4.79.37-5.8-.3-.44.14-1,.15-1.42.29l0-.29a27,27,0,0,0-3.35,0l.3-.2c-.85,0-1.06.83-1.85.86L58.53,1c-1.49,0-3-.31-4.47.11a.33.33,0,0,1,.31-.21c-.7,0-2.72-.22-2.45.36,0-.38-1.54,0-2.34.18l.12-.28a3.11,3.11,0,0,1-1.63.59c-.23,0-.21-.22.09-.15-.75-.13-.57.28-1.48.15L47,1.58a1.52,1.52,0,0,0-1.12.31c-.48.13-1.47,0-1.59-.28a1.13,1.13,0,0,1-1,.31c-.06-.1.1-.16.18-.19-1.29-.16-1.9.38-2.79.13a.2.2,0,0,0-.16-.16,15.15,15.15,0,0,1,1.77,0c0-.26-.83-.28-.18-.65a7.27,7.27,0,0,1-2.59.57.48.48,0,0,1-.11-.09l.08,0a1.24,1.24,0,0,0-.51.06,3.77,3.77,0,0,0-.66-.06c-.11-.21-1-.09-1.37-.08,0,.28-.5.25,0,.46-.07,0,.07,0,.35-.05a.71.71,0,0,0,.17,0l0,0,1-.05a1.44,1.44,0,0,1-1.12.14,7,7,0,0,1-.56.47C36.27,2,35.18,1.82,35,1.58c-1.25.2-3,.19-3.73.75-.36.07-.42-.14-.55-.22A2.67,2.67,0,0,0,31.3,2c-.71.16-2.12.12-2.28.49-.9-.14.5-.35-.74-.26l.17-.11c-2.46-.51-3.93,1.08-6.66.42.19,0,.29.06.33.12-3.09-.22-6.33.53-9.39.13-.86-.07-1,.17-1.47.37l-.2-.29-.88.38c-1.27.31-2.24-.64-3.84-.09l.22.19c-.59,0-1.84.2-1.75,0a.36.36,0,0,1-.41.12l0-.15L3,3.58c-1.11-.07.14-.64-1.47-.6-.6.09-1.69.53-1.46.63s.62.07.65.23L.13,4c-.07.46-.47,1,.89,1.23l.92-.33.31.22-.78,0a1.07,1.07,0,0,0,1-.15.62.62,0,0,0,.4.24l.9-.49c.12.18-.39.38.23.46.42-.23-.43-.39.28-.56.45.19.33.37.85.17.08.11,0,.19-.24.26.47-.17,1.24-.12,1.47-.37C6.88,4.91,8,4.53,8,5a3.44,3.44,0,0,1,1.24-.41c-.76.56,1.62,0,1.43.53.56-.5,2.09-.3,3.12-.6-.06,0-.17.12-.26.1a4.5,4.5,0,0,1,1.13.22c.06-.39,1-.51,1.44-.77.72.35-.42.47-.18.83,0-.32,1.22-.36,1-.62.55.21.47.1.77.41.07-.49.5-.1.94-.42.8.22.22.45,1.08.27C20.05,4.65,19.28,4.85,19.28,4.85ZM39.82,3.33h0l-.42,0Zm1.73-.06H40.8c-.06-.09,0-.19.18-.19C40.88,3.15,41.29,3.2,41.55,3.27ZM37.84,1.44c.27-.05.36,0,.4.06-.13,0-.28,0-.47,0l0,0A.31.31,0,0,1,37.84,1.44Z"/><path class="cls-1" d="M37.36,1.82l-.12,0,.17.06.09-.09Z"/><path class="cls-1" d="M194.22,2.7h0l.08,0A.07.07,0,0,1,194.22,2.7Z"/><polygon class="cls-1" points="65.44 3.28 65.44 3.21 65.29 3.27 65.44 3.28"/><path class="cls-1" d="M203.7,4a.3.3,0,0,0,.13.07S203.77,4.05,203.7,4Z"/><path class="cls-1" d="M207.81,4.25l.58.12A4,4,0,0,0,207.81,4.25Z"/><path class="cls-1" d="M211,4.52A.88.88,0,0,0,211,4.4h0Z"/><path class="cls-1" d="M160.68,3.25h-.12C160.27,3.3,160.47,3.29,160.68,3.25Z"/><path class="cls-1" d="M175.66,3a3.72,3.72,0,0,1-.48.11C175.45,3.1,175.65,3.12,175.66,3Z"/><polygon class="cls-1" points="143.96 3.28 143.97 3.28 143.86 3.27 143.96 3.28"/><path class="cls-1" d="M174.48,3.05a1.67,1.67,0,0,0,.7,0A2.74,2.74,0,0,0,174.48,3.05Z"/><path class="cls-1" d="M224.66,5.27l.15,0a.08.08,0,0,1,0,0Z"/><path class="cls-1" d="M224.83,5.24l.18,0A.24.24,0,0,0,224.83,5.24Z"/><path class="cls-1" d="M225.36,5.16l-.35.06C225.13,5.22,225.28,5.24,225.36,5.16Z"/><path class="cls-1" d="M220.49,4.94l-.06.1A.14.14,0,0,0,220.49,4.94Z"/><path class="cls-1" d="M219.21,4.91a4.71,4.71,0,0,0,1.18.21l0-.08C220.23,5.18,219.51,4.75,219.21,4.91Z"/><path class="cls-1" d="M214,3.4l1.06.13c-.18-.11-.42-.27.07-.28C213.76,2.87,215.36,3.51,214,3.4Z"/><path class="cls-1" d="M210.66,3.11c.58,0,0-.16,0-.22C210.33,3,210.24,3,210.66,3.11Z"/><path class="cls-1" d="M186.76,2.21l.07-.25C186.39,2,186.82,2.06,186.76,2.21Z"/><polygon class="cls-1" points="182.15 3.4 182.58 3.57 182.79 3.34 182.15 3.4"/><polygon class="cls-1" points="179.51 1.5 179.7 1.47 178.96 1.54 179.51 1.5"/><path class="cls-1" d="M139.35.75l.13.32C139.77,1,139.84.66,139.35.75Z"/><path class="cls-1" d="M122,.92a1,1,0,0,0-1-.11A6.46,6.46,0,0,0,122,.92Z"/><polygon class="cls-1" points="70 0.67 70.34 0.56 69.69 0.66 70 0.67"/></g></g></svg>