<svg xmlns="http://www.w3.org/2000/svg" viewBox="0 0 120.69 120.69"><defs><style>.cls-1{fill:#d5ef96;}.cls-2{fill:#59ac59;}</style></defs><g id="圖層_2" data-name="圖層 2"><g id="圖層_1-2" data-name="圖層 1"><circle class="cls-1" cx="60.35" cy="60.35" r="60.35"/><path class="cls-2" d="M90,72.77,81.49,36.83,72.75,38.9l-1-4.34c5.32-1.26,8.25-4.12,8.75-8.67l4.9-1.16,11,46.53Z"/><path class="cls-2" d="M41.06,82.11,38.39,70.83c-.79-3.36-2.58-4.73-5.36-4.07a7,7,0,0,0-5,4.77l3.06,12.94-4.07,1-4.7-19.88,4.07-1,.47,2a9.32,9.32,0,0,1,5.5-3.72c5.28-1.25,8.68,1.12,10.08,7l2.67,11.28Z"/><path class="cls-2" d="M65,74a10.31,10.31,0,0,1-6.5,4.33,10.12,10.12,0,0,1-7.74-1A9.79,9.79,0,0,1,46,70.69a10.83,10.83,0,0,1,1-8.13,10.06,10.06,0,0,1,6.68-4.75,10.07,10.07,0,0,1,8.1,1.25,11,11,0,0,1,4.54,6.82A9.94,9.94,0,0,1,65,74ZM59.25,62.49a6.06,6.06,0,0,0-8.55,2,7.23,7.23,0,0,0-.48,5.18A6.17,6.17,0,0,0,53,73.81a5.77,5.77,0,0,0,4.62.75,5.84,5.84,0,0,0,3.85-2.71,6.51,6.51,0,0,0,.58-5A7.3,7.3,0,0,0,59.25,62.49Z"/><path class="cls-2" d="M71.81,75.21l-1.36-5.73,5.73-1.35,1.36,5.73Z"/></g></g></svg>