<svg xmlns="http://www.w3.org/2000/svg" viewBox="0 0 120.69 120.69"><defs><style>.cls-1{fill:#8bdac1;}.cls-2{fill:#157a72;}</style></defs><g id="圖層_2" data-name="圖層 2"><g id="圖層_1-2" data-name="圖層 1"><circle class="cls-1" cx="60.35" cy="60.35" r="60.35"/><path class="cls-2" d="M95.92,43.31a51.61,51.61,0,0,1-5.24,9.57c-4.35,6.66-6.73,11.5-7.21,14.54l20.17-4.78,1.45,6.11L76.46,75.53a39.23,39.23,0,0,1,2.31-13.68,57.31,57.31,0,0,1,6.46-12,40.94,40.94,0,0,0,4.58-8.51,10.73,10.73,0,0,0,.35-6.16c-.91-3.83-4-5.2-9.2-4Q73.4,33,75.39,43.75l-6.65-.83c-.65-4.65,0-8.55,1.87-11.77a13,13,0,0,1,8.86-6.3,16.81,16.81,0,0,1,11.2.73,11,11,0,0,1,6.16,8A16.79,16.79,0,0,1,95.92,43.31Z"/><path class="cls-2" d="M35.88,86.58,33.21,75.3c-.79-3.36-2.58-4.73-5.36-4.08a7,7,0,0,0-5,4.77L26,88.93l-4.08,1L17.17,70l4.07-1,.47,2a9.35,9.35,0,0,1,5.5-3.71c5.28-1.25,8.68,1.11,10.08,7L40,85.61Z"/><path class="cls-2" d="M59.83,78.5a10.28,10.28,0,0,1-6.49,4.32,10.18,10.18,0,0,1-7.75-.95,9.81,9.81,0,0,1-4.8-6.71,10.8,10.8,0,0,1,1-8.14,10,10,0,0,1,6.67-4.74,10,10,0,0,1,8.1,1.25,11,11,0,0,1,4.54,6.82A9.91,9.91,0,0,1,59.83,78.5ZM54.07,67a6.07,6.07,0,0,0-8.55,2A7.26,7.26,0,0,0,45,74.15a6.18,6.18,0,0,0,2.77,4.12,5.76,5.76,0,0,0,4.63.75,5.86,5.86,0,0,0,3.85-2.71,6.49,6.49,0,0,0,.57-5A7.25,7.25,0,0,0,54.07,67Z"/><path class="cls-2" d="M66.63,79.68,65.27,74,71,72.59l1.36,5.73Z"/></g></g></svg>