<svg xmlns="http://www.w3.org/2000/svg" viewBox="0 0 133.85 133.85"><defs><style>.cls-1{fill:#e79961;}.cls-2{fill:#fff;}.cls-3{fill:#ed784a;}</style></defs><g id="圖層_2" data-name="圖層 2"><g id="圖層_1-2" data-name="圖層 1"><g id="圖層_2-2" data-name="圖層 2"><g id="圖層_1-2-2" data-name="圖層 1-2"><rect class="cls-1" width="133.85" height="133.85" rx="7.49"/><rect class="cls-2" x="6.43" y="6.43" width="120.97" height="78.81"/><circle class="cls-2" cx="113.04" cy="108.2" r="13.15"/><path class="cls-1" d="M111.31,116a1.51,1.51,0,0,1-1.06-.44,1.49,1.49,0,0,1,0-2.12l5.23-5.23L110.25,103a1.49,1.49,0,0,1,0-2.12,1.51,1.51,0,0,1,2.12,0l6.3,6.3a1.51,1.51,0,0,1,0,2.12l-6.3,6.29A1.51,1.51,0,0,1,111.31,116Z"/></g></g><path class="cls-3" d="M29.85,21.93a3.28,3.28,0,0,1,.24-.45c.09-.12.16-.19.26-.19a.6.6,0,0,1,.47.36l.91,1a.72.72,0,0,1,.17.36c0,.18-.26.37-.73.56a21.42,21.42,0,0,1-3,4.21h7.93a3,3,0,0,1-.31-.3,14.65,14.65,0,0,1-3.2-5.68l1.83-.44a16.77,16.77,0,0,0,.9,2.14,24.12,24.12,0,0,0,2.49-2.14l1.34,1.34a.42.42,0,0,1,.14.31c0,.14-.18.18-.56.18-.82.59-1.67,1.16-2.56,1.7a5.84,5.84,0,0,0,.75.94,4,4,0,0,0,.45.47,23.44,23.44,0,0,0,3.2-2.19L42,25.58a.42.42,0,0,1,.14.3c0,.14-.23.19-.66.19-.89.52-1.76,1-2.66,1.46a18.22,18.22,0,0,0,4,2.12l-1.37,1.86a23.14,23.14,0,0,1-4.61-3v1.18H27.31V28.56c-.14.12-.28.22-.4.31a20.85,20.85,0,0,1-4.66,2.71l-1.46-1.74a16.47,16.47,0,0,0,4-1.91,21.39,21.39,0,0,0-2.16-1.86l1.27-1.2a22.88,22.88,0,0,1,2.38,1.93,1.81,1.81,0,0,0,.33-.26,14.08,14.08,0,0,0,2.16-2.78H22.82V21.93Zm8.59,9.29v5.89H36.56l-.73,2.37h5.91v1.84H21.81V39.48h6L27,37.11H25.29V31.22Zm-2,1.84H27.31v2.21h9.11Zm-2.64,6.42.71-2.37H29l.87,2.37Z"/><path class="cls-3" d="M49.19,23.6V21.48h8.26a37.79,37.79,0,0,0,.64,8.33A12.64,12.64,0,0,0,60,34.07a25.38,25.38,0,0,0,5.88,6.17L63.61,42a34.36,34.36,0,0,1-5.76-6.73,15.65,15.65,0,0,1-2-4.71c-.1.45-.22.85-.31,1.18a14.49,14.49,0,0,1-3.2,6.07,18.51,18.51,0,0,1-5.72,4.09L44.67,40a13.34,13.34,0,0,0,5.56-3.15A10.75,10.75,0,0,0,53,32.64a26.79,26.79,0,0,0,1.36-9Z"/><path class="cls-3" d="M74.15,21.65c.19.09.31.18.31.28s-.19.42-.57.56c-.42,1.2-.8,2.29-1.17,3.23V42.07H70.79V30c-.52,1-1.06,1.95-1.67,3l-1.46-1.46a38.71,38.71,0,0,0,2.66-5,54.17,54.17,0,0,0,2-5.72Zm14.45.56V41.88h-2v-1.1H76.83V42h-2V22.21Zm-2,16.73V24.14H76.83v14.8ZM80.79,27.36V24.87l1.74.14c.3,0,.47.1.47.24s-.14.26-.38.44v1.67h3.23v1.75H82.62v2.3h2.5V37.2H78.41V31.41h2.38v-2.3h-3.2V27.36Zm2.59,5.7H80.15v2.47h3.23Z"/><path class="cls-3" d="M103.54,21.2c.4,0,.61.09.61.28s-.19.5-.57.73v1.3a30.28,30.28,0,0,1-.35,4.87,21.82,21.82,0,0,0,3,5.6A27.71,27.71,0,0,0,113,40.14l-2.66,1.65a36.64,36.64,0,0,1-6.16-6.9,25.3,25.3,0,0,1-1.74-3.34c-.1.26-.17.5-.24.69a15.2,15.2,0,0,1-3.93,5.69,25.67,25.67,0,0,1-4.85,3.77L91.53,40A27.2,27.2,0,0,0,96.1,36.8a14.11,14.11,0,0,0,3.65-4.63,21,21,0,0,0,1.62-8.66v-.76a14.89,14.89,0,0,0-.16-1.74Z"/><path class="cls-3" d="M23.83,63.79c.16,0,.26.09.26.23a.77.77,0,0,1-.36.57,31.08,31.08,0,0,1-1.1,4.49l-1.84-.63a11.18,11.18,0,0,0,.69-2,26.8,26.8,0,0,0,.58-3.16Zm2.68-13.48c.21.11.33.21.33.3s-.12.33-.35.47l-2.24,3.06,1.34,1,1.53-2.31,1.51,1a.5.5,0,0,1,.23.4c0,.14-.16.21-.44.26l-3.74,5.15c.84-.07,1.67-.16,2.49-.25l-.42-1.13,1.76-.36a26.8,26.8,0,0,1,.92,2.8V50.42H41.74V68.64a1.69,1.69,0,0,1-1.39,1.71,9,9,0,0,1-2.19.31l-.73-1.84,1.72,0c.49,0,.75-.26.75-.71V61.74H34.75v2.57c0,.18.14.28.47.28h4v1.65h-5c-.94,0-1.39-.36-1.39-1.11V61.74H31.36v8.92H29.43V68.21l-1.58.33a46.46,46.46,0,0,0-1.1-4.87l1.86-.38c.32,1.18.61,2.29.82,3.37V61.88L28,62.19c-.1-.42-.19-.83-.29-1.2-.37.07-.8.14-1.27.19v9.48H24.46V61.44c-.7.09-1.48.21-2.3.3-.17.24-.31.35-.45.35s-.23-.09-.23-.3l-.43-1.88c.47,0,1,0,1.44-.1l2-3.06c-1.27-1-2.42-1.81-3.46-2.54l1.11-1.48a6.88,6.88,0,0,1,.63.42L25,49.51ZM33.08,56a20.77,20.77,0,0,0-1.27-2.68l1.67-.35a16,16,0,0,1,1.39,3h1.38l1.18-3,1.44.28c.25,0,.39.12.39.26a.8.8,0,0,1-.37.56L38,56H39.9V52.19H31.36V56Zm1.5,4V57.6H31.36V60Zm5.32,0V57.6H36.42V60Z"/><path class="cls-3" d="M52.77,50.42V57.6H50.65v3.32h2.49v1.83H50.65v3.82c1-.26,2-.55,2.94-.87v1.74c-1.74.63-4.47,1.43-8.19,2.47-.14.23-.3.37-.44.37s-.24-.11-.26-.35l-.47-2c.32,0,.63-.1.91-.17V60.09l1.72.12c.31,0,.47.1.47.24s-.12.26-.35.47v6.49c.56-.09,1.1-.19,1.65-.33V57.6H45.4V50.42Zm-2,1.84H47.43v3.5h3.31Zm8-2.4c.21,0,.33.16.33.3s-.17.31-.47.55c-.1.25-.22.49-.31.72h5a1.11,1.11,0,0,1,.32-.09l.29.21.84.94a1.16,1.16,0,0,1,.17.43c0,.14-.24.33-.66.54a15.21,15.21,0,0,1-2.85,3.95l-.37.38a31.36,31.36,0,0,0,5.34,2.37l-2,1.68A25.51,25.51,0,0,1,59.47,59c-.23.16-.44.33-.68.47a31,31,0,0,1-4.38,2.14L53,60.09a26.26,26.26,0,0,0,5-2.44,12.46,12.46,0,0,1-1.77-2.47,19.4,19.4,0,0,1-1.32,1.69l-1.83-1.29a15.9,15.9,0,0,0,4-6.26ZM64,62v8.64H62V69.27H56.91v1.39h-2V62Zm-2,5.42V63.86H56.91v3.58ZM59.4,56.54c.38-.35.73-.73,1.06-1.1A21.06,21.06,0,0,0,62,53.27H57.36a2.13,2.13,0,0,1-.22.35A11.36,11.36,0,0,0,59.4,56.54Z"/><path class="cls-3" d="M74.9,50.05c.19.09.29.19.29.28s-.19.38-.54.47l0,0a19.29,19.29,0,0,0,4.07,3.84L77.21,56a2.84,2.84,0,0,1-.47-.42v1.79H74.27v2.59h3.48v1.83H74.27v5.93c1.13-.14,2.23-.3,3.32-.52v1.67c-1.77.36-4.52.85-8.29,1.46-.16.24-.3.38-.44.38s-.26-.12-.26-.33l-.5-2c1.42-.09,2.83-.23,4.24-.42V61.74H68.48V59.91h3.86V57.32H69.87v-1c-.38.36-.78.71-1.2,1.06l-1.39-1.36a24.92,24.92,0,0,0,3.39-3.18,24,24,0,0,0,2.59-3.62ZM71.61,66.52,70,67.44c-.49-1.23-1-2.45-1.64-3.67L70,62.94C70.62,64.17,71.14,65.34,71.61,66.52Zm5.08-11a25.15,25.15,0,0,1-3-3.29,22.82,22.82,0,0,1-1.91,2.33c-.33.33-.63.66-1,1Zm1,8.19c.19.1.3.19.3.28s-.11.33-.35.45L76.2,66.9l-1.39-.66L76.39,63ZM88.15,50.52v9.83H84.74a17.94,17.94,0,0,0,.75,2.9,25.08,25.08,0,0,0,2.38-2.07l1.34,1.36a.44.44,0,0,1,.14.31c0,.14-.19.19-.56.19-.85.58-1.74,1.15-2.64,1.71a1.35,1.35,0,0,0,.19.31,13.8,13.8,0,0,0,3.46,4.12l-1.93,1.48a25.49,25.49,0,0,1-2.4-3.18,15.54,15.54,0,0,1-1.6-3.36,21.36,21.36,0,0,1-.94-3.77H81v7.37a31.94,31.94,0,0,0,3.41-1v1.64c-1.18.47-3,1.13-5.44,1.93-.16.24-.3.38-.45.38s-.25-.12-.25-.33l-.5-2a12.24,12.24,0,0,0,1.3-.23V50.52Zm-1.93,4v-2.3H81v2.3Zm0,4v-2.3H81v2.3Z"/><path class="cls-3" d="M100.55,54.75c.23.07.37.17.37.28s-.07.17-.18.26c-.33.1-1,.76-1.89,2-.4.52-.82,1-1.24,1.51V70.66H95.39V61.08c-.63.61-1.29,1.2-2,1.77l-2-1.11a26.21,26.21,0,0,0,7.34-7.62Zm-1.2-4.42c.23.09.37.19.37.28a.39.39,0,0,1-.18.28,4.19,4.19,0,0,0-1.46,1.25,25.11,25.11,0,0,1-4.33,3.44l-2-1.11a18.73,18.73,0,0,0,5.79-4.78Zm13.43,7v1.93h-4v9a2.2,2.2,0,0,1-.94,1.93c-.52.42-1.84.66-3.93.66L103,68.54h2.21c.78,0,1.2-.21,1.27-.63V59.25H100V57.32ZM111.87,51v2H101.65V51Z"/><path class="cls-2" d="M33.87,106.54c.23.07.36.17.36.28s-.15.27-.44.46c-.7,2.3-1.61,4.82-2.75,7.56H37v1.63H19.91v-1.63h9.38c.53-1.29,1-2.45,1.31-3.51a56.68,56.68,0,0,0,1.56-5.48Zm-4.56-6c.3,0,.47.12.47.25s-.13.25-.38.44v2.45h6.77v1.55H20.87v-1.55h6.77v-3.27ZM27.1,113.36l-1.63.3a46.8,46.8,0,0,0-2.07-6.76l1.63-.36A34.65,34.65,0,0,1,27.1,113.36Z"/><path class="cls-2" d="M41.94,114.14c1.3-.25,2.55-.55,3.77-.9a17.11,17.11,0,0,0-.86-1.52l1.18-1a26.31,26.31,0,0,1,2.6,4.54l-1.56,1c-.22-.59-.47-1.16-.7-1.69-1.48.48-3.59,1.06-6.34,1.77-.14.24-.27.38-.38.38s-.21-.12-.23-.31L39,114.61c.42,0,.86-.11,1.27-.19V101.26h7.49v8.6h-5.8Zm0-11.33v1.94H46v-1.94Zm0,5.49H46v-2.07H41.94Zm13.44-6.66v11.28a1.54,1.54,0,0,1-1.2,1.62,6,6,0,0,1-1.84.3l-.67-1.71,1.41,0c.4,0,.61-.25.61-.7v-9.2h-3v14.33H49V101.64h6.37Z"/><path class="cls-2" d="M65.48,103v-2.68l1.51.14c.26,0,.41.11.41.24s-.09.21-.28.36V103h6.74v10.75H72.23v-1.48H67.12v5.21H65.48v-5.21H60.66v1.48H59V103Zm0,3.93v-2.45H60.66V107Zm0,3.94v-2.53H60.66v2.53ZM67.12,107h5.11v-2.45H67.12Zm0,3.94h5.11v-2.53H67.12Z"/><path class="cls-2" d="M83.67,103.48V105H76.91v-1.5Zm-.46,7.81v6.08H81.65v-.82H79v.89H77.44v-6.15ZM82.93,101v1.41H77.72V101Zm-.08,5.19v1.4h-5v-1.4Zm0,2.6v1.41h-5v-1.41Zm-1.2,6.38v-2.45H79v2.45Zm6.54-13.58v-1.33l1.5.11c.29,0,.44.12.44.25s-.12.21-.31.38v.59h3.86V103H89.82v1h3.35v1.41H89.82v1h4.24v1.48H83.82v-1.48h4.37v-1H84.77v-1.41h3.42v-1h-4v-1.41Zm5,7v7.28a1.5,1.5,0,0,1-1.2,1.56,6.32,6.32,0,0,1-1.84.3L89.44,116l1.47,0a.62.62,0,0,0,.62-.71v-.6H86.4v2.83H84.77v-9h8.4ZM91.53,111v-1H86.4v1Zm0,2.38v-1H86.4v1Z"/></g></g></svg>