<svg xmlns="http://www.w3.org/2000/svg" viewBox="0 0 223.85 343.13"><defs><style>.cls-1{fill:#ddd769;}.cls-2{fill:#ecd89e;}.cls-3{fill:#473629;}.cls-4{fill:#f1e84d;}.cls-5{fill:#e7da3d;}.cls-6{fill:#efa444;}.cls-7{fill:#685b27;}.cls-8{fill:#7c7040;}.cls-9{fill:#fff;}.cls-10{fill:#986743;}.cls-11{fill:#ececa9;}.cls-12{fill:#62938b;}.cls-13{fill:#e7e485;}.cls-14{fill:#eb6060;}.cls-15{fill:#3c776c;}.cls-16{fill:#eaeaea;}.cls-17{fill:#288196;}.cls-18,.cls-22{fill:#a1d8dd;}.cls-19{fill:#ddb146;}.cls-20{fill:#7a6353;}.cls-21{fill:none;stroke:#7a6353;stroke-linecap:round;stroke-linejoin:round;}.cls-22{opacity:0.6;}</style></defs><g id="圖層_2" data-name="圖層 2"><g id="圖層_1-2" data-name="圖層 1"><polygon class="cls-1" points="127.44 95.72 169.58 79.05 182.17 102.43 142.56 122.2 127.44 95.72"/><polygon class="cls-2" points="172.24 83.99 186.26 75.89 205.18 39.95 219.91 44.88 199.32 86.91 182.17 102.43 172.24 83.99"/><path class="cls-2" d="M150.54,34.18s20,5,17.54,27.72c0,0,2.67-4.36,5.47-.68s-1.2,7.57-1.2,7.57-12.23,29.8-39,18.76C133.31,87.55,117.3,66.68,150.54,34.18Z"/><path class="cls-3" d="M142.74,81.31s-15.26-2.24-18.07-6.14c-3.73-5.2-5.73-7.83-6.77-13.07s-6.85-11.58-3-20.25c7.73-17.34,23.29-20.87,38.17-14.24,2.79,1.24,16,12.7,16.34,14,.73,2.46-5.65.4-11.29-.24-4.09-.47.73,20.16-3.56,29.52C149.48,82,142.74,81.31,142.74,81.31Z"/><path class="cls-2" d="M156.51,63.68s-4.56-6.91-7-2.79c-4,6.63,6,9.4,6,9.4Z"/><path class="cls-4" d="M117,57a21.47,21.47,0,0,1-7.71-23.74,87.69,87.69,0,0,1,5-11.58c7.21-10.66,28.62-5.75,36.56,3.44A142.11,142.11,0,0,1,117,57Z"/><path class="cls-5" d="M147.4,22.82S128,5,139.87.74,160,11.29,161,19.5,122.24,57.59,117,57C117,57,152.26,31.84,147.4,22.82Z"/><ellipse class="cls-5" cx="114.73" cy="20.97" rx="3.36" ry="2.1" transform="translate(-0.87 36.45) rotate(-17.99)"/><path class="cls-6" d="M127.74,76.85S115.51,45.67,86.15,36.43c0,0,9.13,35.72,38.56,44.08Z"/><polyline class="cls-2" points="119.53 235.59 69.29 264.27 8.67 256.13 9.9 238.33 62.45 238.47 101.64 190.32"/><path class="cls-7" d="M96.28,197.79,71.74,226l18.68,27.9,32.81-19.66S119.64,218.21,96.28,197.79Z"/><path class="cls-2" d="M150.72,204.11l21,60.75,1.44,66.6-15.65-.34L147,273.23l-31.61-48.39S78.73,211.45,85.73,177"/><path class="cls-8" d="M85.13,179.16c24.28,2.69,44.61,5.64,68.7,9.72,1,21.51,5.53,37.51,13.71,62.48a180.4,180.4,0,0,0-32.15,8.16c-5.5-10-11.54-18.61-17-28.61-.77-1.4-4.47-7-7.9-8.42C93.79,215.58,85.67,208.56,84.21,185A11.94,11.94,0,0,1,85.13,179.16Z"/><polygon class="cls-9" points="149.64 292.27 172.23 288.68 173.15 331.46 157.5 331.12 149.64 292.27"/><path class="cls-10" d="M164.74,331.68c1.37,0,3,0,4.78,0a4.39,4.39,0,0,0,4.27-4.34h0s16.4-3.7,19.19-.51c6.17,7.05-25.54,17.76-37.19,16.17a4.22,4.22,0,0,1-3.55-3.37c-.58-2.86-1.36-7.55-.6-9,.94-1.75,4.53-3.87,4.53-3.87l2.45,2.38A9,9,0,0,0,164.74,331.68Z"/><polygon class="cls-9" points="43.43 238.58 41.54 260.54 11.35 256.63 9.9 238.33 43.43 238.58"/><path class="cls-10" d="M13.81,257.51S9.89,269.16,7,271.11c-6.49,4.3-8.44-26.3-5.85-35.72a3.51,3.51,0,0,1,3.16-2.55c2.42-.16,6.37-.29,7.46.5,1.34,1,2.69,4.15,2.69,4.15s-1.65,2-2.46,6.79a21.74,21.74,0,0,0,0,9.22A9.66,9.66,0,0,0,13.81,257.51Z"/><path class="cls-11" d="M141.22,77.63s19,11.24,18.43,24.06c-.93,19.67-2.69,43.08-3.63,56.59-.61,8.83-2.19,30.6-2.19,30.6l-68.7-9.72s6-21.87,13.1-44.38c6.08-19.29,13-39,17.58-45.87C125.8,74.12,141.22,77.63,141.22,77.63Z"/><path class="cls-6" d="M126.3,76s11.93,7.35,24.75,9l4.64,4.35S142.15,94.32,124,80.06Z"/><path class="cls-6" d="M154.15,87.93s4.81.91,4.32,4.45c0,0-3.84-.56-5.76-2.7Z"/><path class="cls-2" d="M205.29,40.33s-4-4.63-3.65-10.42,6.23-1.84,6.23-1.84,4.25-1.85,6-.45c0,0,4.63-.69,5.79,1.41,0,0,5.21,2.4,4,6.42a98.22,98.22,0,0,1-4.48,10.76Z"/><path class="cls-12" d="M133.7,86.24S78.49,44.49,55.05,99.64c-8.55,20.13-3.61,39.89-1.89,52.26a33.37,33.37,0,0,0,29.13,28.44l23,2.77Z"/><polyline class="cls-13" points="129.98 93.13 96.19 102.91 113.71 134.43 148.12 110.8"/><path class="cls-6" d="M131.51,84.2s-18.38,4.63-28.21,2.52-14.68-4.64-14.68-4.64,8.32-8.14,40.78-1.9Z"/><path class="cls-12" d="M133.7,86.24s33.14,28.8,10.35,70.45-48.87,23-48.87,23S166,148.27,125.67,94.38Z"/><path class="cls-2" d="M98.51,107.09l-14.84,9.52c-3,1-8.13,5.43-5.54,11.5l29.14,48,12.77-8-18.4-29.5L112,131.27Z"/><path class="cls-2" d="M120,168.12s6.12-.68,10.64,3-2.05,6.17-2.05,6.17-.91,4.54-3.07,5.18c0,0-2.09,4.19-4.47,3.94,0,0-5,2.91-7.56-.39a96.81,96.81,0,0,1-6.26-9.83Z"/><polygon class="cls-10" points="67.78 44.69 78.11 88.6 83.13 87.15 71.04 43.82 67.78 44.69"/><polygon class="cls-14" points="67.78 44.69 41.13 64.08 73.75 69.25 67.78 44.69"/><path class="cls-15" d="M73.94,85s6.4,3.16,10.81-2.28l1.54,4.9s-.76,4.92-10.42,3Z"/><path class="cls-16" d="M57.85,125.66S78.52,150,98.25,153.57L67.64,183.2a14.44,14.44,0,0,1-18.55,1.29l-7.31-5.32a14.46,14.46,0,0,1-4-18.92Z"/><ellipse class="cls-17" cx="78.13" cy="139.45" rx="4.63" ry="24.59" transform="translate(-80.89 123.28) rotate(-54.93)"/><path class="cls-18" d="M61,126.3s15.7-11.21,29.3-2.6,11.34,14.92,11.34,14.92l5,8s3.78-24.49-24.7-30.7C62.6,111.7,58,125.32,58,125.32Z"/><path class="cls-19" d="M60.31,89.09A30.52,30.52,0,0,0,72,97.86l-3.8,7.64s-8.72-3.31-11.67-8.93Z"/><polygon class="cls-9" points="59.77 96.61 54.61 84.98 62.44 79.3 67.16 101.31 59.77 96.61"/><ellipse class="cls-20" cx="162.9" cy="55.68" rx="2.07" ry="1.22" transform="translate(83.04 208.18) rotate(-81.23)"/><line class="cls-21" x1="160.95" y1="48.95" x2="168.4" y2="50.57"/><path class="cls-22" d="M56,156.76s-19.4,4.69-18.13,11.35,15.41,17.18,20.39,16.95,26.46-23.51,26.46-23.51L82.06,160A34.1,34.1,0,0,0,60,156.13Z"/><path class="cls-18" d="M57.14,181.08s12.74-17.7,15.3-14.54S57.14,181.08,57.14,181.08Z"/></g></g></svg>