<svg xmlns="http://www.w3.org/2000/svg" viewBox="0 0 276.36 291.8"><defs><style>.cls-1{fill:#ff774d;}.cls-2{fill:#ffcd5c;}.cls-3{opacity:0.42;}.cls-4,.cls-9{fill:#3d3d3d;}.cls-5{opacity:0.2;}.cls-6{fill:#68462f;}.cls-7{opacity:0.4;}.cls-8{fill:#ccaa6d;}.cls-9{opacity:0.6;}.cls-10{fill:#57595b;}.cls-11{fill:#fff;}.cls-12{fill:#191919;}</style></defs><g id="圖層_2" data-name="圖層 2"><g id="圖層_1-2" data-name="圖層 1"><path class="cls-1" d="M12.73,226.2c-3.79-4.3-7.57-8.77-10-14.1A32.07,32.07,0,0,1,.86,193.7a39.77,39.77,0,0,1,7.91-17,16.4,16.4,0,0,0,4.13,12c-1.72-8.25,1-17.19,6.53-23.72s13.07-10.84,21-13.76c-4,4.13-4.47,10.66-2.92,16.16s4.81,10.32,7.73,15.31,5.68,10.14,5.85,15.81a54.71,54.71,0,0,0,4.3-9.11,18.1,18.1,0,0,0,.69-10,25.58,25.58,0,0,1,5.67,12.38,51.83,51.83,0,0,1,.17,14.61c-.69,5.33-2.06,10.84-5,15.31A28.66,28.66,0,0,1,42,232.9C31.3,234.79,20.81,233.25,12.73,226.2Z"/><path class="cls-2" d="M25.79,232.56c14.1,5.5,28-11.18,20.29-24.07,0-.18-.17-.18-.17-.35.69,7.05-1,12.21-4.3,15.13,1.72-4.12.52-8.94-1.55-13.06-2.06-4-5-7.57-7.22-11.35-2.23-4-4-8.43-2.92-12.9a22.65,22.65,0,0,0-8.25,12.73,23,23,0,0,0,1.72,15.13,11.34,11.34,0,0,1-4.65-8.26,17.68,17.68,0,0,0-4.29,11.87C14.45,224.13,19.78,230.15,25.79,232.56Z"/><g class="cls-3"><path class="cls-4" d="M43.36,6.43a22.11,22.11,0,0,1,27.2.93C77,.53,88.69-.4,96.09,5.34a19.53,19.53,0,0,1,32.63,10.41c7.53-2.41,16.32,4.85,15.38,12.69-.28,2.32-1.24,4.66-.64,6.92a15.14,15.14,0,0,0,2.17,4c4.2,6.79,2.75,16.07-2,22.45S131.24,72,123.53,74.09c-.15,9.09-7.58,16.77-16,20.1s-17.83,3.21-26.93,3c-5.36-.1-11-.25-15.7-2.76s-8.31-8.13-6.64-13.23c-7.65,4.67-17.08,6.86-25.78,4.69S16.06,76.81,14.26,68,17.45,49.2,26,46.4c-7.47-3.89-13.59-10.81-15.34-19S12.07,9.73,19.18,5.21,37,2.26,41.63,9.26"/></g><g class="cls-5"><path class="cls-4" d="M251.08,175.27a16.85,16.85,0,0,1-20.72-.71,15,15,0,0,1-19.44,1.54,14.87,14.87,0,0,1-24.84-7.93c-5.73,1.83-12.43-3.69-11.71-9.66.21-1.77.94-3.55.49-5.27a11.8,11.8,0,0,0-1.66-3c-3.19-5.17-2.09-12.24,1.56-17.1s9.4-7.78,15.27-9.36c.12-6.93,5.77-12.77,12.22-15.31s13.58-2.44,20.5-2.31c4.09.07,8.35.19,12,2.1s6.33,6.19,5,10.08c5.83-3.56,13-5.23,19.64-3.57s12.46,6.94,13.83,13.63-2.43,14.33-8.91,16.46c5.68,3,10.34,8.23,11.68,14.5s-1.1,13.43-6.51,16.87-13.54,2.24-17.1-3.09"/></g><path class="cls-6" d="M89.91,28.51s-15,71.09-12,100.89S83.72,227,83.72,227L44,262.1,67,272.93,101.88,229l24.94,33.07,3,29.7h13V262.1l-11-31.07L181.69,255l19.2-7.8L150.76,224l-7-94.64,11-67Z"/><polygon class="cls-6" points="122.45 114.98 206.63 61.94 211.8 67.63 128.15 135.25 122.45 114.98"/><polygon class="cls-6" points="183.91 79.22 183.13 31.5 174.7 31.5 174.7 85.17 183.91 79.22"/><g class="cls-7"><path class="cls-8" d="M139.1,65.27a165.46,165.46,0,0,0-10.35,34.78c-2.46,13.56-2.86,27.22-2.67,41a174.38,174.38,0,0,0,1.44,20.17,39.77,39.77,0,0,1,0-5,37.91,37.91,0,0,0,0-5c-.71-5.43-1.17-10.88-1.34-16.35,0-.59,0-1.18,0-1.77,0-2.23,0,5.63,0,3,0-1.35.07-2.7.13-4q.2-4.11.58-8.21A166.13,166.13,0,0,1,133,92.37a164.2,164.2,0,0,1,6.14-17.1,6.13,6.13,0,0,0,0-1.47c0-1.18,0-2.35,0-3.53s0-2.36,0-3.54a5.15,5.15,0,0,1,0-1.46Z"/></g><g class="cls-7"><path class="cls-8" d="M111.56,89.36a86.94,86.94,0,0,0-.12,12,35,35,0,0,0,.82,6.2c.23,1.14.48,2.28.69,3.43.1.57.19,1.14.26,1.72,0,.28.07.57.1.85q.36,5,.07-7.25a31.52,31.52,0,0,1-1.64,6.75,25.81,25.81,0,0,0-1,6.52c-.16,4.11-.2,8.3,0,12.41a65,65,0,0,0,2.74,13.95,7.72,7.72,0,0,1,0-1.46c0-1.18,0-2.36,0-3.54s0-2.35,0-3.53a6.54,6.54,0,0,0,0-1.47,69.93,69.93,0,0,1-2.62-12.38c-.06-.56-.08-1.12-.12-1.67q-.16,11.12,0,7.1c0-.32,0-.64.06-1a23,23,0,0,1,.49-3.19c.43-1.92,1.19-3.75,1.67-5.66a28.92,28.92,0,0,0,.51-7.14,77.77,77.77,0,0,0-.18-8.9c-.21-1.87-.63-3.72-1-5.57-.2-1-.4-2-.55-3-.06-.43-.12-.86-.16-1.29s-.06-.74-.08-1.11q-.37,11.7.09,7.24a46.31,46.31,0,0,0,0-5,46.36,46.36,0,0,1,0-5Z"/></g><g class="cls-7"><path class="cls-8" d="M92.71,97.21c1,14.45,1.9,29,5.4,43.13,1.75,7,4.48,13.76,6.55,20.71a54.93,54.93,0,0,1,2.13,10.22c0,.56.08,1.12.12,1.68.25,3.55.19-9.27,0-5.71-.05.92-.1,1.84-.19,2.76-.18,2-.45,3.92-.73,5.87-1.25,8.6-2.57,17.18-3.86,25.77a34.77,34.77,0,0,0-.05,5c0,1.18,0,2.36,0,3.54a10.2,10.2,0,0,1,0,1.46q1.83-12.15,3.64-24.31A95.46,95.46,0,0,0,107,175.39c.11-5.41.34-11-.48-16.37-1.14-7.56-4.19-14.65-6.48-21.9a136.13,136.13,0,0,1-4.92-23c-1.19-8.83-1.78-17.72-2.36-26.6,0-.64,0,.8,0,.5,0,1,0,2,0,3,0,2-.1,4.11,0,6.15Z"/></g><polygon class="cls-9" points="67.42 21.15 68.34 20.85 67.53 22.48 68.73 22.77 69.47 23.55 70.35 22.22 71.36 22.52 71.63 23.63 71.78 24.54 73.33 25.13 70.71 26 72.98 27.39 73.16 27.75 72.99 28.24 70.52 29.18 71.55 30 71.86 29.86 73.5 30.41 70.92 31.39 70.58 31.82 70.51 32.31 71.46 34.15 70.98 35.42 71.05 35.63 70 34.95 69.38 35.26 67.71 35.21 67.68 36.42 68.77 38.02 67.85 38.42 66.2 37.05 66.49 40.19 65.37 39.09 64.75 38.05 64.1 37.03 63.06 37.79 62.45 38.96 61.7 39.77 60.57 38.99 59.77 40.48 58.9 39.25 58.88 37.34 57.98 37.72 56.1 38.35 57.46 36.12 55.27 36.6 55.83 34.43 54.85 34.73 55.01 33.36 53.51 34.06 51.73 33.99 51.83 32.73 52.68 31.69 54.49 31.39 53.94 30.65 54.76 29.88 51.78 29.14 51.37 28.86 54.01 27.2 51.48 27.08 51.16 25.98 53.72 25.37 53.55 24.7 53.71 24.02 53.27 22.2 54.21 22.22 55.4 22.61 55.76 21.85 55.46 20.82 54.97 19.64 57.1 20.08 57.12 18.7 58.2 18.83 59.11 19.63 59.91 18.69 60.48 19.53 60.45 20.16 61.84 18.32 62.4 18.34 63.08 18.53 63.53 18.57 64.53 18.5 65.45 18.92 66.75 17.89 67.99 18.19 66.9 20.73 67.42 21.15"/><polygon class="cls-10" points="233.85 137.39 235.74 135.93 234.11 139.54 236.19 138.73 236.81 140.06 239.34 136.7 239.22 140.52 240.85 137.41 241.61 139.88 242.43 141.31 243.97 136.73 244.71 139.55 245.53 140.53 247.46 139.04 247.25 141.69 248.07 142.28 249.34 142.46 250.06 143.29 251.51 143.68 251.71 144.91 253.28 145.59 253.18 146.93 253.98 148.09 253.32 149.39 253.54 150.2 251.4 151.44 253.21 152.26 252.84 153.5 255.64 153.35 251.63 156.93 252.26 158.25 254.71 157.79 253.56 158.98 256.83 157.35 255.88 159.45 259.53 158.71 256.52 161.34 259.51 161.57 259.98 162.79 259.27 164.12 260.1 165.4 258.64 166.45 258.82 167.72 258 168.69 258.17 170.13 255.38 169.65 255.63 171.19 254.86 170.63 253.47 171.09 254.13 172.94 255.72 174.83 255.18 175.56 255.7 176.56 255.76 177.37 255.14 178.42 254.86 179.5 252.67 180.42 251.17 181.25 250.74 182.11 249.87 182.74 250.63 184.18 249.02 184.24 250.6 186.88 249.3 187.19 249.94 190.09 248.41 190.22 246.55 189.14 244.9 187.39 244.58 191.18 243.29 191.09 241.77 189.53 241.34 192.38 240.52 192.61 238.69 191.02 238.93 193.31 236.93 192.34 236.24 193.27 236.11 195.01 235.24 195.69 232.47 193.63 231.11 193.21 231.54 196.71 229.48 193.89 229.18 197.97 227.8 196.68 226.78 194.83 225.6 195.73 224.79 194.71 224.3 193.38 222.29 195 222 193.32 220.05 194.35 220.37 191.65 218.69 192.24 216.23 194.1 216.62 191.41 215.04 192.71 214.03 193.18 213.76 188.8 212.55 188.39 211.46 187.47 210.05 189.11 208.19 190.69 208.39 188 205.75 189.82 206.45 187.22 203.49 188.36 204.9 185.79 205.3 184.38 202.21 184.58 204 182.78 204.85 181.62 200.75 180.94 202.72 179.25 200.47 178.47 200.28 177.6 204.84 174.6 203.92 173.36 202.76 172.35 200.82 172.6 202.13 170.31 198.01 172.25 198.25 170.79 196.15 171.15 198.59 168.03 195.13 168.56 196.39 166.74 197.08 165.44 192.99 164.78 193.03 163.31 195.38 162.16 195.45 160.94 196.45 160.02 198.82 159.96 197.48 157.96 196.03 155.62 199.72 156.74 201.14 156.33 197.89 152.76 202.59 154.41 203.53 153.43 201.87 151.59 202.27 150.56 203.66 149.67 201.04 148.06 200.29 146.59 203.56 146.51 204.93 146.14 202.83 143.59 203.34 142.42 203.75 141.02 205.56 141.24 208.43 143.89 206.97 138.6 209.07 140.79 210.15 140.82 211.27 142.04 212.27 137.76 212.8 142.19 214.2 142.38 215.26 140.54 216.35 139.99 216.85 138.23 217.57 137.46 219.66 138.58 221.32 138.54 220.32 135.82 221.39 135.26 223.14 135.9 222.97 133.22 224.38 133.44 225.42 132.71 226.45 130.88 227.85 132.25 228.7 135.94 229.69 135.37 231.91 131.72 232.26 134.22 231.94 136.91 235.76 133.38 233.85 137.39"/><ellipse class="cls-11" cx="216.81" cy="160.73" rx="4.16" ry="3.87"/><ellipse class="cls-11" cx="232.35" cy="160.73" rx="4.16" ry="3.87"/><ellipse class="cls-12" cx="217.36" cy="160.73" rx="2.44" ry="2.27"/><ellipse class="cls-12" cx="233.42" cy="160.73" rx="2.44" ry="2.27"/><path class="cls-10" d="M40.23,73.13c0,.1-8.26.24-8.26.34s3.07.41,3.09.59-3.62,1.2-3.59,1.38,1.73.32,1.79.49,1.57.06,1.64.23,1.47-.18,1.55,0-.51.79-.42.94,4.81-3.15,4.92-3-4.49,4.13-4.37,4.26,2.41-1.92,2.59-1.74.77,0,.88.15-.36.89-.27,1,1.64-.33,1.72-.18.38.51.45.67-4.57,2.08-4.52,2.25,6.09-1.14,6.13-1-2.11,1-2.09,1.16-.37.54-.37.71-5.83.15-5.84.33,7.62,1.09,7.6,1.26-5.8-.73-5.85-.56,3.11,1.19,3.05,1.35S44,86,43.89,86.17s-6.26-2.56-6.34-2.41,2.24,1.8,2.14,1.95-2.1-1.14-2.22-1-.9-.54-1-.42,1.5,1.82,1.33,2-1.85-1.11-2-1,4.17,3.49,4.07,3.63-1.75-1-1.83-.81,1.21.77,1.14.93.58.28.53.45-7.48-1.88-7.52-1.72-.76.59-.78.76,9.8,1.45,9.79,1.62-1.72-.09-1.72.08l-3.64.06c0,.18,3.19.58,3.17.76s-6.82-.48-6.84-.3S37,92,37,92.21s-.17.43-.23.6-6.2-2.38-6.28-2.22,1.88.94,1.8,1.09,6.77,4.89,6.67,5-8.23-6-8.35-5.85-.1-.27-.23-.14.45.33.32.45.54.65.4.75,3.58,6.53,3.43,6.62-2.93-5.08-3.09-5,.45,1.78.28,1.84.49,3.42.31,3.46-1.69-7.94-1.87-7.91.42,6.24.24,6.25-.05-.29-.08-.29-.8-3.45-1-3.42.18,3.44,0,3.48S27.12,91.42,27,91.48s3,8.83,2.85,8.91-3.51-6.2-3.66-6.11,3.77,6.54,3.62,6.64S28.12,98.92,28,99s-1.5-1.4-1.69-1.24,3.16,4.08,3,4.23-4.58-5-4.76-4.84-.73-.49-.92-.33-.45-.45-.59-.35-.7-1.1-.85-1,4,8.39,3.84,8.47S22,95.33,21.88,95.39s1.7,6.08,1.53,6.13-.65-1-.82-.94-.61-2.69-.78-2.68-.17,3.59-.34,3.59-.46,0-.63,0,.32-4.21.15-4.25.42-1.78.25-1.83-2.18,5.94-2.34,5.88,1.48-4.14,1.32-4.21.2-.51.05-.6-.21.21-.35.11-1.74,2-1.94,1.81-1.83,2.08-2,1.94-.24-.09-.44-.23,2.88-5.06,2.73-5.15-1.79,2.16-1.95,2.09-.43,0-.6-.09-.19-.79-.36-.83-1.28,4.46-1.45,4.43-.25-.16-.51-.21.22-2.71,0-2.76.1-2.07-.16-2.11-.15-.69-.42-.74-.2-.4-.46-.45.21-2.63-.06-2.68-2.24,8.57-2.41,8.52-1.1,1-1.26.94,0-1.74-.2-1.82-1.52,1.31-1.67,1.22,4.92-8.24,4.78-8.34-6.23,7.28-6.36,7.16S11.4,92.08,11.28,92s-.34.33-.45.19.53-.35.43-.5-.85.54-.94.39-7.16,3.12-7.23,3-.33-.65-.39-.81.69-.92.65-1.09.29-.35.23-.62-1.39,0-1.45-.22,7-2,7-2.25-4.65.84-4.71.57,5-1.51,5-1.77-2.56.34-2.63.07-3.44.74-3.49.59-1.14.38-1.2.24-.72.37-.79.23,6.38-3.88,6.29-4,1.26-1.11,1.11-1.34S.15,89.53,0,89.3s3.49-2.5,3.34-2.74,4.12-2.89,4-3.13.15-.08.07-.24-1.06.43-1.13.27,1.59-.55,1.54-.72-4.21.87-4.24.69,5-.81,5-1S0,82.62,0,82.44s.39-.61.41-.79,6.81.61,6.84.44S3.15,81,3.2,80.79s1.92.33,2,.17,1.91.72,2,.56-3-1.83-2.91-2,4.12,2.66,4.23,2.52-1.15-.87-1-1-3.56-3.49-3.4-3.67S6,78.8,6.16,78.63,9,80.21,9.1,80.08,7,77.94,7.12,77.8s.15-.45.22-.59,2.58.55,2.64.39S7.55,76.15,7.6,76s1-.22,1.07-.38-5.95-1.28-5.93-1.44,7.84.75,7.87.5-6.56-1.07-6.53-1.32,4.75.36,4.78.12-.82-.35-.79-.59S8,72.61,8,72.37s3.36.18,3.39-.07-8.55-1.82-8.52-2,8.22,1.81,8.27,1.64S5.85,69.76,5.91,69.6s5,2.08,5.1,1.92-4.66-3-4.57-3.18,1.32.39,1.43.25S5.08,65.44,5.2,65.31s3.65,3,3.78,2.84-2.77-4.32-2.63-4.43,4.86,6.43,5,6.33S9.05,65.2,9.21,65.12s-.56-3-.39-3.05,2,3.84,2.12,3.79S12.19,70,12.36,70s-.07-1.79.19-1.84.77,2.58,1,2.53-.56-4.3-.3-4.35,0-1.59.23-1.64,0-1.49.25-1.54,1.54,5.27,1.69,5.22-2-6.7-1.8-6.76,2.86,6.21,3,6.14.29-.49.43-.57-1.08-2.38-.94-2.47-.77-1.68-.51-1.87,3.94,5.06,4.21,4.87-3.09-5.4-2.94-5.48-.51-2.44-.35-2.51,1.87,2.93,2,2.88-.55-4-.38-4,.89.33,1.06.3,1.06,3.82,1.23,3.81.47-2.78.64-2.78.14,5.15.31,5.17-.33,2.82-.16,2.85.37-1.42.54-1.38,2.79-7,3-6.9-2.22,6.2-2.06,6.28,3.81-5.92,4-5.83-4.63,7.58-4.49,7.69,2.35-2.64,2.48-2.53,1.95-1.4,2.07-1.27-3.1,3.18-3,3.32,3-2.52,3.12-2.4-3.19,4.65-3.05,4.76,1-.26,1.14-.17,2.76-4.13,2.91-4,.92-1.82,1.08-1.75.13-.35.29-.3S27.85,70.5,28,70.53s1.48-8.06,1.65-8-.16,3.86,0,3.87c.34,0,.4-4.15.75-4.15.18,0,.08,7.11.25,7.13s-.21,2,0,2.07.09-.32.26-.27,1.37-3.38,1.53-3.31,1.5-2.17,1.65-2.09-1.36,3.3-1.21,3.39,1.14-1.06,1.28-.95,1.51-1.06,1.64-.94-2.13,2.71-2,2.84,1.38-.72,1.48-.58S32.34,71.8,32.44,72s2.42-1.17,2.5-1-3.69,1.78-3.62,2S35,71.73,35,71.9s-4.41,1.15-4.37,1.32,7.25-.92,7.27-.74S40.23,73,40.23,73.13Z"/></g></g></svg>