<?xml version="1.0" encoding="utf-8"?>
<!-- Generator: Adobe Illustrator 25.2.1, SVG Export Plug-In . SVG Version: 6.00 Build 0)  -->
<svg version="1.1" id="圖層_1" xmlns="http://www.w3.org/2000/svg" xmlns:xlink="http://www.w3.org/1999/xlink" x="0px" y="0px"
	 viewBox="0 0 1464.1 880" style="enable-background:new 0 0 1464.1 880;" xml:space="preserve">
<style type="text/css">
	.st0{clip-path:url(#SVGID_2_);}
	.st1{fill:#99A3AC;}
	.st2{clip-path:url(#SVGID_4_);}
	.st3{fill:#BAA092;}
	.st4{fill:#BAA193;}
	.st5{fill:#BAA194;}
	.st6{fill:#BAA295;}
	.st7{fill:#BAA296;}
	.st8{fill:#BAA397;}
	.st9{fill:#BAA398;}
	.st10{fill:#BAA499;}
	.st11{fill:#BAA59A;}
	.st12{fill:#BAA59B;}
	.st13{fill:#BAA69C;}
	.st14{fill:#BAA69D;}
	.st15{fill:#BAA79E;}
	.st16{fill:#BAA89F;}
	.st17{fill:#BAA8A0;}
	.st18{fill:#BAA9A1;}
	.st19{fill:#BAA9A2;}
	.st20{fill:#BAAAA3;}
	.st21{fill:#BAAAA4;}
	.st22{fill:#BAABA5;}
	.st23{fill:#BAACA6;}
	.st24{fill:#BAACA7;}
	.st25{fill:#BAADA8;}
	.st26{fill:#BAADA9;}
	.st27{fill:#BAAEAA;}
	.st28{fill:#BAAEAB;}
	.st29{fill:#BAAFAC;}
	.st30{fill:#BAB0AD;}
	.st31{fill:#BAB0AE;}
	.st32{fill:#BAB1AF;}
	.st33{fill:#BAB1B0;}
	.st34{fill:#BAB2B1;}
	.st35{fill:#BBB3B3;}
	.st36{fill:#BBB3B4;}
	.st37{fill:#BBB4B5;}
	.st38{fill:#BBB4B6;}
	.st39{fill:#BBB5B7;}
	.st40{fill:#BBB5B8;}
	.st41{fill:#BBB6B9;}
	.st42{fill:#BBB7BA;}
	.st43{fill:#BBB7BB;}
	.st44{fill:#BBB8BC;}
	.st45{fill:#BBB8BD;}
	.st46{fill:#BBB9BE;}
	.st47{fill:#BBB9BF;}
	.st48{fill:#BBBAC0;}
	.st49{fill:#BBBBC1;}
	.st50{fill:#BBBBC2;}
	.st51{fill:#BBBCC3;}
	.st52{fill:#BBBCC4;}
	.st53{fill:#BBBDC5;}
	.st54{fill:#BBBDC6;}
	.st55{fill:#BBBEC7;}
	.st56{fill:#BBBFC8;}
	.st57{fill:#BBBFC9;}
	.st58{fill:#BBC0CA;}
	.st59{fill:#BBC0CB;}
	.st60{fill:#BBC1CC;}
	.st61{fill:#BBC2CD;}
	.st62{fill:#BBC2CE;}
	.st63{fill:#BBC3CF;}
	.st64{fill:#BBC3D0;}
	.st65{fill:#BBC4D1;}
	.st66{fill:#BBC4D2;}
	.st67{fill:#BBC5D3;}
	.st68{fill:#E3C2B0;}
	.st69{fill:#6C5C61;}
	.st70{fill:#55464D;}
	.st71{fill:#504550;}
	.st72{fill:#50572C;}
	.st73{fill:#72799B;}
	.st74{fill:#26312F;}
	.st75{opacity:0.7;}
	.st76{fill:#9C8D8A;}
	.st77{fill:#A89895;}
	.st78{fill:#75716F;}
	.st79{fill:#8A8080;}
	.st80{fill:#5C6533;}
	.st81{fill:#2F3C1E;}
	.st82{fill:#414A26;}
	.st83{fill:#826B69;}
	.st84{fill:#6F5258;}
	.st85{fill:#414F1E;}
	.st86{fill:#2E3021;}
	.st87{fill:#68462F;}
	.st88{opacity:0.4;}
	.st89{fill:#CCAA6D;}
	.st90{fill:#7F5940;}
	.st91{opacity:0.2;}
</style>
<g id="圖層_2_1_">
	<g id="圖層_1-2">
		<g>
			<defs>
				<rect id="SVGID_1_" y="0.5" width="1464.1" height="879.4"/>
			</defs>
			<clipPath id="SVGID_2_">
				<use xlink:href="#SVGID_1_"  style="overflow:visible;"/>
			</clipPath>
			<g class="st0">
				<g id="back">
					<rect y="-144.9" class="st1" width="1464.1" height="1024.8"/>
				</g>
				<g id="sky">
					<g>
						<defs>
							<rect id="SVGID_3_" y="-144.9" width="1464.1" height="547.9"/>
						</defs>
						<clipPath id="SVGID_4_">
							<use xlink:href="#SVGID_3_"  style="overflow:visible;"/>
						</clipPath>
						<g class="st2">
							<path class="st3" d="M0,403L0,403z"/>
							<rect y="394.6" class="st3" width="1464.1" height="8.4"/>
							<rect y="386.2" class="st4" width="1464.1" height="8.4"/>
							<rect y="377.7" class="st5" width="1464.1" height="8.4"/>
							<rect y="369.3" class="st6" width="1464.1" height="8.4"/>
							<rect y="360.9" class="st7" width="1464.1" height="8.4"/>
							<rect y="352.5" class="st8" width="1464.1" height="8.4"/>
							<rect y="344" class="st9" width="1464.1" height="8.4"/>
							<rect y="335.6" class="st10" width="1464.1" height="8.4"/>
							<rect y="327.2" class="st11" width="1464.1" height="8.4"/>
							<rect y="318.7" class="st12" width="1464.1" height="8.4"/>
							<rect y="310.3" class="st13" width="1464.1" height="8.4"/>
							<rect y="301.9" class="st14" width="1464.1" height="8.4"/>
							<rect y="293.4" class="st15" width="1464.1" height="8.4"/>
							<rect y="285" class="st16" width="1464.1" height="8.4"/>
							<rect y="276.6" class="st17" width="1464.1" height="8.4"/>
							<rect y="268.2" class="st18" width="1464.1" height="8.4"/>
							<rect y="259.7" class="st19" width="1464.1" height="8.4"/>
							<rect y="251.3" class="st20" width="1464.1" height="8.4"/>
							<rect y="242.9" class="st21" width="1464.1" height="8.4"/>
							<rect y="234.4" class="st22" width="1464.1" height="8.4"/>
							<rect y="226" class="st23" width="1464.1" height="8.4"/>
							<rect y="217.6" class="st24" width="1464.1" height="8.4"/>
							<rect y="209.2" class="st25" width="1464.1" height="8.4"/>
							<rect y="200.7" class="st26" width="1464.1" height="8.4"/>
							<rect y="192.3" class="st27" width="1464.1" height="8.4"/>
							<rect y="183.9" class="st28" width="1464.1" height="8.4"/>
							<rect y="175.4" class="st29" width="1464.1" height="8.4"/>
							<rect y="167" class="st30" width="1464.1" height="8.4"/>
							<rect y="158.6" class="st31" width="1464.1" height="8.4"/>
							<rect y="150.1" class="st32" width="1464.1" height="8.4"/>
							<rect y="141.7" class="st33" width="1464.1" height="8.4"/>
							<rect y="133.3" class="st34" width="1464.1" height="8.4"/>
							<rect y="124.9" class="st35" width="1464.1" height="8.4"/>
							<rect y="116.4" class="st36" width="1464.1" height="8.4"/>
							<rect y="108" class="st37" width="1464.1" height="8.4"/>
							<rect y="99.6" class="st38" width="1464.1" height="8.4"/>
							<rect y="91.1" class="st39" width="1464.1" height="8.4"/>
							<rect y="82.7" class="st40" width="1464.1" height="8.4"/>
							<rect y="74.3" class="st41" width="1464.1" height="8.4"/>
							<rect y="65.9" class="st42" width="1464.1" height="8.4"/>
							<rect y="57.4" class="st43" width="1464.1" height="8.4"/>
							<rect y="49" class="st44" width="1464.1" height="8.4"/>
							<rect y="40.6" class="st45" width="1464.1" height="8.4"/>
							<rect y="32.1" class="st46" width="1464.1" height="8.4"/>
							<rect y="23.7" class="st47" width="1464.1" height="8.4"/>
							<rect y="15.3" class="st48" width="1464.1" height="8.4"/>
							<rect y="6.8" class="st49" width="1464.1" height="8.4"/>
							<rect y="-1.6" class="st50" width="1464.1" height="8.4"/>
							<rect y="-10" class="st51" width="1464.1" height="8.4"/>
							<rect y="-18.4" class="st52" width="1464.1" height="8.4"/>
							<rect y="-26.9" class="st53" width="1464.1" height="8.4"/>
							<rect y="-35.3" class="st54" width="1464.1" height="8.4"/>
							<rect y="-43.7" class="st55" width="1464.1" height="8.4"/>
							<rect y="-52.2" class="st56" width="1464.1" height="8.4"/>
							<rect y="-60.6" class="st57" width="1464.1" height="8.4"/>
							<rect y="-69" class="st58" width="1464.1" height="8.4"/>
							<rect y="-77.4" class="st59" width="1464.1" height="8.4"/>
							<rect y="-85.9" class="st60" width="1464.1" height="8.4"/>
							<rect y="-94.3" class="st61" width="1464.1" height="8.4"/>
							<rect y="-102.7" class="st62" width="1464.1" height="8.4"/>
							<rect y="-111.2" class="st63" width="1464.1" height="8.4"/>
							<rect y="-119.6" class="st64" width="1464.1" height="8.4"/>
							<rect y="-128" class="st65" width="1464.1" height="8.4"/>
							<rect y="-136.5" class="st66" width="1464.1" height="8.4"/>
							<rect y="-144.9" class="st67" width="1464.1" height="8.4"/>
							<path class="st67" d="M1464.1-144.9L1464.1-144.9z"/>
						</g>
					</g>
				</g>
				<g id="sun">
					
						<ellipse transform="matrix(0.9871 -0.1602 0.1602 0.9871 -23.724 186.3786)" class="st68" cx="1143.8" cy="240.3" rx="25.2" ry="25.2"/>
				</g>
				<g id="back_mounts">
					<path class="st69" d="M910.8,368.8c-6.1-0.2-17.2,4.4-23.1,5.4c-2.9,0.5-9.2,0.8-12,0s-6.5-4.7-9.4-5.4
						c-3.2-0.6-5.1,2.8-6.9,3.7c-1.2,0.6-5.7,0.9-5.7,0.9s-6,0.3-7.8-0.2c-6.1-1.8-10.2-9.8-15.2-11.8c-4.6-1.8-16.2-1.7-21.3-0.7
						c-5.1,1-10.1,5.4-15.2,4.7c-1.7-0.2-6-1.9-7.7-2.3c-2.2-0.6-6.5,2.2-8.9,2.3c-1.7,0.1-4-1-5.7-0.7s-3.8,2.4-5.4,2.5
						c-1.8,0.2-5.4-1.5-7.2-1.2c-1,0.2-2,1.6-3,1.9c-3.1,1.2-10.6,1.4-14,0.9c-3.3-0.5-9.1-2.9-12.4-3.4c-0.7-0.1-2.2,0.1-3,0
						c-4.5-0.5-12.3-4.2-16.8-4.7c-3.2-0.4-9.5,1.1-12.7,1.1c-3.7,0-10.5-2.4-14.1-2.5c-3.6-0.1-7.9-0.8-11.2,0.2
						c-2.5,0.8-6,4.5-8.8,4.7c-5.2,0.3-16.3-4.1-21.9-4.9c-2.4-0.4-7.4,0.6-9.7,0c-2.7-0.7-5.5-4.5-8-5.3c-3-1-10.1-0.6-13.3,0
						c-4.2,0.8-11.6,5.5-15.8,4.7c-2.1-0.4-4.9-1.7-6.6-1.7c-2.4-0.1-6.8,1.8-9.1,2.1c-3.9,0.4-9.3,0.5-12.4,1
						c-3.3,0.4-6.7,0.7-10,0.8c-4.1,0-12.4-1.7-16-0.5c-17.8,6-34.6,47.4-34.6,47.4h480.5c0,0-34-25.7-48.3-31.8
						C932.2,373.2,918.2,369.1,910.8,368.8z"/>
					<path class="st70" d="M807.5,370.4c-7.8-0.5-9.9,2.7-12.9,3.9c-6.5,2.5-20.6,0.2-26.6,2.2c-3,1-7.4,5.6-7.4,5.6
						c-1.7,0.8-3.4,1.7-5,2.7c-1.2,1.1-2.4,2.2-3.5,3.4c0,0-7.8,1.8-9.6,3.1c-2.6,1.9-5.5,9.5-5.5,9.5
						c-13.7-10.5-16.5-19.4-31.4-21.9c-20.1-3.4-76-7.8-91.5-4.1c-15.5,3.6-54.6,31.8-54.6,31.8h323c0,0-23.8-19.1-33.5-21.9
						C833.6,380.4,815.2,370.9,807.5,370.4z"/>
					<path class="st71" d="M712.7,402.6c-0.7-1.3-1.4-4.1-3.6-5.5c-1.3-0.9-3.8-1.1-5.6-1.6c-2.7-0.8-6.8-3-8.8-1.6
						c-1,0.7-2.4,3.8-3.3,4.6c-2.8,2.4-12.8-1.2-16.3,0.7c-2.3,1.1-4.6,11.3-4.6,11.3l-3.6,12.6h71
						C737.8,423.1,716,408.8,712.7,402.6z"/>
				</g>
				<g id="mount">
					<path class="st72" d="M375.8,316.2c-32.7-15.4-79.1-24-114.8-21c-8.9,0.8-19.5,14.9-32.7,15c0.6,0.8,1.2,1.7,1.7,2.6
						c40.3-2.9,90,2.5,117.3,10.9c27.1,8.3,80.6,51.8,98.4,57C431.8,363,407.8,331.3,375.8,316.2z"/>
					<path class="st73" d="M408.7,545.7L408.7,545.7C408.4,545.5,408.4,545.4,408.7,545.7z"/>
					<path class="st73" d="M331.8,574.4c0.1,0,68.9,6.8,77,7.3c7.3,0.1,8-1,44.4-20.5l-1.9-1.7c26.9-2.3,289.4-22.9,287.3-37.1
						c-84.1,11.8-65.4,9.8-92.4,10.1c-41.9,0.4-181.5,6.4-237.5,13.2c1.7,1.3,11.8,9.9,13,11c0,0-6.9,7.3-57,2.6
						c-69-6.4-59.7-8.5-97,2c-2.2,0.6-86.6,15.2-267.7,48v8.3c30.3-5.1,80.7-13.5,81.9-13.7C266.5,575.5,271.3,568,331.8,574.4z"/>
					<path class="st74" d="M713.9,518.7c0,0-13.1-12.7-20.6-16.4c-12.9-6.5-26.9-10.8-41.3-12.6c-12.6-1.4-38-26.1-53.6-29.1
						c-15.8-3-54.8-27-54.8-27s-49.5-20.1-64.7-27.6c-15.4-7.5-23-15.4-29.5-22.3c-13.9-14.7-38-41-70.3-53.3
						c-32.9-12.6-115.7-21-115.7-21s-28.3,3.9-44.8-1.1c-16.7-5.1-29.7-14.2-42.4-16.8c-8.8-1.8-29.1,5-36.5-0.1
						c-5.8-3.9-9-14.3-26.4-18.9c-18.9-5-35.1-6.3-54.6-11c-5.9-1.4-23.4,3.5-31.4,3c-7.1-0.4-27.3-8.1-27.3-8.1l2.6,334.6l276.5-35
						l135-8.7l41.6-8.4l97.4-1.2l112.1-3.9c26.6,0.4,73.8-10.7,73.8-10.7l-7-2.7L713.9,518.7z"/>
					<polygon class="st72" points="0,610.3 0,610.3 0,467.8 					"/>
					<path class="st72" d="M302.1,555.2l107,10.1c0.9,0,1.8-0.2,2.6-0.6l13.7-7.1c-1-0.8-9.1-8.5-9.1-8.5s25.1-4.9,31.2-5l81.3-5.3
						l24.4-0.9c-17-7.5-58-91.1-58-91.1l-61-34.3l-157.3-65.2L186,318.8c2.8-3,18.1-2.3,26.6-2.8c-2.2-4.6,4.4-4.2,16-5.7
						c-8.2-0.8-22.2-6.5-24.5-7.4c-13.2-5.7-14.1-9-26.8-11.6c-8.8-1.8-29.1,5-36.5,0c-5.8-3.9-9-14.1-26.4-18.7
						c-18.8-5-35.1-6.3-54.6-11c-5.9-1.4-23.5,3.5-31.4,3c-7.1-0.3-28.5-8-28.5-8v353.7L267.6,563
						C268.4,562.9,292.4,555.8,302.1,555.2z"/>
					<g class="st75">
						<path class="st76" d="M127.7,97c18.9,6.4,153.4,102.7,130.6,24.9c-6.4-22-37.3-30.5-54.9-40c-16.1-8.7-19-15.2-32-25.6
							c-25.1-20.1-76.8-22.1-106.9-36C41.2,9.5,20.1-13,0-20.4V92.3c2.5,1.3,5.1,2.3,7.8,3C35,101.8,101.4,87.7,127.7,97z"/>
						<path class="st77" d="M21,69.8c9.5,26.7,36.6,14.4,71.7,24.7c2.7,1,32.3,1.5,35,2.5c40.7,14.4,39.3,42.2,70.1,46.2
							c14.1,1.8,44.8-17.5,37.2-33.4c-6-12.6-28.2-2-62.2-38.8C139.2,34.7,83.4,44.5,54.5,34.8C47.2,32.3,22.2,9.3,0,0.3v54.6
							C8.2,55.2,16.6,57.5,21,69.8z"/>
						<path class="st78" d="M673.6,443.5c-24.5-23-36.5-21.6-58.7-45.2c-15.3-16.3-5.4-32.2-21.6-48.4c-20-20-41.9-5.5-65-21.5
							c-35-24.2-25.8-40-64.3-58.2c-28.9-13.7-51.1,0.5-76.8-23.3C357,218.9,360.7,142.2,222,135c-100.5-5.2-49.8-46.7-121.1-75
							C72.7,48.9,34.5,51.6,0,58.5v226.8l701.2,235.9C701.2,521.1,693.7,462.4,673.6,443.5z"/>
						<path class="st79" d="M537.5,463c17.6,3.9,85.6,17.5,84.5-11.9c0,0-67-66.3-93.6-82.7c-12.1-7.5-39.3-15.9-52.5-22.1
							c-16.9-7.9-9-44.5-25.8-56.9c-76.1-56.2-95,3.2-123.7-22.7c-14.8-13.4-21.3-33.9-38.4-43.8c-16.2-9.5-35.2-3.2-52.4-5.6
							c-54.2-7.4-43.2-40.3-71.6-76.4C138.8,108.5,66.5,108.9,0,122.8v120.6c88.1,35.3,201.5,83.2,201.5,83.2L537.5,463z"/>
					</g>
					<path class="st80" d="M660.2,528.8c-3.5-2.3-6.5-2.5-9.8-5.1c-3.1-2.3-6.7-3.8-10.5-4.4c-8.6-1.8-17.1-2.9-25.5-7.1
						c-4.4-2.2-13.7-9.2-13.3-5.6c0.4,4-6.9-0.3-9.8,3.3c-2.1,2.5,2.8,9.9,4.6,12.8c3.2,5.4,0.6,12.5,6.2,12.4
						c14.9-0.4,47.8-4.1,47.8-4.1s8.4,2.2,13.7,1.7C662.2,531.8,661.4,529.6,660.2,528.8z"/>
					<polygon class="st81" points="0,255.6 0,255.9 0,255.6 					"/>
					<path class="st81" d="M21.3,347.7c9.3,3.5,24.1,5.2,33.3,8.5c20.4,7.2,35.6,15,55.6,21.9c4.8,1.7,47.6,18.6,48.1,18.8
						c16.6,7.3,17.2,17.7,26.5,18.9c23.4,3.1,25.8-4,41.9-1.7c21.6,3.1,34.7,9.2,78.5,30.3c14.9,7.2,34.5,11,49.2,17.7
						c10.2,4.6,33,25.3,53.9,30.7c9.2,2.4,22.3,10.8,31.8,9.9c12.7-1.2,35.9-3.4,54.2,5.7c10.2,5.1,15.7,9.5,26.6,12.5
						c0.4,0.1,9.4,5.1,9.8,5.2c6.7,2.4,21.4,9.1,21.4,9.1c1.1-0.1,5.5-0.2,5.5-0.2s-4.6-9.1,2.7-9.8c5.9-0.6,20.8,10.1,19.9,7.3
						c-3.4-10.5-39-44-40.1-44.6c-1.5-0.8-39.8-43.9-44.9-41.3c-3.3,1.7-15.1-2.7-19.7-3.7c-16-3.5-47.8-11.8-63.1-19.5
						c-11-5.6-40-16.7-63.5-27.2c-12.7-5.6-35.9-3.2-44.1-7.8c-7.8-4.4-39.7-30.2-48.9-30.8c-18-1.3-24.4-11.1-32.4-13.1
						c-22.5-5.7-23.7,5.1-45.4-2.5c-22.7-7.9-38.7-7.3-44.5-15.2c-18.9-25.7-52.7-28-60.2-35c-9.9-9.4-27-14.2-32.6-17.1
						c-17.3-9.1-21.7-12.3-40.4-19L0,255.5v0.4l0.6,81.8C6.5,342.5,14.2,345.1,21.3,347.7z"/>
					<path class="st82" d="M368.6,517.5c-10-3.7-60.5,1.2-70.7-1.7c-8.3-2.4-16.7-6-25.2-6.7c-9.8-0.8-18.9,6.4-29.1,5.2
						c-8.2-0.9-13.8-4.1-30.2-10.3c-10.7,12.8-21.9,24.6-36.8,22c-4.6,4.6-10.1,8.3-16.1,10.9c-7.2,7.3-15.4,8.6-23.8,12.3
						c-6.6,2.9-21.4,11.7-28.2,17c-2.8,2.2-15.8,19.7-14.4,26.9c31.6-5.1,159.4-27.6,182.3-31.6c2.3-0.4,11.5-1.7,13.9-1.8
						c39.4-3.3,88.4,9.4,117.8,6.5c1.3-0.2,2.5-0.7,3.6-1.4c2.8-1.4,9.6-4.8,13.9-7.1C429.2,555.5,378.2,521.1,368.6,517.5z"/>
					<path class="st80" d="M706.7,520.4c-2-1-3.8-2.2-5.5-3.6l-7.5,1.9l-3.7,6.5c-2.8,0.7-5.7,1.2-8.7,1.5c0.2,0.6-7.4,5.4-6.8,5.4
						c11.3-0.6,24.8-2.1,24.8-2.1c3.5-0.5,17.5-6,17.5-6s-2.2-3.7-3.9-5.9L706.7,520.4z"/>
				</g>
				<g id="beach">
					<path class="st83" d="M773,786.8C408.4,775.8,61.3,686.4,0,669.9v200.9l0.4,9.2h1463.6v-43.5l-3.5-75.2
						C1460.5,761.2,1068,795.7,773,786.8z"/>
					<path class="st84" d="M217.4,726.7c136.4,16.5,127,26.4,180.5,32.9c32,4.1,67.5,7.7,99.9,6.4c0.9-6.6-104-23.6-112.3-24.8
						c-47.5-6.6-58.3,2.9-133.7-17.6C186.8,714.9,61.2,686.9,0,668v4.6c3.6,1.3,7.3,2.6,11,4C72.3,700.3,159.9,719.9,217.4,726.7z"
						/>
				</g>
				<g id="trees_in_smoke" class="st75">
					<path class="st76" d="M1461.8,133.7c-39.7,17.6-54.2,0.2-72.7-0.3c-33.9-1-44.7,20.8-55.2,28.8c-34,17-42.2,3.2-56.2,4.3
						c-34.5,2.6-36.9,23.2-50,39c-11.5,13.7-21.3,26.5-38.4,24.5c-20.9-2.5-37.4,9.4-49.7,13.8c-26.1,9.1-70.3,17.9-64.9,53.2
						c3.5,22.6,37.4,29.6,67.4,23.3c12-2.5,36.4,6.4,81.2-16.5c26.5-13.5,48.9-26.8,91.7-25.5c32.6,1,54.2-14.4,79.1-19.6
						c14.1-2.9,38.5,7.4,69.9,4.4v-121l-1.8-8.6L1461.8,133.7z"/>
					<path class="st77" d="M1404.8,144.5c-28-11.3-37.4,29.2-72.1,26.9c-9.4-0.6-41.3,1.5-71.5,21.9c-24.6,17.7-36.6,51.3-73.7,51.9
						c-40.7,0.7-85.8,14.3-92.7,53.4c-1.7,14.5,20.2,31.5,32.2,20.1c23-21.9,42,1.5,53.3,2c12.8,0.6,31.3-24.5,54.2-34.5
						c31.1-14.6,44.6-35.2,82.8-12.1c18.2,11.9,43.8-23,43.8-23s21.4-24.5,41.9-9.8c3.7,2.6,17.8,16.9,25.4,19.5
						c9.7,3.3,22.2,4.4,35.7,2.6V149.1C1444.7,154.5,1424.5,155,1404.8,144.5z"/>
					<path class="st78" d="M1338.5,214.8c-82.9,2.5-54.2,71.1-197.6,58.8C982.1,260,956.8,432.5,922.3,459.9
						c-28.4,22.7-48.7,3.3-78,13.8c-37.7,13.5-30.7,32.1-64.7,51.8c-21.9,12.7-39.8-6.2-58.5,11c-14.9,13.7-7.7,31.6-21.7,45.1
						c-20,19.3-49.6,20.4-70.1,38.4c-16.5,14.4-6.8,63.8-6.8,63.8c0.8-0.1,576.5-116.2,841.7-167V240.5
						C1427,228.9,1387.5,213.3,1338.5,214.8z"/>
					<path class="st79" d="M1206,340.8c-40.8,42-32.7,85-98,85.4c-20.1,0.1-40.7-10.3-60-1.5c-20,9.1-29.6,32.1-47.1,45.2
						c-33.1,24.7-43.1-33.6-124.4,17.5c-17.1,10.8-15.8,39.2-32.3,44.6c-12.8,4.2-19.1,11-29.6,16.2c-22.8,11.3-33.5,39.9-55.3,50.9
						c-7.8,3.9-49.7,0.2-50.9,12.7c-2.9,28.7,54.8,29.6,70.3,29.4c19.2-0.2,26.2-34.8,45.4-33.9c13.4,0.6,16.9,13.5,30.8,13.8
						c17.4,0.3,19.3-18,36.3-21.4c26.3-5.3,26.5,47.1,55.7-2.6c19.5-7.8,22.1-27,45.9-28.1c28.6-1.3,51.4,46.8,138.8-4.5
						c40.5-23.8,99-24.7,136.7-58.1c36.7-32.4,89.3-60,120.7-62.8C1598.9,424.8,1299.3,244.7,1206,340.8z"/>
				</g>
				<g id="front_hill">
					<path class="st85" d="M1300.4,524.6c-55.1,11.7-125.2,17.1-180.3,33c-26.2,7.5-77.9,13.4-109.4,15
						c-27.5,1.4-76.1,27.2-102.7,33.5c-24.8,5.9-89,4.1-103.7,7.2c-17.4,3.7-49.3,19.3-65.8,26c-31.1,12.7-88.6,34.4-116.3,42.5
						c-20.6,6-74.4,9.5-98.7,15.3c-31,7.4-88.1,35.8-119.4,44.3c-29.3,7.9-91.8,11.9-122.6,16.8C251.8,763,190,771.6,163.4,785
						c-6.7,3.4-45.9,28.7-63.1,35.4C69.7,832.5,8.6,863,0,880h1464.1V483.7C1418.8,486.7,1341.9,515.8,1300.4,524.6z"/>
					<path class="st81" d="M1300.4,524.6c-55.1,11.7-125.2,17.1-180.3,33c-26.2,7.5-77.9,13.4-109.4,15
						c-27.5,1.4-76.1,27.2-102.7,33.5c-24.8,5.9-89,4.1-103.7,7.2c-24,5.1-39.6,18.1-138,53.6c-23.4,8.4-20.2,7.5-33.6,12.4
						c-11.9,4.3-28.3,11.9-28.3,11.9s-14.1,7.8-23.9,11s-31,4.2-41.5,7.3c-26.2,7.7-61.8,26.2-47.4,32.1c7.7,3.2,133-9.8,206.5-31
						c69.7-20.2,115.7-13.2,152-6.4c7.9,2.7,50.5-11.1,57.4-11.4c29.9-1.6,71.8-7.4,101.5-6.4c37.4,1.3,74.8-20.1,129-40.3
						c41.9-15.6,19-18.3,75.3-30.9c31.4-7,80.3-19.9,112.1-18.1c24.8,1.4,47.6,8.3,70.9,2.7c22.5-5.4,44.9-17,67.7-21.3v-94.7
						C1418.8,486.7,1341.9,515.8,1300.4,524.6z"/>
					<path class="st81" d="M1443.4,644.8l1.3-0.5L1443.4,644.8z"/>
					<path class="st81" d="M1443.4,644.8L1443.4,644.8L1443.4,644.8z"/>
					<path class="st81" d="M1445.7,643.9l-0.3,0.2L1445.7,643.9z"/>
					<path class="st81" d="M1443.4,644.8l1.3-0.5L1443.4,644.8z"/>
					<path class="st81" d="M1444.8,644.3l0.6-0.2L1444.8,644.3z"/>
					<path class="st81" d="M478.5,805.7c40.5-1.2,163.5-36.6,202.3-38.5c50.9-2.5,96.1,9.4,140.4-8.4
						c88.3-35.5,276.8,46.7,436.7,14.4c41.9-8.5,77.4-31.2,119-37.4c14.9-2.2,68.8-4.8,87.1-5.7v-95.8c-6.6,4-13.5,7.6-20.7,10.7
						h0.1l1.3-0.5l0.6-0.2l0.3-0.2l0,0h0.1h-0.1l0,0l-0.3,0.2l-0.6,0.2l-1.3,0.5h-0.1l-2.4,1l-0.3,0.1l-0.6,0.2l-0.3,0.1l-0.4,0.2
						l-0.1,0.1l-0.2,0.1l0,0l0,0l0,0l0.2-0.1l0.1-0.1l0.4-0.2l0.3-0.1l0.6-0.2l0.3-0.1l2.4-1c-43.3,17.8-102.1,12.5-150,17.9
						c-60.7,6.8-103.9,25.9-155.4,50.2c-106.9,50.2-209.3,22.2-328.5,11.8c-115.5-10-222.6,68.1-338.4,56.2
						c-60.5-6.2-111.3-9.9-173.6-2c-21.6,2.7-150.3,39.9-148.7,14.8C110.4,816.9,18.8,840.1,0,880h13
						c75.7-5.3,138.5-54.2,212.4-63.3C307.7,806.5,394.6,808.2,478.5,805.7z"/>
					<polygon class="st81" points="1443.4,644.8 1443.4,644.8 1443.4,644.8 					"/>
					<path class="st81" d="M1441,645.8l2.4-1l0,0L1441,645.8z"/>
					<path class="st81" d="M1244,860.9c-11.5-4.1-23.6-6.4-35.8-6.8c-12.5-0.4-25,0.6-37.3,2.9c-11.2,2-22.1,5.5-33.4,2.8
						c-21.1-5.2-40-24.2-59-41.4c-9.3-8.5-18.8-17-28.9-21.9c-11.3-5.5-23-6.5-34.5-7.2c-24.6-1.5-49.1-5.7-73.7-8.6
						c-24.7-2.9-49.7-4.1-74.3,1.5c-20,4.5-40.1,12.5-59.6,21.8c-31.8,15.2-62.3,38.3-88.5,76h560.8l-0.8-0.5
						C1267.5,872.2,1255.9,865.2,1244,860.9z"/>
					<path class="st86" d="M915,850.2c-39.3-11.4-133.5-37.2-147.9-38.2c-31.6-2.3-124.1,25.5-124.1,25.5
						c-23.8,11.4-127.4-5.9-144.2-0.4c-26.9,8.7-82.2,16.2-109.9,21.8c-24.7,4.9-141.9,9.4-177.4,21.2h742
						C943.8,867.1,931,854.9,915,850.2z"/>
					<path class="st86" d="M1267.6,804.9c-53.3,21.4-99.3,34.3-99.7,34.5c-20.3,6.1-54.2,25.3-63.8,40.6h360V772.5
						c-13.3,7.5-27.5,13.4-42.3,17.5C1372.3,803.9,1296.2,793.4,1267.6,804.9z"/>
				</g>
				<path class="st87" d="M1285.3,381c0,0-15,71.1-12,100.9c3,29.8,5.8,97.6,5.8,97.6l-39.7,35.1l23,10.8l34.9-43.9l25,33.1l3,29.7
					h13v-29.7l-11-31.1l49.8,24l19.2-7.8l-50.1-23.1l-7-94.6l11-67L1285.3,381z"/>
				<polygon class="st87" points="1317.9,467.5 1402.1,414.5 1407.2,420.2 1323.6,487.8 				"/>
				<polygon class="st87" points="1379.3,431.8 1378.6,384 1370.1,384 1370.1,437.7 				"/>
				<g class="st88">
					<path class="st89" d="M1334.5,417.8c-4.7,11.2-8.2,22.8-10.3,34.8c-2.5,13.6-2.9,27.2-2.7,41c0.1,6.7,0.6,13.5,1.4,20.2
						c-0.1-1.7-0.1-3.3,0-5c0.1-1.7,0.1-3.3,0-5c-0.7-5.4-1.2-10.9-1.3-16.3c0-0.6,0-1.2,0-1.8c0-2.2,0,5.6,0,3c0-1.4,0.1-2.7,0.1-4
						c0.1-2.7,0.3-5.5,0.6-8.2c1.6-16.7,5.7-33.1,12.2-48.5c0.1-0.5,0.1-1,0-1.5c0-1.2,0-2.4,0-3.5c0-1.2,0-2.4,0-3.5
						C1334.5,418.8,1334.5,418.3,1334.5,417.8L1334.5,417.8z"/>
				</g>
				<g class="st88">
					<path class="st89" d="M1307,441.9c-0.3,4-0.4,8-0.1,12c0.1,2.1,0.4,4.2,0.8,6.2c0.2,1.1,0.5,2.3,0.7,3.4
						c0.1,0.6,0.2,1.2,0.3,1.7c0,0.3,0.1,0.6,0.1,0.9c0.2,3.3,0.3,0.9,0.1-7.2c-0.3,2.3-0.9,4.6-1.6,6.8c-0.6,2.1-1,4.3-1.1,6.5
						c-0.2,4.1-0.2,8.3,0,12.4c0.4,4.7,1.3,9.4,2.7,14c-0.1-0.5-0.1-1,0-1.5c0-1.2,0-2.4,0-3.5s0-2.4,0-3.5c0.1-0.5,0.1-1,0-1.5
						c-1.2-4-2.1-8.2-2.6-12.4c0-0.5-0.1-1.1-0.1-1.7c-0.1,7.4-0.1,9.8,0,7.1c0-0.3,0-0.7,0.1-1c0.1-1.1,0.3-2.1,0.5-3.2
						c0.4-1.9,1.2-3.8,1.7-5.7c0.5-2.3,0.6-4.7,0.5-7.1c0.1-3,0.1-5.9-0.2-8.9c-0.2-1.9-0.6-3.7-1-5.6c-0.2-1-0.4-2-0.6-3
						c-0.1-0.4-0.1-0.8-0.2-1.3s-0.1-0.7-0.1-1.1c-0.2,7.8-0.2,10.2,0.1,7.2c0.1-1.7,0.1-3.3,0-5
						C1306.9,445.2,1306.9,443.6,1307,441.9L1307,441.9z"/>
				</g>
				<g class="st88">
					<path class="st89" d="M1288.2,449.7c0.9,14.5,1.9,29,5.4,43.1c1.8,7,4.5,13.8,6.5,20.7c1,3.3,1.8,6.8,2.1,10.2
						c0.1,0.6,0.1,1.1,0.1,1.7c0.3,3.5,0.2-9.3,0-5.7c0,0.9-0.1,1.8-0.2,2.8c-0.2,2-0.4,3.9-0.7,5.9c-1.2,8.6-2.6,17.2-3.9,25.8
						c-0.1,1.7-0.1,3.3,0,5c0,1.2,0,2.3,0,3.5c0,0.5,0,1,0,1.5c1.2-8.1,2.4-16.2,3.6-24.3c0.7-4,1.1-7.9,1.2-11.9
						c0.1-5.4,0.3-11-0.5-16.4c-1.2-7.6-4.2-14.6-6.5-21.9c-2.3-7.5-3.9-15.2-4.9-22.9c-1.2-8.8-1.8-17.7-2.4-26.6
						c0-0.6,0,0.8,0,0.5c0,1,0,2,0,3C1288.2,445.6,1288.1,447.7,1288.2,449.7L1288.2,449.7z"/>
				</g>
				<polygon class="st87" points="83.5,434.7 209.2,394 231.9,418.5 225.6,460.3 113.5,486.5 				"/>
				<polygon class="st90" points="83.5,434.7 113.5,444.1 113.5,486.5 83.5,495.8 58.9,480 58.9,453.8 				"/>
				<g class="st91">
					<path class="st89" d="M130.9,463.2c6.9-5.4,15.9-6.2,24.3-7.3c9.7-1.3,18.9-4.4,28.4-6.5c5.4-1.3,11-1.8,16.6-1.4
						c0,0,0.1-2.5,0-2.5c-10-0.9-19.6,2.1-29.1,4.6c-4.7,1.3-9.4,2.3-14.2,3c-4.3,0.6-8.7,1-12.9,1.9c-4.8,0.8-9.3,2.7-13.2,5.6
						C130.5,461.1,131.3,462.9,130.9,463.2L130.9,463.2z"/>
				</g>
				<g class="st91">
					<path class="st89" d="M143.7,446.5c8.7-2.5,17.5-5,26.2-7.5c8-2.3,16.1-4.2,23.8-7.3c4.1-1.5,7.9-3.7,11.3-6.4
						c0.2-0.1,0-1.6,0-1.9s-0.2-1.7,0-1.9c-6,4.9-13.4,7.4-20.7,9.5c-8.6,2.5-17.1,4.9-25.7,7.4l-14.9,4.2
						C143.4,442.9,144.1,446.4,143.7,446.5L143.7,446.5z"/>
				</g>
			</g>
		</g>
	</g>
</g>
</svg>
