<svg xmlns="http://www.w3.org/2000/svg" xmlns:xlink="http://www.w3.org/1999/xlink" viewBox="0 0 230.62 532.81"><defs><style>.cls-1,.cls-14,.cls-6{fill:none;}.cls-2{fill:#628080;}.cls-3{fill:#594838;}.cls-4{fill:#69a7e0;}.cls-5{fill:#ecd89e;}.cls-6{stroke:#7a6353;stroke-linecap:round;stroke-linejoin:round;}.cls-14,.cls-6{stroke-width:2px;}.cls-7{fill:#3366c4;}.cls-8{fill:#30603a;}.cls-9{fill:#d4eaff;}.cls-10{fill:#284c2e;}.cls-11{fill:#966234;}.cls-12{fill:#77933e;}.cls-13{fill:#7a6353;}.cls-14{stroke:#3d4c3f;stroke-miterlimit:10;}.cls-15{clip-path:url(#clip-path);}.cls-16{fill:#9fdba6;}.cls-17{fill:#56c5c7;}.cls-18{fill:#be934f;}.cls-19{fill:#7f6736;}.cls-20{fill:#426d18;}.cls-21{fill:#f2c972;}.cls-22{fill:#e8c980;}.cls-23{fill:#bea234;}.cls-24{fill:#a08011;}</style><clipPath id="clip-path"><polygon class="cls-1" points="75.82 132.97 69.35 299.31 147.57 299.31 119.66 135.68 75.82 132.97"/></clipPath></defs><g id="圖層_2" data-name="圖層 2"><g id="圖層_1-2" data-name="圖層 1"><polygon class="cls-2" points="51.59 276.77 49.86 299.31 176 299.31 171.06 276.77 51.59 276.77"/><path class="cls-3" d="M115.3,125.28c16.79,8.39,36.64,6.55,55.3,4.51,5.65-.62,12.38-2,14.35-7.37,1.14-3.09.23-6.67,1.5-9.71.74-1.76,2.16-3.21,2.66-5,1.35-5-4.29-8.74-8.65-11.52a47.11,47.11,0,0,1-21.36-38.7l-18.31-1.22L113.57,111.1Z"/><path class="cls-4" d="M148.07,124.67s25.15-1.54,49.43,20.12,42.4,79.49,28,88.65L185.19,251l-16.5-47.54Z"/><path class="cls-5" d="M140.79,56.22c4.67,5.59-.5,14.56-.75,21.83,3.59-3.43,10.61.4,10.22,5.35S143.38,91.34,139,89c-2.83,11.44-14.08,19-25.44,22.12-20.33,5.66-34.94,3.66-47.85-13S54.05,54.44,70.33,41C70.33,41,100.72,8.26,140.79,56.22Z"/><line class="cls-6" x1="69.56" y1="47.45" x2="84.96" y2="56.39"/><line class="cls-6" x1="104.36" y1="60.99" x2="118.59" y2="63.25"/><path class="cls-7" d="M146.44,44.13a30.23,30.23,0,0,0-4.83-25.08,40.75,40.75,0,0,0-8.81-8.48C122.94,3.34,110.7.09,98.46,0,80.73-.13,66.63,16.06,66.63,16.06c-3.39-1.13-6.9-2.29-10.46-2s-7.25,2.38-8.25,5.82c-1.56,5.4,3.79,10.15,8.66,13C76.7,44.5,99.43,50.7,121.87,56.78c13.7,3.71,27.56,7.44,41.75,7.75,3.3.07,7.19-.38,8.82-3.24C175,56.83,169.69,52,165,49.91,158.61,47.05,146.44,44.13,146.44,44.13Z"/><path class="cls-8" d="M174.7,147.18l6.29,82,12.6,47.54H29.36L51.58,118.12h74.19C145.59,118.12,171,127.7,174.7,147.18Z"/><path class="cls-8" d="M107.25,132.15,49.93,118a25.93,25.93,0,0,1-18.08-16.2l3.06,10.39L7.13,121.92l1.52,15A46.85,46.85,0,0,0,42.7,171.29L93.09,184Z"/><path class="cls-5" d="M79.48,106.17,81,129s15.58,8,32.59,1.36l3.18-24.17Z"/><path class="cls-8" d="M160.19,127.48l-10.93,42.15,44.4,26.23,35.41-1.38a29.4,29.4,0,0,0-12.58-28.95Z"/><path class="cls-4" d="M139.5,119.77s6.86,79.82,44.22,102.36l1.47,14.68s-52.1,3.49-59.42-118.69C125.77,118.12,130.2,114.79,139.5,119.77Z"/><polygon class="cls-5" points="196.45 195.75 180.28 219.88 185.19 236.81 222.59 194.73 196.45 195.75"/><path class="cls-5" d="M180.28,219.88s-2.74-.22-3.66,3.79-2.31,11.77,8.57,13.14Z"/><polygon class="cls-2" points="75.82 132.97 69.35 299.31 147.57 299.31 119.66 135.68 75.82 132.97"/><path class="cls-9" d="M78.32,128.24,75.82,133s9.42,6.69,20.68,6.79,23.16-4.08,23.16-4.08l-2.72-5.83S96.14,136.3,78.32,128.24Z"/><polygon class="cls-8" points="67 118.12 63.66 111.41 79.15 107.56 80.26 118.12 67 118.12"/><polygon class="cls-8" points="115.19 118.12 115.19 107.59 126.11 110.46 122.47 118.12 115.19 118.12"/><path class="cls-10" d="M31.85,101.75,11,106.91a7.22,7.22,0,0,0-5.3,8.64l1.48,6.37,27.78-9.78Z"/><polygon class="cls-5" points="26.27 116.06 26.89 79.16 14.6 81.1 9.87 121.83 26.27 116.06"/><path class="cls-11" d="M33.8,67.57,1.73,87.62a3.68,3.68,0,0,0-1,5.31h0a3.69,3.69,0,0,0,4.92.94L38.85,73.12Z"/><path class="cls-5" d="M21.9,75s-.11,6.19-6.13,8.19-7,0-7,0-.89-5.09,3.12-7.56S18.92,72.83,21.9,75Z"/><polygon class="cls-12" points="56.83 299.31 69.35 392.85 116.94 392.85 120.7 355.67 129.4 392.85 178.78 392.85 168.9 299.31 56.83 299.31"/><circle class="cls-13" cx="75.76" cy="62.12" r="4.46"/><circle class="cls-13" cx="104" cy="68.91" r="3.89"/><circle class="cls-14" cx="57.63" cy="51.01" r="29.02"/><g class="cls-15"><path class="cls-16" d="M98.26,201.81c-15.56-8.24-6.83-19.82.89-29.4a26.28,26.28,0,0,0-5.47,47.5,1.2,1.2,0,0,0,.58-1.1c0-3-3-7-1-10,1,0,4-2,6-1C98.26,205.81,100.26,202.81,98.26,201.81Z"/><path class="cls-16" d="M121.26,194.81c1,0-1,5,0,7s4,4,6,2a6.41,6.41,0,0,1,6-2.59,26.59,26.59,0,0,0,.28-3.81,26.28,26.28,0,0,0-22.81-26C116.8,179.41,107.58,191.87,121.26,194.81Z"/><path class="cls-17" d="M127.26,203.81c-2,2-5,0-6-2s1-7,0-7c-13.68-2.94-4.46-15.4-10.55-23.44a26.37,26.37,0,0,0-11.56,1c-7.72,9.58-16.45,21.16-.89,29.4,2,1,0,4,1,6-2-1-5,1-6,1-2,3,1,7,1,10a1.2,1.2,0,0,1-.58,1.1,26.28,26.28,0,0,0,39.56-18.69A6.41,6.41,0,0,0,127.26,203.81Z"/><path class="cls-16" d="M96.28,188.55c0,.08,0,.17,0,.26,0-.09,0-.18,0-.26l-1,.26,1-.26c.11-2.86,2-4.83,3-7.74,1-1,3,1,3,1C103.17,186.38,99.9,187.6,96.28,188.55Z"/><path class="cls-16" d="M107.26,204.81c-1,0-2,2-3,1,0-2.65-.78-4.52-1-7l0,0,0,0c0-.33,0-.67,0-1,0,.35,0,.69,0,1C105.3,199.83,108.25,201.82,107.26,204.81Z"/></g><polygon class="cls-5" points="69.35 392.85 69.35 412.06 81.14 468.65 86.65 504.05 117.81 504.05 116.94 392.85 69.35 392.85"/><path class="cls-18" d="M125.49,523.91c.14-9-7.69-19.86-7.69-19.86H86.65s-25.89,4-29.82,11.12a18.13,18.13,0,0,0-2.51,6.21A334.62,334.62,0,0,0,125.49,523.91Z"/><path class="cls-19" d="M54.32,521.38c-.46,3.68,1.5,7.72,11.55,9.72,16.81,3.35,56.23,1,57.42-.5a10.71,10.71,0,0,0,2.2-6.69A334.62,334.62,0,0,1,54.32,521.38Z"/><path class="cls-18" d="M190.7,523.91c.14-9-7.69-19.86-7.69-19.86H151.86s-25.89,4-29.82,11.12a17.94,17.94,0,0,0-2.51,6.21A334.62,334.62,0,0,0,190.7,523.91Z"/><path class="cls-19" d="M119.53,521.38c-.46,3.68,1.5,7.72,11.55,9.72,16.81,3.35,56.23,1,57.42-.5a10.71,10.71,0,0,0,2.2-6.69A334.62,334.62,0,0,1,119.53,521.38Z"/><polygon class="cls-20" points="81.14 468.65 117.81 465.56 117.81 504.05 86.65 504.05 81.14 468.65"/><path class="cls-20" d="M149.26,504.05H183l-1.27-33.54c-13.35.23-26.61.85-40.09,1Z"/><path class="cls-5" d="M129.4,392.85v26.31l12.25,52.39c13.48-.19,26.74-.81,40.09-1l-3-77.66Z"/><path class="cls-21" d="M139.39,411.52q-3.46,3.3-6.68,6.84a3.07,3.07,0,0,0,0,.73c0,.59,0,1.18,0,1.77s0,1.18,0,1.77a3,3,0,0,1,0,.73q3.21-3.54,6.68-6.84a3.07,3.07,0,0,0,0-.73c0-.59,0-1.18,0-1.77s0-1.18,0-1.76a3.13,3.13,0,0,1,0-.74Z"/><path class="cls-21" d="M142.48,416.82a14.24,14.24,0,0,0-4,4,1.48,1.48,0,0,0,0,.21c0,.17,0,.35,0,.52,0,.59,0,1.18,0,1.77s0,1.17,0,1.76v.39a2,2,0,0,0,0,.35,14.24,14.24,0,0,1,4-4,4.75,4.75,0,0,0,0-.73v-3.93c0-.11,0-.23,0-.34Z"/><path class="cls-21" d="M79.07,402.63Q75.66,405.47,72,408a4.56,4.56,0,0,0,0,.73c0,.59,0,1.18,0,1.77s0,1.18,0,1.76a3.71,3.71,0,0,1,0,.74q3.66-2.52,7.07-5.36a3.73,3.73,0,0,0,0-.73v-3.54a3.67,3.67,0,0,1,0-.73Z"/><path class="cls-21" d="M80.64,410.63a41.8,41.8,0,0,0-5.77,2.65,4.73,4.73,0,0,0,0,.73c0,.59,0,1.18,0,1.77s0,1.18,0,1.77a6.25,6.25,0,0,1,0,.73,41.8,41.8,0,0,1,5.77-2.65,6.51,6.51,0,0,0,0-.73v-3.54a6.25,6.25,0,0,1,0-.73Z"/><polyline class="cls-22" points="90.49 63.06 80.19 83.53 97.08 86.45 97.08 77.01"/><ellipse class="cls-13" cx="89.27" cy="97.7" rx="4.31" ry="8.47"/><path class="cls-23" d="M59.35,118.12s-3.68,110.34-30,107.68S26.89,164,26.89,164l5.79,3.54s-14.76,46.09-5.79,48.65,24.54-58.78,23-98.19C49.93,118,53.94,114.61,59.35,118.12Z"/><polygon class="cls-23" points="40.53 170.79 36.11 184.76 36.05 189.41 34.56 188.31 33.58 188.89 32.65 187.71 31.45 188.45 30.99 187.06 30.26 188.2 29.3 188 31.52 183.5 33.75 168 40.53 170.79"/><polygon class="cls-24" points="36.55 184.81 31.52 183.5 31.79 181.65 37.18 182.93 36.55 184.81"/><polygon class="cls-24" points="37.18 181.07 32.14 179.76 32.41 177.91 37.81 179.19 37.18 181.07"/><polygon class="cls-24" points="37.86 177.29 32.83 175.98 33.1 174.12 38.49 175.41 37.86 177.29"/><polygon class="cls-24" points="38.58 174.06 33.55 172.75 33.81 170.89 39.21 172.18 38.58 174.06"/><path class="cls-24" d="M55,123.71a221.45,221.45,0,0,1-4.44,49.34c-.19.94,1.25,1.35,1.45.4a223.27,223.27,0,0,0,4.49-49.74.75.75,0,0,0-1.5,0Z"/></g></g></svg>