<svg xmlns="http://www.w3.org/2000/svg" xmlns:xlink="http://www.w3.org/1999/xlink" viewBox="0 0 324.06 309.12"><defs><style>.cls-1{fill:none;}.cls-2{clip-path:url(#clip-path);}.cls-3{fill:#ffd480;}.cls-4{fill:#ffd381;}.cls-5{fill:#ffd282;}.cls-6{fill:#ffd183;}.cls-7{fill:#ffd184;}.cls-8{fill:#ffd085;}.cls-9{fill:#ffcf86;}.cls-10{fill:#ffce87;}.cls-11{fill:#ffcd88;}.cls-12{fill:#ffcc89;}.cls-13{fill:#ffcb8a;}.cls-14{fill:#ffca8b;}.cls-15{fill:#ffca8d;}.cls-16{fill:#ffc98e;}.cls-17{fill:#ffc88f;}.cls-18{fill:#ffc790;}.cls-19{fill:#ffc691;}.cls-20{fill:#ffc592;}.cls-21{fill:#ffc493;}.cls-22{fill:#ffc394;}.cls-23{fill:#ffc395;}.cls-24{fill:#ffc296;}.cls-25{fill:#ffc197;}.cls-26{fill:#ffc098;}.cls-27{fill:#ffbf99;}.cls-28{fill:#ff774d;}.cls-29{fill:#d4e6ff;}.cls-30{fill:#b7c7fb;}.cls-31{fill:#32478e;}.cls-32{fill:#2a3967;}.cls-33{fill:#d9e5ff;}.cls-34{fill:#6d76ff;}.cls-35{fill:#87abf3;}.cls-36{fill:#c7e0ff;}.cls-37{fill:#9ac6f6;}.cls-38{fill:#9db2f1;}.cls-39{fill:#f2f9ff;}.cls-40{fill:#b5d6ff;}.cls-41{fill:#ff9d80;}.cls-42{fill:#96bff7;}.cls-43{fill:#ffb500;}.cls-44{fill:#ff9e00;}</style><clipPath id="clip-path"><circle class="cls-1" cx="163.2" cy="155.63" r="153.5"/></clipPath></defs><g id="圖層_2" data-name="圖層 2"><g id="圖層_1-2" data-name="圖層 1"><g class="cls-2"><polygon class="cls-3" points="114.69 2.13 9.7 136.77 9.7 2.13 114.69 2.13"/><polygon class="cls-3" points="129.06 2.13 9.7 155.2 9.7 136.77 114.69 2.13 129.06 2.13"/><polygon class="cls-4" points="143.42 2.13 9.7 173.63 9.7 155.2 129.06 2.13 143.42 2.13"/><polygon class="cls-5" points="157.79 2.13 9.7 192.05 9.7 173.63 143.42 2.13 157.79 2.13"/><polygon class="cls-6" points="172.16 2.13 9.7 210.48 9.7 192.05 157.79 2.13 172.16 2.13"/><polygon class="cls-7" points="186.53 2.13 9.7 228.91 9.7 210.48 172.16 2.13 186.53 2.13"/><polygon class="cls-8" points="200.9 2.13 9.7 247.34 9.7 228.91 186.53 2.13 200.9 2.13"/><polygon class="cls-9" points="215.27 2.13 13.43 260.98 9.7 258.07 9.7 247.34 200.9 2.13 215.27 2.13"/><polygon class="cls-10" points="229.64 2.13 22.36 267.95 13.43 260.98 215.27 2.13 229.64 2.13"/><polygon class="cls-11" points="244.01 2.13 31.3 274.92 22.36 267.95 229.64 2.13 244.01 2.13"/><polygon class="cls-12" points="251.22 2.13 255.67 5.6 40.24 281.88 31.3 274.92 244.01 2.13 251.22 2.13"/><rect class="cls-13" x="-22.75" y="141.56" width="350.35" height="11.33" transform="translate(-57.41 176.9) rotate(-52.05)"/><rect class="cls-14" x="-13.82" y="148.53" width="350.35" height="11.33" transform="translate(-59.46 186.63) rotate(-52.05)"/><rect class="cls-15" x="-4.88" y="155.5" width="350.35" height="11.33" transform="translate(-61.51 196.36) rotate(-52.05)"/><polygon class="cls-16" points="282.48 26.51 291.42 33.47 76.48 309.12 75.17 309.12 67.05 302.79 282.48 26.51"/><polygon class="cls-17" points="291.42 33.47 300.35 40.44 90.85 309.12 76.48 309.12 291.42 33.47"/><polygon class="cls-18" points="300.35 40.44 309.29 47.41 105.22 309.12 90.85 309.12 300.35 40.44"/><polygon class="cls-19" points="309.29 47.41 316.69 53.18 316.69 56.34 119.58 309.12 105.22 309.12 309.29 47.41"/><polygon class="cls-20" points="316.69 74.77 133.95 309.12 119.58 309.12 316.69 56.34 316.69 74.77"/><polygon class="cls-21" points="316.69 93.2 148.32 309.12 133.95 309.12 316.69 74.77 316.69 93.2"/><polygon class="cls-22" points="316.69 111.63 162.69 309.12 148.32 309.12 316.69 93.2 316.69 111.63"/><polygon class="cls-23" points="316.69 130.06 177.06 309.12 162.69 309.12 316.69 111.63 316.69 130.06"/><polygon class="cls-24" points="316.69 148.49 191.43 309.12 177.06 309.12 316.69 130.06 316.69 148.49"/><polygon class="cls-25" points="316.69 166.91 205.8 309.12 191.43 309.12 316.69 148.49 316.69 166.91"/><polygon class="cls-26" points="316.69 185.34 220.17 309.12 205.8 309.12 316.69 166.91 316.69 185.34"/><polygon class="cls-27" points="316.69 203.77 234.54 309.12 220.17 309.12 316.69 185.34 316.69 203.77"/><polygon class="cls-27" points="234.54 309.12 316.69 203.77 316.69 309.12 234.54 309.12"/></g><path class="cls-28" d="M297,249.35l-1.64-1.14a159.16,159.16,0,0,0,26.73-65.76l2,.33A161,161,0,0,1,297,249.35Z"/><path class="cls-28" d="M47.71,271.47c-63.61-63.62-63.61-167.13,0-230.74A163.45,163.45,0,0,1,115.49,0l.58,1.91A161.19,161.19,0,0,0,49.13,270.06Z"/><path class="cls-29" d="M50.54,150.58s-2.17-35.79-8.36-47H74.77v46.93Z"/><path class="cls-30" d="M66.83,150.58s-2.17-35.79-8.35-47H91.06v46.93Z"/><rect class="cls-31" x="79.09" y="84.33" width="31.54" height="101.74"/><rect class="cls-32" x="110.63" y="84.33" width="76.05" height="101.74"/><circle class="cls-33" cx="94.86" cy="97.04" r="5.26"/><circle class="cls-34" cx="94.86" cy="97.04" r="3.72"/><rect class="cls-35" x="87.56" y="109.72" width="14.83" height="26.8"/><rect class="cls-36" x="137.72" y="128.14" width="68.51" height="22.08"/><rect class="cls-37" x="206.22" y="128.14" width="68.51" height="22.08"/><rect class="cls-35" x="137.72" y="138.94" width="17.1" height="0.48"/><rect class="cls-35" x="159" y="132.15" width="47.22" height="0.48"/><rect class="cls-35" x="137.72" y="144.89" width="30.22" height="0.48"/><rect class="cls-29" x="116.47" y="106.06" width="68.51" height="22.08"/><rect class="cls-38" x="184.98" y="106.06" width="68.51" height="22.08"/><rect class="cls-35" x="116.47" y="116.86" width="17.1" height="0.48"/><rect class="cls-35" x="137.75" y="110.06" width="47.22" height="0.48"/><rect class="cls-35" x="116.47" y="122.8" width="30.22" height="0.48"/><rect class="cls-29" x="154.81" y="43.8" width="68.51" height="22.08"/><rect class="cls-37" x="223.32" y="43.8" width="68.51" height="22.08"/><rect class="cls-35" x="154.81" y="54.61" width="17.1" height="0.48"/><rect class="cls-35" x="176.1" y="47.81" width="47.22" height="0.48"/><rect class="cls-35" x="154.81" y="60.24" width="30.22" height="0.48"/><rect class="cls-39" x="133.56" y="21.72" width="68.51" height="22.08"/><rect class="cls-40" x="202.07" y="21.72" width="68.51" height="22.08"/><rect class="cls-35" x="133.56" y="32.52" width="17.1" height="0.48"/><rect class="cls-35" x="198.54" y="32.52" width="17.1" height="0.48"/><rect class="cls-35" x="192.22" y="25.73" width="47.22" height="0.48"/><rect class="cls-35" x="133.56" y="38.47" width="30.22" height="0.48"/><rect class="cls-40" x="210.74" y="65.86" width="68.51" height="40.2" transform="translate(489.99 171.91) rotate(180)"/><rect class="cls-39" x="142.23" y="65.86" width="68.51" height="40.2" transform="translate(352.97 171.91) rotate(180)"/><rect class="cls-35" x="262.15" y="85.63" width="17.1" height="0.65"/><rect class="cls-31" x="163.79" y="73.41" width="94.17" height="0.35"/><rect class="cls-35" x="249.02" y="96.46" width="30.22" height="0.65"/><rect class="cls-31" x="190.85" y="80.61" width="32.47" height="0.35"/><rect class="cls-28" x="106.46" y="150.58" width="178.18" height="116.16"/><polygon class="cls-41" points="188.75 266.74 47.48 266.74 47.89 150.58 189.16 150.58 188.75 266.74"/><rect class="cls-32" x="88.05" y="163.3" width="44.83" height="8.77" rx="4.01"/><rect class="cls-42" x="101.59" y="195" width="33.87" height="33.87" transform="translate(38.44 -17.3) rotate(9.96)"/><rect class="cls-35" x="104.04" y="195.21" width="33.87" height="5.47" transform="matrix(0.98, 0.17, -0.17, 0.98, 36.06, -17.94)"/><rect class="cls-43" x="143.31" y="169.13" width="33.87" height="33.87" transform="translate(-42.02 46.82) rotate(-14.72)"/><rect class="cls-44" x="139.71" y="169.6" width="33.87" height="5.47" transform="translate(-38.65 45.46) rotate(-14.72)"/><path class="cls-35" d="M48.73,114a43,43,0,0,0-3.6-10.31l.28-.15A44,44,0,0,1,49,113.91Z"/><path class="cls-35" d="M56.72,126.75a98.69,98.69,0,0,0-5.95-23.1l.28-.13a99.45,99.45,0,0,1,6,23.19Z"/></g></g></svg>