<svg xmlns="http://www.w3.org/2000/svg" viewBox="0 0 403.34 450.54"><defs><style>.cls-1{fill:#7f7f6a;}.cls-2{fill:#fff;}.cls-3{fill:#24a3f2;}.cls-4{fill:#ffb1b7;}.cls-5{fill:#dcdcdc;}.cls-6{fill:#ece5d9;}.cls-7{fill:#e7ab42;}.cls-8{opacity:0.41;}.cls-9{fill:#959595;}.cls-10{fill:#64ba7b;}.cls-11{fill:#f0f3fd;}.cls-12{fill:#40649b;}.cls-13{fill:#274b7b;}.cls-14{fill:#2c363b;}.cls-15{fill:#eeee80;}.cls-16{fill:#259873;}.cls-17{fill:#36b88f;}.cls-18{fill:#77d8a4;}.cls-19{opacity:0.49;}.cls-20{opacity:0.2;}.cls-21{fill:#6aa8cb;}.cls-22{fill:#288ab1;}.cls-23{fill:#bce6ff;}.cls-24{fill:#90cae7;}.cls-25{fill:#4788a4;}.cls-26{fill:#2a7892;}.cls-27{fill:#65b5d5;}.cls-28{fill:#fbf3e2;}.cls-29{fill:#eddec3;}.cls-30{fill:#e8d2af;}</style></defs><g id="圖層_2" data-name="圖層 2"><g id="圖層_1-2" data-name="圖層 1"><circle class="cls-1" cx="89.12" cy="89.12" r="89.12"/><path class="cls-2" d="M19.53,40l44-10s13.89,49.95,29,81.54L50.29,126.85S27.32,96.31,19.53,40Z"/><path class="cls-3" d="M29.46,43.34l27.37-6.12a3.25,3.25,0,0,1,3.84,2.24h0a3.27,3.27,0,0,1-2.41,4.14L30.9,49.76A3.26,3.26,0,0,1,27,47.23v0A3.26,3.26,0,0,1,29.46,43.34Z"/><path class="cls-4" d="M28.94,55.67s3.28,15.59,6,18.84l36.73-9.42L65.07,47.3Z"/><polygon class="cls-5" points="37.3 81.05 71.64 72.39 73.43 76.72 39.09 85.82 37.3 81.05"/><polygon class="cls-5" points="40.88 90 75.22 81.34 77.01 85.67 42.67 94.78 40.88 90"/><polygon class="cls-5" points="44.44 99.26 78.78 90.6 80.57 94.93 46.23 104.04 44.44 99.26"/><polygon class="cls-6" points="82.14 58.03 72.01 139.05 148.94 147.01 156.66 66.13 82.14 58.03"/><path class="cls-2" d="M42.92,66.71a4.23,4.23,0,0,1-1.9,1.5l.34,1.18-1.17.34-.35-1.16a3.39,3.39,0,0,1-3.92-1.91l1.15-.9a2.33,2.33,0,0,0,2.37,1.42l-1-3.48a7,7,0,0,1-2.2-.37,2.31,2.31,0,0,1-1.44-1.58,2.55,2.55,0,0,1,.28-2.22,3.78,3.78,0,0,1,1.75-1.32l-.25-.87L37.73,57l.26.88a3.46,3.46,0,0,1,2.29.28,4.57,4.57,0,0,1,1.34,1.29l-1.17.95a3.24,3.24,0,0,0-.81-.86,1.85,1.85,0,0,0-1.24-.26l.83,2.82a8,8,0,0,1,2.41.42,2.82,2.82,0,0,1,1.62,1.83A2.75,2.75,0,0,1,42.92,66.71Zm-5.7-7.1c-.88.41-1.2,1-1,1.71.11.38.66.6,1.69.71Zm2.5,4.18.88,3a2.34,2.34,0,0,0,1-.91,1.38,1.38,0,0,0,.13-1.1C41.63,64.26,40.94,63.92,39.72,63.79Z"/><rect class="cls-2" x="99.54" y="55.42" width="8.21" height="38.12" transform="translate(18.92 169.93) rotate(-84.11)"/><rect class="cls-7" x="136.65" y="68.58" width="5.43" height="3.76" transform="translate(54.96 201.86) rotate(-84.11)"/><rect class="cls-7" x="142.07" y="69.14" width="5.43" height="3.76" transform="translate(59.27 207.75) rotate(-84.11)"/><rect class="cls-7" x="147.51" y="69.7" width="5.43" height="3.76" transform="translate(63.59 213.67) rotate(-84.11)"/><g class="cls-8"><path class="cls-9" d="M150.58,89.09h-.1L83,82.12a1,1,0,1,1,.21-2l67.48,7a1,1,0,0,1-.1,2Z"/></g><g class="cls-8"><path class="cls-9" d="M149.69,94.52h-.1l-67.49-7a1,1,0,0,1,.21-2l67.48,7a1,1,0,0,1,.89,1.1A1,1,0,0,1,149.69,94.52Z"/></g><g class="cls-8"><path class="cls-9" d="M149.06,100.64H149l-67.48-7a1,1,0,1,1,.21-2l67.48,7a1,1,0,0,1-.1,2Z"/></g><path class="cls-10" d="M92.58,74.76l-.08.77-1.44-.15.08-.73A3,3,0,0,1,89,73.29a4,4,0,0,1-.5-2.55l2,.2a2.63,2.63,0,0,0,.08,1.19,1.19,1.19,0,0,0,.78.73l.28-2.66a6,6,0,0,1-1.79-1.13,2.29,2.29,0,0,1-.7-2,2.65,2.65,0,0,1,1-1.88,3.44,3.44,0,0,1,2.06-.72l.07-.74,1.44.15-.07.74a3,3,0,0,1,2.45,3.5L94.14,68a1.39,1.39,0,0,0-.7-1.49l-.25,2.44a11.16,11.16,0,0,1,1.9,1.16,2.32,2.32,0,0,1,.73,2C95.64,73.83,94.57,74.71,92.58,74.76ZM92,66.35c-.57.15-.87.43-.92.86s.2.74.72,1Zm1,4.48L92.77,73a1.14,1.14,0,0,0,1.09-1C93.91,71.49,93.61,71.13,93,70.83Z"/><path class="cls-1" d="M43.36,192.1c.08-.1.14-.2.22-.32a.38.38,0,0,1,.24-.14c.12,0,.24.1.36.28l.7.85A.43.43,0,0,1,45,193c0,.15-.18.28-.54.4A13,13,0,0,1,40.64,197h2.64v4.3a4,4,0,0,0,1.4-1.16,2.9,2.9,0,0,0,.56-1.66v-1.56h4A11.09,11.09,0,0,1,48,196a9.66,9.66,0,0,1-2.8-3.77l1.56-.38a7.33,7.33,0,0,0,.94,1.56,14.74,14.74,0,0,0,1.88-1.8l1.14,1.14a.47.47,0,0,1,.1.26c0,.12-.16.16-.46.16-.56.45-1.14.86-1.72,1.27l.32.26c.2.17.44.33.68.5a16.91,16.91,0,0,0,2.28-1.71L53,194.67a.47.47,0,0,1,.1.26c0,.12-.16.16-.46.16-.54.32-1.08.62-1.62.92a19.33,19.33,0,0,0,3,1.1l-1.18,1.58a25.8,25.8,0,0,1-3-1.42v2.5c0,.58,0,.86.14.86h.56a.62.62,0,0,0,.36-.1,3.36,3.36,0,0,0,.34-1.06l1.58.54a3.5,3.5,0,0,1-.78,1.76,2,2,0,0,1-1.26.34H49.9c-1.14,0-1.7-.64-1.7-1.94v-1.72H46.8a4,4,0,0,1-.56,2,4.78,4.78,0,0,1-1.64,1.72l-1.32-.66v.28h-3.7c-.14.52-.28,1-.42,1.48h4a12.79,12.79,0,0,1-.46,4.44A1.88,1.88,0,0,1,41.4,209a11.46,11.46,0,0,1-3.44.36l-.78-1.64a15,15,0,0,0,3.18-.18,1.24,1.24,0,0,0,.76-.64,4.89,4.89,0,0,0,.4-2h-2.9l-.18.48H36.8a28.5,28.5,0,0,0,1.48-5.08h3.36v-1.72H38.36v-.44a20.88,20.88,0,0,1-2,.74l-1.08-1.32a17.71,17.71,0,0,0,3.3-1.18A16.44,16.44,0,0,0,37,195.25l1.16-1.1a13.1,13.1,0,0,1,1.94,1.36,2.86,2.86,0,0,0,.4-.28,9.07,9.07,0,0,0,1.66-1.54H37V192.1Zm6.92,10.57c.14-.1.22-.16.26-.16a.63.63,0,0,1,.38.16l.86.78a.41.41,0,0,1,.18.3c0,.14-.2.3-.56.48a9.9,9.9,0,0,1-1.78,2.66,5.23,5.23,0,0,0,.84.32,15.29,15.29,0,0,0,3,.62L52,209.39a14.93,14.93,0,0,1-3-1l-.78-.4a15,15,0,0,1-4.08,1.44L43,207.91a21.57,21.57,0,0,0,2.6-.56,10.38,10.38,0,0,0,1.14-.46l-.06,0A5.5,5.5,0,0,1,45.34,205a4,4,0,0,1-.34-.8H44v-1.56Zm-3.48,2.08a4.53,4.53,0,0,0,1.26,1.3s0,0,0,0a5.94,5.94,0,0,0,1.38-1.82h-3A2.7,2.7,0,0,0,46.8,204.75Z"/><path class="cls-1" d="M60.9,206.05c.12.12.2.2.2.28s-.12.16-.32.16a20.41,20.41,0,0,1-3.82,2.9l-1.58-1.18a17.22,17.22,0,0,0,4.3-3Zm12.54-3v1.56H65.38v2.74a1.72,1.72,0,0,1-.74,1.52c-.4.34-1.44.52-3.08.52l-.7-1.8H62.6c.6,0,.94-.18,1-.54v-2.44h-8v-1.56Zm-.24-11v1.65H67.66v1.08h4.52v4.84H56.8v-4.84h4.52v-1.08H55.94V192Zm-1.56,8.51v1.56H57.42v-1.56Zm-10.32-4.22h-2.8v1.72h2.8Zm4.7-2.64H63v1.08H66Zm0,2.64H63v1.72H66Zm7.26,11.88-1.64,1.1a22.16,22.16,0,0,0-4.22-2.66l1.26-1A28.68,28.68,0,0,1,73.28,208.21Zm-2.82-11.88h-2.8v1.72h2.8Z"/><path class="cls-1" d="M85.64,202.81A19.86,19.86,0,0,0,82,199l1.16-1.3A27,27,0,0,1,87,201.57Z"/><path class="cls-1" d="M98.2,194.6v-3.12l1.52.12c.28,0,.44.08.44.2s-.12.26-.32.46v2.34h2.9v9.31a1.41,1.41,0,0,1-.8,1.46,3.14,3.14,0,0,1-1.24.26l-.62-1.56.76,0c.22,0,.34-.22.34-.6v-7.26H99.84v13.12H98.2V196.19H97v9.36H95.46v-11H98.2Zm14.06-1h-6.48v1.17h6.48v1.48h-6.48v1.18h6.48v1.48h-6.48v1.26h7.74v1.56h-4.78a13.27,13.27,0,0,0,1.1,2.44,17.67,17.67,0,0,0,2.34-1.66l1.22,1.26a.58.58,0,0,1,.12.3c0,.12-.2.16-.56.16-.74.44-1.5.84-2.28,1.22a12.43,12.43,0,0,0,2.92,2.76l-1.72,1.34a12.7,12.7,0,0,1-2.5-2.88,17.06,17.06,0,0,1-2.22-4.94h-1.38v5.1c.92-.14,1.84-.3,2.74-.5v1.5c-1.24.3-3.16.72-5.78,1.24-.14.2-.28.32-.4.32s-.2-.1-.22-.3l-.4-1.74c.8-.06,1.58-.14,2.34-.26v-5.36h-.94v-1.56h.94V192h8.2Z"/><path class="cls-1" d="M131.1,197.19v7.5h-5.64v1.18H133v1.56h-7.5v2h-1.72v-2H116v-1.56h7.72v-1.18H118v-7.5ZM123.44,192v4.45h-6.18V192Zm-1.64,1.48h-2.9v1.49h2.9Zm1.94,6.81v-1.42h-4v1.42Zm0,1.48h-4v1.32h4Zm8.14-9.77v4.45h-6.42V192Zm-6.42,8.29h3.92v-1.42h-3.92Zm3.92,1.48h-3.92v1.32h3.92Zm.86-8.29H127.1v1.49h3.14Z"/><path class="cls-1" d="M265.16,273.38l-1.48-3.62h-5.8l-1.48,3.62h-2l5.42-13.14h1.84l5.42,13.14Zm-4.38-10.62L258.62,268h4.32Z"/><path class="cls-1" d="M273.92,262v11.42h-1.84V262h-4.26v-1.72h10.36V262Z"/><path class="cls-1" d="M291.28,273.38v-9.72l-4,9.72h-1.72l-4-9.72v9.72h-1.82V260.24h2.32L286.44,271l4.34-10.74h2.32v13.14Z"/><path class="cls-1" d="M309.1,266.24a.25.25,0,0,1,.2.24c0,.14-.2.24-.56.32a18.3,18.3,0,0,1-2.9,3.92.42.42,0,0,0,.12.08,21.47,21.47,0,0,0,7.25,2.4l-1.27,2a22,22,0,0,1-7.52-3.08c-.06,0-.1-.06-.1-.08l0,0a26.28,26.28,0,0,1-7.44,3.3l-1.72-1.64q5.37-1.23,7.68-2.94a22.85,22.85,0,0,1-3.22-3.94l1.4-.94a19,19,0,0,0,3.26,3.72,15.81,15.81,0,0,0,2.92-4Zm-3.9-8.92c.32,0,.5.12.5.26s-.14.26-.4.46v1.58h7.5v1.72H295.7v-1.72h7.74v-2.44Zm-3.3,5.38c.24.14.36.26.36.34s-.14.24-.4.24a30.77,30.77,0,0,1-4.36,4.54l-1.72-1.1a22.22,22.22,0,0,0,4.84-4.84Zm11,3.56-1.72,1.32a26.68,26.68,0,0,1-4.36-4.84l1.4-.86A18.9,18.9,0,0,0,312.88,266.26Z"/><path class="cls-1" d="M330.54,258v7.58h-9a12,12,0,0,1-.68,1.64h11.4a33.54,33.54,0,0,1-.46,5,3.63,3.63,0,0,1-1.18,2.24,7,7,0,0,1-3.12.82l-1-1.8,2-.24A1.73,1.73,0,0,0,330,272a16.53,16.53,0,0,0,.32-3.18h-2a10.68,10.68,0,0,1-1.88,3.32,15.9,15.9,0,0,1-3.76,2.92l-1.64-1.1a13.08,13.08,0,0,0,3.7-2.52,9.65,9.65,0,0,0,1.74-2.62H324a8,8,0,0,1-1.82,2.54,15.62,15.62,0,0,1-3.74,2.38l-1.58-1.1a13.13,13.13,0,0,0,3.7-2,8.09,8.09,0,0,0,1.62-1.86h-2.4a12.22,12.22,0,0,1-2.52,2.18l-1.64-1.1a10,10,0,0,0,2.8-2.16,8.55,8.55,0,0,0,1.28-2.14h-1.82V258Zm-1.72,3.06v-1.48H319.6v1.48Zm0,1.4H319.6v1.56h9.22Z"/><path class="cls-1" d="M342.64,259V270.7h-4.76v1.56h-1.72V259ZM341,264.14v-3.52h-3.12v3.52Zm0,4.92v-3.44h-3.12v3.44Zm3.14-11.24h8.28v15.54A1.65,1.65,0,0,1,351,275a8.32,8.32,0,0,1-2.24.3l-.7-1.72,1.86,0c.52,0,.8-.26.8-.74v-3.36h-5.18c-.08.44-.18.84-.26,1.24a15.52,15.52,0,0,1-1.76,4.62l-1.7-.86a13.51,13.51,0,0,0,1.74-4,22.89,22.89,0,0,0,.6-5.18v-7.42Zm6.56,10.08v-3.6h-4.84v.94c0,.92-.06,1.82-.14,2.66Zm0-5.16v-3.36h-4.84v3.36Z"/><path class="cls-1" d="M358,269.6q.24.06.24.24a.69.69,0,0,1-.32.48,23.72,23.72,0,0,1-1.16,4.06l-1.64-.54a11,11,0,0,0,.72-1.84,23,23,0,0,0,.6-2.86ZM360.5,258c.18.1.28.18.28.26s-.12.28-.32.4l-2.3,2.62,1.7,1.16,1.7-2.14,1.28.84a.41.41,0,0,1,.2.32c0,.12-.14.2-.4.24l-4,4.56c.82-.08,1.62-.16,2.4-.28q-.18-.57-.36-1.08l1.56-.3a20.28,20.28,0,0,1,1,3.66l-1.56.32c-.1-.44-.2-.84-.28-1.22l-1.22.18v7.76h-1.64V267.8l-2.42.32c-.14.22-.26.32-.38.32s-.2-.08-.2-.26l-.36-1.62c.5,0,1-.06,1.48-.1l2.2-2.78q-1.65-1.17-3.6-2.28l1-1.24.56.34,2.34-3.16Zm2.7,15.18-1.56.32a39.35,39.35,0,0,0-.94-4.06l1.56-.32A28.63,28.63,0,0,1,363.2,273.2ZM373,258.9v16.18h-1.65v-1.8h-6.18v1.8H363.5V258.9Zm-5.63,6.5v-5h-2.2v5Zm0,6.4v-5h-2.2v5Zm1.64-6.4h2.34v-5H369Zm2.34,6.4v-5H369v5Z"/><path class="cls-1" d="M107.3,436.7c.24,0,.36.12.36.26s-.14.3-.38.46l-.6,3.06H108V442h-2.1v1.64c0,.14,0,.26,0,.38l2-.46.16,1.56-2.36.54a13.16,13.16,0,0,1-.44,1.7,9,9,0,0,1-1.82,3.14l-1.72-.86a7.5,7.5,0,0,0,1.82-2.62c.12-.32.22-.64.3-.94l-2,.44L101.8,445l2.34-.54c0-.28,0-.54,0-.78V442h-2.5v-1.56h3.4l.88-4.08Zm-2.84,2.68-1.32.78c-.36-1-.76-2-1.18-3l1.42-.7C103.78,437.48,104.14,438.44,104.46,439.38Zm1.28-7.14c.28,0,.44.12.44.26s-.1.22-.3.4v1.4h1.78v1.56h-5.54V434.3h2v-2.18Zm3.68,4.56c0-1.32,0-2.86,0-4.62l1.42.08c.24,0,.38.08.38.16a.73.73,0,0,1-.24.32c0,1.52,0,2.86,0,4.06h2.46a94.72,94.72,0,0,1-.3,9.92,5.17,5.17,0,0,1-.78,2.72,2.75,2.75,0,0,1-2.2.8l-.7-1.56c1,0,1.62-.16,1.82-.48a4.25,4.25,0,0,0,.42-1.76,78.79,78.79,0,0,0,.26-8.08h-1c-.08,1.64-.18,3-.32,4a25.06,25.06,0,0,1-.86,4.16,14.47,14.47,0,0,1-1.68,3.7l-1.56-.94a14.18,14.18,0,0,0,1.82-3.54,26.07,26.07,0,0,0,.86-4.22c.08-.72.14-1.78.2-3.18H108V436.8Zm8.26-4.48c.3,0,.46.12.46.26s-.12.22-.32.4v1.32h2.12v1.56h-6V434.3h2.18v-2.12Zm2,4.52c.24,0,.36.14.36.28s-.14.3-.38.46l-.78,2.82h1.16V442H117.9v2.26h1.72v1.56H117.9v4.7h-1.72v-4.7h-2v-1.56h2V442h-2.26V440.4h3.36l1.1-3.84Zm-2.92,2.92-1.48.32a22.7,22.7,0,0,0-.94-3l1.5-.32A18.52,18.52,0,0,1,116.8,439.76Z"/><path class="cls-1" d="M128.12,435.4c.2.08.32.18.32.3s-.18.32-.54.48a12.82,12.82,0,0,1-4.6,6.64l-1.5-1.26a11.26,11.26,0,0,0,2.94-3,12.24,12.24,0,0,0,1.44-3.46Zm2.82,4.38c.26.08.4.18.4.3s-.16.26-.46.46a74.06,74.06,0,0,1-3.16,6.94c2.48-.14,4.86-.36,7.1-.68a32.69,32.69,0,0,0-2.24-3l1.34-1.1a38.5,38.5,0,0,1,4.68,6.4l-1.72,1.18c-.36-.72-.74-1.38-1.1-2l-11.32,1.34c-.24.32-.44.48-.62.48a.33.33,0,0,1-.38-.32l-.72-2.18c1,0,2,0,3-.08a34.89,34.89,0,0,0,1.52-3.26,43.72,43.72,0,0,0,1.88-5.26ZM134.7,433a10,10,0,0,0,1.78,5.2,18.9,18.9,0,0,0,3.6,3.4l-1.78,1.26a17.75,17.75,0,0,1-4-4.24,9.09,9.09,0,0,1-1.42-4h-4.78V433Z"/><path class="cls-1" d="M156.8,437.42V439h-5.48L149,441.52q2.7-.12,5.28-.3c-.36-.32-.7-.62-1-.9l1.24-1a23.67,23.67,0,0,1,3.92,3.68l-1.58,1c-.38-.48-.76-.92-1.14-1.36-1.06.1-2.34.2-3.86.32v2h5.48v1.56H151.8v1.8h8v1.64H142v-1.64h8v-1.8H144.3v-1.56H150v-1.84c-1.5.12-3.16.24-5,.36-.14.22-.28.32-.4.32s-.2-.1-.22-.3l-.4-1.74c.9,0,1.8-.06,2.7-.1l2.44-2.64H145v-1.56Zm-5-5.1c.32,0,.5.12.5.26s-.14.26-.4.46v1.1h7.34v4.14h-1.78v-2.5H144.22v2.5h-1.78v-4.14H150v-2Z"/><path class="cls-1" d="M164.46,433.2h13.92v15a1.73,1.73,0,0,1-1.52,1.72,9.39,9.39,0,0,1-2.32.32l-.7-1.8,1.92,0c.54,0,.82-.26.82-.74v-3.52h-4.46v5.32h-1.8v-5.32H165.9c-.08.44-.16.84-.24,1.24a17,17,0,0,1-1.82,4.78l-1.8-.94a13.34,13.34,0,0,0,1.8-4.16,23.51,23.51,0,0,0,.62-5.38V433.2Zm5.86,9.38v-3.12h-4.06v.22a27,27,0,0,1-.16,2.9Zm0-4.68v-3.06h-4.06v3.06Zm1.8,0h4.46v-3.06h-4.46Zm0,4.68h4.46v-3.12h-4.46Z"/><path class="cls-1" d="M186.68,432.78c.18.1.28.18.28.26a.46.46,0,0,1-.3.4l-2,2.7,1.14.92,1.62-2.14,1.28.84a.48.48,0,0,1,.2.34c0,.12-.14.2-.4.24l-3.62,4.38c.92-.08,1.84-.2,2.72-.34-.16-.48-.34-1-.5-1.4l1.56-.3a22.19,22.19,0,0,1,1.18,4l-1.56.32c-.1-.42-.2-.84-.3-1.24l-1.42.24v8.34h-1.64v-8.08c-.72.12-1.52.22-2.36.34-.12.22-.26.32-.38.32s-.18-.08-.18-.28l-.36-1.6c.44,0,.88-.06,1.28-.1l1.88-2.52c-1.08-.92-2.06-1.7-2.94-2.38l.94-1.26c.22.16.44.32.66.46l1.92-3.1Zm-2.36,11.06c.14,0,.22.1.22.22s-.12.3-.32.48a31,31,0,0,1-.92,4.36l-1.58-.54a10.87,10.87,0,0,0,.6-1.92,27.55,27.55,0,0,0,.5-3Zm5.22,3.58-1.56.32a33.39,33.39,0,0,0-1-4.06l1.56-.32A24.61,24.61,0,0,1,189.54,447.42Zm8.4-13c-.64.12-1.28.24-1.92.34,0,2,0,3.72.08,5.06h3.68v1.56h-3.62c0,.52.06.94.1,1.28a12.32,12.32,0,0,0,1,4.12c.36.88.66,1.32.88,1.32s.38-.48.7-1.48l1.24.94a9.55,9.55,0,0,1-.7,1.88c-.32.56-.68.86-1.08.86-.66,0-1.32-.54-2-1.6a12.41,12.41,0,0,1-1.56-4.88c-.08-.68-.16-1.5-.2-2.44h-2.84v6.32q1.56-.36,3.06-.84v1.4c-1.14.42-2.92,1-5.32,1.72-.14.2-.26.32-.38.32s-.22-.1-.22-.28l-.42-1.68c.56-.08,1.1-.16,1.64-.28V433.44l1.16.56q1.71-.18,3.3-.42a23,23,0,0,0,3.68-.92l1.14,1.24a.57.57,0,0,1,.18.4c0,.12-.06.16-.16.16l-.46-.14A5.54,5.54,0,0,0,197.94,434.44Zm-3.56.62-2.66.36v4.42h2.76C194.42,438.44,194.38,436.84,194.38,435.06Z"/><circle class="cls-1" cx="314.22" cy="147.69" r="89.12"/><path class="cls-11" d="M374.81,180.28a66.32,66.32,0,0,1-121.35,0q-.86-27.33.58-54.68.79-15.11,2.28-30.23,16-2,32-2.84a473.35,473.35,0,0,1,51.65,0q16,.87,32,2.84,1.49,15.12,2.28,30.23Q375.66,152.94,374.81,180.28Z"/><path class="cls-12" d="M369,190.81a66.28,66.28,0,0,1-109.67,0,653.54,653.54,0,0,1,2-90.58,466.76,466.76,0,0,1,105.67,0A653.68,653.68,0,0,1,369,190.81Z"/><path class="cls-13" d="M349,163.35a610.86,610.86,0,0,1-69.79,0,9.41,9.41,0,0,1-8.82-8.22,155.57,155.57,0,0,1,0-38.45,9.41,9.41,0,0,1,8.82-8.23,610.86,610.86,0,0,1,69.79,0,9.41,9.41,0,0,1,8.82,8.23,155.57,155.57,0,0,1,0,38.45A9.41,9.41,0,0,1,349,163.35Z"/><path class="cls-14" d="M314.13,158.4c-11.46,0-23.09-.33-34.55-1a3.46,3.46,0,0,1-3.26-3,151.51,151.51,0,0,1,0-37,3.46,3.46,0,0,1,3.26-3c11.46-.66,23.09-1,34.55-1s23.1.33,34.56,1a3.46,3.46,0,0,1,3.26,3,151.51,151.51,0,0,1,0,37,3.46,3.46,0,0,1-3.26,3C337.23,158.07,325.6,158.4,314.13,158.4Z"/><path class="cls-14" d="M331.52,178.54v3.81a4.68,4.68,0,0,1-.14,1.14,4.58,4.58,0,0,1-4.43,3.44H281.1a4.58,4.58,0,0,1-4.43-3.44,4.68,4.68,0,0,1-.14-1.14v-3.81a4.48,4.48,0,0,1,.12-1A4.58,4.58,0,0,1,281.1,174H327a4.58,4.58,0,0,1,4.45,3.53A4.48,4.48,0,0,1,331.52,178.54Z"/><path class="cls-15" d="M291.64,143.52a1.18,1.18,0,0,1,.05-.29l4.86-15.94c.29-.91,1.46-1.36,2.66-1.36s2.38.45,2.67,1.36l4.89,15.94a2,2,0,0,1,.05.29c0,1-1.49,1.67-2.61,1.67-.66,0-1.18-.21-1.34-.75l-.89-3.27h-5.51l-.89,3.27c-.15.54-.68.75-1.33.75C293.13,145.19,291.64,144.49,291.64,143.52Zm9.48-5.49-1.91-7-1.9,7Z"/><path class="cls-15" d="M318,126.09c.86,0,1.23.94,1.23,1.8s-.44,1.86-1.23,1.86h-3.6v14.19c0,.84-1,1.25-2,1.25s-2-.41-2-1.25V129.75h-3.61c-.78,0-1.22-.86-1.22-1.86s.36-1.8,1.22-1.8Z"/><path class="cls-15" d="M330.05,138.42a1.49,1.49,0,0,1-1.36.76,1.32,1.32,0,0,1-1.28-.76l-2.48-4.54v10.06c0,.83-1,1.25-2,1.25s-2-.42-2-1.25V128.13a1.89,1.89,0,0,1,2-2c1.46,0,2.09.16,3.16,2l2.69,4.7,2.69-4.7c1.07-1.88,1.7-2,3.16-2a1.88,1.88,0,0,1,2,2v15.81c0,.83-1,1.25-2,1.25s-2-.42-2-1.25v-9.8Z"/><path class="cls-13" d="M326.11,202.56H270.72l5.81-25.06,55,9.55Z"/><path class="cls-16" d="M331.52,178.54v3.81a4.68,4.68,0,0,1-.14,1.14H276.67a4.68,4.68,0,0,1-.14-1.14v-3.81a4.48,4.48,0,0,1,.12-1H331.4A4.48,4.48,0,0,1,331.52,178.54Z"/><path class="cls-16" d="M276.53,182.78h55V198.3h-55Z"/><path class="cls-17" d="M276.53,180.32h55v15.51h-55Z"/><path class="cls-18" d="M327.19,180.32v6.81a4.37,4.37,0,0,0-4.36,4.37H285.22a4.37,4.37,0,0,0-4.36-4.37v-6.81Z"/><path class="cls-17" d="M294.74,180.32a9.29,9.29,0,0,0,18.57,0"/><path class="cls-17" d="M285.51,180.32a2.47,2.47,0,0,0,4.94,0"/><path class="cls-17" d="M317.6,180.32a2.47,2.47,0,0,0,4.94,0"/><path class="cls-14" d="M362.13,106.29a3.31,3.31,0,1,1-3.3-3.3A3.3,3.3,0,0,1,362.13,106.29Z"/><polygon class="cls-11" points="341.16 175.8 338.81 191.18 363.92 191.18 357.29 175.8 341.16 175.8"/><g class="cls-19"><path d="M355.52,178.76H343.16a.5.5,0,0,1-.5-.5.5.5,0,0,1,.5-.5h12.36a.5.5,0,0,1,.5.5A.5.5,0,0,1,355.52,178.76Z"/></g><g class="cls-20"><path d="M357.26,182.05h-14.1a.5.5,0,0,1,0-1h14.1a.5.5,0,0,1,0,1Z"/></g><path class="cls-2" d="M350.17,210.11A28.14,28.14,0,1,1,378.3,182,28.16,28.16,0,0,1,350.17,210.11Zm0-55.27A27.14,27.14,0,1,0,377.3,182,27.16,27.16,0,0,0,350.17,154.84Z"/><circle class="cls-1" cx="149.73" cy="321.34" r="89.12"/><path class="cls-21" d="M94.46,295.63v14a3.07,3.07,0,0,0,3.07,3.07H134a3.07,3.07,0,0,0,3.07-3.07v-14a3.06,3.06,0,0,0-3.07-3.07H97.53A3.06,3.06,0,0,0,94.46,295.63Z"/><path class="cls-22" d="M94.46,295.63v14a3.07,3.07,0,0,0,3.07,3.07h26V292.56h-26A3.06,3.06,0,0,0,94.46,295.63Z"/><path class="cls-23" d="M96.19,279.66h0l1-.28a2.23,2.23,0,0,1,.37,0h45a10.13,10.13,0,0,1,10.13,10.13v6.14a3.07,3.07,0,0,1-3.07,3.07H94.46V282.43A3.07,3.07,0,0,1,96.19,279.66Z"/><path class="cls-24" d="M148.71,264.4a3.07,3.07,0,1,1,1.7,5.89l-31.18,9.07H97.53a2.23,2.23,0,0,0-.37,0Z"/><path class="cls-23" d="M94.46,306.59V347a3.06,3.06,0,0,0,3.07,3.07h52a3.07,3.07,0,0,0,3.07-3.07V317a10.43,10.43,0,0,0-10.44-10.43Z"/><path class="cls-21" d="M94.46,365.69a3.06,3.06,0,0,0,3.07,3.07h52a3.07,3.07,0,0,0,3.07-3.07V344H94.46Z"/><path class="cls-22" d="M94.46,344v21.74a3.06,3.06,0,0,0,3.07,3.07h26V344Z"/><path class="cls-25" d="M116,356.35a3.08,3.08,0,0,1,3.07-3.07h10a3.07,3.07,0,1,1,0,6.14H119A3.07,3.07,0,0,1,116,356.35Z"/><path class="cls-26" d="M116,356.35a3.07,3.07,0,0,0,3.07,3.07h4.52v-6.14H119A3.08,3.08,0,0,0,116,356.35Z"/><path class="cls-24" d="M116,328.34a3.07,3.07,0,0,1,3.07-3.07h10a3.07,3.07,0,1,1,0,6.13H119A3.07,3.07,0,0,1,116,328.34Z"/><path class="cls-27" d="M116,328.34A3.07,3.07,0,0,0,119,331.4h4.52v-6.13H119A3.07,3.07,0,0,0,116,328.34Z"/><path class="cls-28" d="M157.76,276.88s16.62-4.16,23.61-13.89l29.9,32.86s-8,21.85-27.24,14.62Z"/><path class="cls-29" d="M196,325.27s10.86,2.77,21.28,1.8l-4.87,28s-9.54,5.33-21.95-4.63Z"/><polygon class="cls-30" points="157.76 369.48 168.01 361.26 207.3 366.79 199.1 375.44 157.76 369.48"/></g></g></svg>