<svg xmlns="http://www.w3.org/2000/svg" viewBox="0 0 283.37 230.5"><defs><style>.cls-1{fill:#005b52;}</style></defs><g id="圖層_2" data-name="圖層 2"><g id="圖層_1-2" data-name="圖層 1"><polygon class="cls-1" points="54.14 83 73.29 56.46 68.09 95.48 84.69 95.54 90.03 55.44 107.53 84.13 127.45 66.96 105.66 43.24 115.65 43.29 117.77 22.51 94.44 22.39 97.41 0.07 80.81 0 77.83 22.3 54.52 22.18 52.4 42.96 62.74 43.02 38.26 71.38 54.14 83"/><polygon class="cls-1" points="59.82 141.88 70.55 136.97 60.02 115.86 66.91 115.75 71.16 101.2 53.16 100.75 54.96 87.22 42.31 87.17 40.55 100.43 20.65 99.93 18.99 116.51 27.07 116.38 3.74 143.41 19.62 155.04 36.37 131.82 31.25 170.24 43.9 170.28 50.53 120.47 59.82 141.88"/><polygon class="cls-1" points="185.95 110.25 198.79 109.36 200.65 95.42 184.36 96.27 187.04 76.13 172.4 76.07 169.61 97.03 148.41 98.13 146.43 112.99 159.64 112.07 140.95 136.07 120.16 113.43 128.15 113.34 132.41 102.4 114.43 102.06 116.2 88.74 103.56 88.69 101.81 101.82 81.9 101.45 80.24 113.91 91.88 113.77 64.99 144.93 80.86 156.55 97.61 133.33 92.5 171.75 105.14 171.8 110.24 133.55 124.62 157.15 138.56 145.13 145.24 150 166.3 121.91 159.48 173.08 174.12 173.14 180.63 124.31 186.26 137.3 196.99 132.39 185.95 110.25"/><polygon class="cls-1" points="193.67 139.09 203.34 146.13 224.39 118.04 217.57 169.21 232.21 169.27 237.99 125.91 254.74 153.38 274.66 136.22 247.07 106.17 256.88 105.49 258.74 91.55 242.45 92.39 245.13 72.26 230.49 72.2 227.7 93.16 206.5 94.26 204.52 109.11 217.73 108.2 193.67 139.09"/><path class="cls-1" d="M76,216.46a42.83,42.83,0,0,0-6.15-6.14,75,75,0,0,0,7.27-7.78l-4.3-1.85a57.16,57.16,0,0,1-3.72,4.63l1-6.2,8.21.08.76-4.94-3.41,0L79.55,192a16.8,16.8,0,0,0-3.47-5.16l-4,2.14a19.87,19.87,0,0,1,3.1,5.24l-4.39,0L72,186.66l-5.25,0-1.16,7.52L56.78,194,56,199l8.79.08L63,210.79c-3.89,2.5-7.85,4.91-10.56,6.43l1.75,4.37c2.38-1.47,5.22-3.26,7.92-5l-1,6.56a.9.9,0,0,1-1,.9c-.63,0-2.64,0-4.47-.14a19,19,0,0,1,.8,4.73c3.27,0,5.49,0,7.14-.84s2.42-2,2.82-4.6l1.25-8.1a37.74,37.74,0,0,1,4.11,4.8Z"/><path class="cls-1" d="M60.32,201.11l-4.23,1.77a33.68,33.68,0,0,1,2.53,7.78l4.53-2A28.28,28.28,0,0,0,60.32,201.11Z"/><path class="cls-1" d="M97.28,200.25l.77-5L87,195.16c.92-2.49,1.75-5,2.51-7.55l-5.22-.78c-2.24,8.1-5.32,15.82-9.73,20.54a25,25,0,0,1,3.38,4,22,22,0,0,0,2.28-2.87,52.64,52.64,0,0,0,1.62,8.18,26.41,26.41,0,0,1-11.41,7.82,15.33,15.33,0,0,1,3.3,4.57A29.18,29.18,0,0,0,83.81,222a21.38,21.38,0,0,0,5.64,7.13,25.89,25.89,0,0,1,4.64-4.76,18.52,18.52,0,0,1-6.35-7.45,60,60,0,0,0,7.07-16.72ZM85.59,211.06a48.55,48.55,0,0,1-1.45-9.22c.27-.59.53-1.13.8-1.71l5.07.05A52.68,52.68,0,0,1,85.59,211.06Z"/><path class="cls-1" d="M125.8,199.58l4.32-.91a42.82,42.82,0,0,0-.36-5.49l-4.29.68a41.43,41.43,0,0,1,.11,5.72l-5.16-.05,2.64-.79c-.19-1.37-.8-3.55-1.21-5.23l-4.21,1.09a43.23,43.23,0,0,1,.85,4.91l-2.78,0-.65,4.21,5.3.06c-.2.67-.36,1.4-.51,2.12l-6-.06-.67,4.35,5.38.05c-1.92,5.79-5.1,11.56-11.59,15.17a12.38,12.38,0,0,1,2.86,3.93,28.56,28.56,0,0,0,9.83-9.88,15.18,15.18,0,0,0,2.84,3.7,31.29,31.29,0,0,1-7.69,2.42,14.89,14.89,0,0,1,2.25,4,36,36,0,0,0,9-3.44A29.74,29.74,0,0,0,135,229.7a21.93,21.93,0,0,1,3.81-4.36,30.82,30.82,0,0,1-8.23-2.53,27.32,27.32,0,0,0,6.65-9.6l-2.69-1.2-.88.12-10.62-.1c.22-.59.4-1.18.63-1.77l16.36.17.67-4.35-15.82-.16c.2-.72.35-1.4.5-2.12l14.35.14.65-4.21-4.26,0c1.44-1.75,3.06-3.82,4.58-5.8l-4.71-1.5a60.11,60.11,0,0,1-4.62,7.26ZM130.91,216a18,18,0,0,1-4,4.49,13.41,13.41,0,0,1-3.79-4.57Z"/><path class="cls-1" d="M112.77,212.42l.07-4.8-3.92.95,1.23-8,4,0,.77-5-4,0,1.31-8.51-4.88-.05L106,195.57l-4.71,0-.76,5,4.7.05-1.43,9.28c-2,.48-3.91.91-5.49,1.21v5.31l4.7-1.31-1.32,8.56c-.09.59-.35.76-.88.76a36.61,36.61,0,0,1-3.67-.08,18.71,18.71,0,0,1,.57,5c2.91.08,4.87-.09,6.35-.93s2.13-2.2,2.52-4.7l1.53-10C109.68,213.3,111.23,212.86,112.77,212.42Z"/><path class="cls-1" d="M139.34,187.51c-5.7,1.17-15,1.76-22.89,2a12.78,12.78,0,0,1,.51,4A180.15,180.15,0,0,0,136,192.38c2.06-.25,3.94-.51,5.7-.8Z"/><path class="cls-1" d="M151.94,198.43c-1.85,5.88-5.32,13.79-9.61,18.32a37.86,37.86,0,0,1,4.77,2.86c4.49-4.94,8.21-13.34,10.77-20.07Z"/><path class="cls-1" d="M174.13,200.15c2.52,6.65,4.61,15.2,4.67,20.69l6.18-2.26c-.25-5.67-2.66-13.9-5.3-20.37Z"/><path class="cls-1" d="M159.89,223.14c-.13.86-.54,1.18-1.53,1.17s-4.31,0-7.2-.17a21.67,21.67,0,0,1,1.24,5.64c4.35,0,7.43-.11,9.67-.95s3.1-2.32,3.61-5.63l5.38-34.92-5.78-.05Z"/><path class="cls-1" d="M204.62,212.29a13.69,13.69,0,0,0-2-9.77c1.87-3.76,4.32-9,6.2-13.13l-3.41-2.22-.85.24-10.4-.11-6.66,43.15,4.94.05,5.86-38,3.74,0c-1.32,3.29-2.94,7.54-4.36,10.53a11.69,11.69,0,0,1,2,8.56,3.93,3.93,0,0,1-1.19,2.7,2.71,2.71,0,0,1-1.41.42c-.53,0-1.2,0-2.05-.06a11.34,11.34,0,0,1,.49,4.9,20.42,20.42,0,0,0,3.08-.07,6.56,6.56,0,0,0,2.9-1C203.21,217.41,204.14,215.43,204.62,212.29Z"/><path class="cls-1" d="M233.46,187.26l-5.23-1.61a57.67,57.67,0,0,1-5.52,7.47l-4.32-.05,2.56-1.62a21,21,0,0,0-4.81-5.87l-4.57,2.53a24.84,24.84,0,0,1,3.8,4.93L207.8,193l-.77,4.94,8.35.08a45.06,45.06,0,0,1-10.71,5.28,28.13,28.13,0,0,1,2.68,4.1,56.76,56.76,0,0,0,8.42-4.48,17.7,17.7,0,0,1,1.28,2.63,46.85,46.85,0,0,1-11.66,5.85,16.8,16.8,0,0,1,2.39,4.1A65.21,65.21,0,0,0,218,209.61c.15.87.21,1.75.28,2.52-3.83,3.36-10.69,6.69-16.19,8.13a15.33,15.33,0,0,1,2.73,4.06,59.59,59.59,0,0,0,13.1-6.76c-.51,3-1.44,5.32-2.45,6.23a2.84,2.84,0,0,1-2.75,1.33,35,35,0,0,1-4.18-.28,11.32,11.32,0,0,1,.55,5.15c1.33.11,2.86.12,3.87.13a7.52,7.52,0,0,0,6-2.41c3.1-2.64,5.4-10.72,4.28-18.44l.21-.09c1,5.44,3,11.33,5.35,14.84a22.87,22.87,0,0,1,4.16-3.59c-2.31-3.08-4.32-8.44-5.18-13.44,2.13-1.05,4.29-2.29,6.2-3.48l-3-3.81a79.72,79.72,0,0,1-8.75,5.39,16.74,16.74,0,0,0-2.44-5.07c.82-.62,1.58-1.24,2.31-1.91l12.76.12.77-5-7.1-.07C230.08,191.44,231.84,189.38,233.46,187.26Z"/><rect class="cls-1" x="248.15" y="209.83" width="35.22" height="2"/><rect class="cls-1" y="209.83" width="35.22" height="2"/></g></g></svg>