<svg xmlns="http://www.w3.org/2000/svg" xmlns:xlink="http://www.w3.org/1999/xlink" viewBox="0 0 468.65 301.82"><defs><style>.cls-1{fill:none;}.cls-2{fill:#62938b;}.cls-3{opacity:0.75;}.cls-4{clip-path:url(#clip-path);}.cls-5{fill:#9cd578;}.cls-6{fill:#9dd57a;}.cls-7{fill:#9ed57c;}.cls-8{fill:#9fd67d;}.cls-9{fill:#9fd67f;}.cls-10{fill:#a0d680;}.cls-11{fill:#a1d682;}.cls-12{fill:#a2d683;}.cls-13{fill:#a2d785;}.cls-14{fill:#a3d786;}.cls-15{fill:#a4d787;}.cls-16{fill:#a4d788;}.cls-17{fill:#a5d789;}.cls-18{fill:#a5d78a;}.cls-19{fill:#a6d78b;}.cls-20{fill:#a6d88c;}.cls-21{fill:#a6d88d;}.cls-22{fill:#a7d88e;}.cls-23{fill:#a7d88f;}.cls-24{fill:#a8d88f;}.cls-25{fill:#a8d890;}.cls-26{fill:#e8e696;}.cls-27{opacity:0.7;}.cls-28{fill:#f5db6e;}.cls-29{fill:#ececa9;}.cls-30{fill:#473629;}.cls-31{fill:#ecd89e;}.cls-32{fill:#986743;}.cls-33{fill:#509cde;}.cls-34{fill:#e19730;}.cls-35{fill:#fff;}.cls-36{fill:#f1e84d;}.cls-37{fill:#e7da3d;}.cls-38{fill:#e7e485;}.cls-39{fill:#d8cc35;}.cls-40{fill:#eb6060;}.cls-41{fill:#514c43;}.cls-42{fill:#efffff;}.cls-43{fill:#e0ebeb;}.cls-44{clip-path:url(#clip-path-2);}.cls-45{fill:#ee9b33;}.cls-46{fill:#416f9e;}.cls-47{fill:#725541;}.cls-48{opacity:0.5;}.cls-49{fill:#97dcd5;}.cls-50{fill:#e8c980;}</style><clipPath id="clip-path" transform="translate(0 0)"><circle class="cls-1" cx="280.09" cy="131.06" r="131.06"/></clipPath><clipPath id="clip-path-2" transform="translate(0 0)"><circle class="cls-1" cx="263.14" cy="161.42" r="16.95"/></clipPath></defs><g id="圖層_2" data-name="圖層 2"><g id="圖層_1-2" data-name="圖層 1"><path class="cls-2" d="M121.8,163.87s6.29-26.8,42-26.22,53,6.57,65.49,31Z" transform="translate(0 0)"/><g class="cls-3"><g class="cls-4"><rect class="cls-5" x="149.02" height="262.13"/><rect class="cls-5" x="149.02" width="10.91" height="262.13"/><rect class="cls-6" x="159.93" width="10.91" height="262.13"/><rect class="cls-7" x="170.84" width="10.91" height="262.13"/><rect class="cls-8" x="181.74" width="10.91" height="262.13"/><rect class="cls-9" x="192.65" width="10.91" height="262.13"/><rect class="cls-10" x="203.56" width="10.91" height="262.13"/><rect class="cls-11" x="214.46" width="10.91" height="262.13"/><rect class="cls-12" x="225.37" width="10.91" height="262.13"/><rect class="cls-13" x="236.28" width="10.91" height="262.13"/><rect class="cls-14" x="247.19" width="10.91" height="262.13"/><rect class="cls-15" x="258.09" width="10.91" height="262.13"/><rect class="cls-16" x="269" width="10.91" height="262.13"/><rect class="cls-17" x="279.91" width="10.91" height="262.13"/><rect class="cls-18" x="290.81" width="10.91" height="262.13"/><rect class="cls-19" x="301.72" width="10.91" height="262.13"/><rect class="cls-20" x="312.63" width="10.91" height="262.13"/><rect class="cls-21" x="323.53" width="10.91" height="262.13"/><rect class="cls-22" x="334.44" width="10.91" height="262.13"/><rect class="cls-22" x="345.35" width="10.91" height="262.13"/><rect class="cls-23" x="356.26" width="10.91" height="262.13"/><rect class="cls-24" x="367.16" width="10.91" height="262.13"/><rect class="cls-25" x="378.07" width="10.91" height="262.13"/><rect class="cls-25" x="388.98" width="10.91" height="262.13"/><rect class="cls-25" x="399.88" width="10.91" height="262.13"/><rect class="cls-25" x="410.79" width="0.36" height="262.13"/></g></g><path class="cls-26" d="M140.15,156.13s-22.74,9-20.62,145.69h119.7S248,198.43,206.55,156.13Z" transform="translate(0 0)"/><polygon class="cls-26" points="206.55 156.13 251.92 177.81 235.09 206.7 206.55 156.13"/><g class="cls-27"><circle class="cls-28" cx="35.49" cy="150.16" r="35.49"/></g><polygon class="cls-29" points="140.15 156.13 154.12 154.54 196.12 152.47 206.55 156.13 184.12 215.66 140.15 156.13"/><path class="cls-30" d="M167.44,36.41c3.54,2,28.41,1.76,39.2,13.91s10.8,12.14,13.58,28.6c0,0,.86,24.29-4.87,28.34l-77.26,2.65a50.89,50.89,0,0,1-5.74-24.58c.34-14.17,10.8-38.8,23.62-42.84" transform="translate(0 0)"/><path class="cls-31" d="M143.49,73s-3.15,22.49-2.7,32.39c0,0-6.75-3.6-6.75,3.15s4.72,6.74,4.72,6.74,7.43,27.89,28.57,30.14,34.64,6.3,44.53-26.54c0,0,10.35-8.09,6.75-13.49s-7.65.9-7.65.9,5.85-17.55-.45-33.29Z" transform="translate(0 0)"/><path class="cls-30" d="M135.69,74.84c16.58,14.29,36.35,11.16,49.9,4,14.95-7.86,27-1.9,32.23-2.64,0,0-2-12.46-5.85-16.31S138.76,67,135.69,74.84Z" transform="translate(0 0)"/><path class="cls-31" d="M160.53,142.29v13a49.33,49.33,0,0,0,23.59,2.16c9.47-1.57,9.43-3.79,9.43-3.79l-1.62-11.37Z" transform="translate(0 0)"/><path class="cls-30" d="M157.42,91.47l-.32-1c.29-.09,7-2.28,12,0l-.42.91C164,89.31,157.49,91.45,157.42,91.47Z" transform="translate(0 0)"/><path class="cls-30" d="M189.56,92l-.32-1c.28-.09,7-2.28,12,0l-.42.91C196.16,89.81,189.62,92,189.56,92Z" transform="translate(0 0)"/><circle class="cls-30" cx="166.86" cy="101.16" r="3.79"/><circle class="cls-30" cx="195.2" cy="101.16" r="3.79"/><path class="cls-32" d="M170.29,124.7h24.34s-3,12.77-12.17,12.73S170.29,124.7,170.29,124.7Z" transform="translate(0 0)"/><rect class="cls-33" x="355.66" y="103.4" width="22.82" height="4.58" rx="1.93"/><rect class="cls-33" x="364.78" y="94.28" width="4.58" height="22.82" rx="1.93"/><rect class="cls-34" x="229.18" y="126.6" width="10.93" height="2.19" rx="0.92"/><rect class="cls-34" x="229.18" y="126.6" width="10.93" height="2.19" rx="0.92" transform="translate(362.34 -106.94) rotate(90)"/><rect class="cls-34" x="82.62" y="71.76" width="13.94" height="2.8" rx="1.18"/><rect class="cls-34" x="82.62" y="71.76" width="13.94" height="2.8" rx="1.18" transform="translate(162.75 -16.43) rotate(90)"/><rect class="cls-33" x="20.95" y="150.16" width="18.56" height="3.73" rx="1.57"/><rect class="cls-33" x="28.37" y="142.75" width="3.73" height="18.56" rx="1.57"/><path class="cls-35" d="M270.44,93.27a17.67,17.67,0,1,1-17.67,17.67,17.69,17.69,0,0,1,17.67-17.67m0-1a18.67,18.67,0,1,0,18.67,18.67,18.67,18.67,0,0,0-18.67-18.67Z" transform="translate(0 0)"/><path class="cls-35" d="M289.11,223.77a12.71,12.71,0,1,1-12.7,12.7,12.71,12.71,0,0,1,12.7-12.7m0-1a13.71,13.71,0,1,0,13.7,13.7,13.71,13.71,0,0,0-13.7-13.7Z" transform="translate(0 0)"/><rect class="cls-33" x="238.28" y="27.35" width="230.37" height="49.91" rx="24.96"/><path class="cls-35" d="M284.42,45.48v1.33h-6.17v1h7.43v3.94H284V49.1h-5.79v4.24h-1.62V49.1h-5.79v2.76h-1.63V47.77h7.42v-1h-6.17V45.48Zm-.66,8.37v5.87h-5.51v.16c0,.64.17,1,.53,1h4.52a1.41,1.41,0,0,0,.8-.21,2.62,2.62,0,0,0,.47-1.22l1.69.53a2.67,2.67,0,0,1-.91,1.77,2.84,2.84,0,0,1-1.67.46h-5.2c-1.3,0-1.92-.48-1.92-1.41V59.72h-3.94v.82H271V53.85Zm-8.1-4V51h-3.85V49.85Zm0,1.93V52.9h-3.85V51.78Zm.9,4.37v-1h-3.94v1Zm0,2.32V57.35h-3.94v1.12Zm1.69-2.32h3.87v-1h-3.87Zm0,2.32h3.87V57.35h-3.87Zm4.9-8.62V51h-3.86V49.85Zm0,1.93V52.9h-3.86V51.78Z" transform="translate(0 0)"/><path class="cls-35" d="M302.4,45.93l1,.63c.11.08.19.17.19.25s-.16.36-.46.53l-5.34,5.11v.74H305v1.63h-7.2v5.06a2,2,0,0,1-.93,1.78c-.53.38-1.82.59-3.89.59l-.74-1.78h2.41c.83,0,1.29-.33,1.37-1V54.82h-8.1V53.19H296v-2.3l1.08.11,3.21-3.45h-11V45.91h12.16l.45-.13A.93.93,0,0,1,302.4,45.93Z" transform="translate(0 0)"/><path class="cls-35" d="M309.43,48.21v-3l1.45.11c.26,0,.41.08.41.19s-.11.25-.3.44v2.22h2.76v8.84a1.34,1.34,0,0,1-.76,1.38,3,3,0,0,1-1.18.25l-.59-1.48.72,0c.21,0,.32-.21.32-.57v-6.9H311V62.18h-1.56V49.71h-1.1V58.6h-1.5V48.21h2.6Zm13.36-1h-6.16v1.1h6.16v1.41h-6.16v1.12h6.16V52.3h-6.16v1.19H324V55h-4.54a12.63,12.63,0,0,0,1.05,2.32,16.51,16.51,0,0,0,2.22-1.57l1.16,1.19a.53.53,0,0,1,.11.29c0,.11-.19.15-.53.15-.7.42-1.42.8-2.16,1.16a11.76,11.76,0,0,0,2.77,2.62l-1.63,1.27a12.36,12.36,0,0,1-2.38-2.73,16.44,16.44,0,0,1-2.11-4.7h-1.31v4.85q1.32-.2,2.61-.48v1.43c-1.18.28-3,.68-5.49,1.18-.14.19-.27.3-.38.3s-.2-.09-.21-.28l-.38-1.66q1.14-.08,2.22-.24V55h-.89V53.49H315V45.78h7.79Z" transform="translate(0 0)"/><path class="cls-35" d="M340.69,50.66v7.13h-5.36v1.12h7.12v1.48h-7.12v1.94H333.7V60.39h-7.34V58.91h7.34V57.79h-5.42V50.66Zm-7.28-5v4.22h-5.87V45.7Zm-1.56,1.41H329.1v1.41h2.75Zm1.85,6.46V52.22h-3.78v1.35Zm0,1.4h-3.78v1.26h3.78Zm7.73-9.27v4.22h-6.1V45.7Zm-6.1,7.87h3.72V52.22h-3.72Zm3.72,1.4h-3.72v1.26h3.72Zm.82-7.86h-3v1.41h3Z" transform="translate(0 0)"/><path class="cls-35" d="M353.08,56.25l-.67-.82a2.78,2.78,0,0,0,1.12-1.75h-1.29V51.25h2.43v2.07A3.59,3.59,0,0,1,353.08,56.25Z" transform="translate(0 0)"/><path class="cls-35" d="M367.92,45.78c.1-.15.17-.23.23-.23l1.33,1.05-1.71,4.59A7.28,7.28,0,0,1,369,54.9a5.31,5.31,0,0,1-.78,3.06,2.31,2.31,0,0,1-2,1.1l-.52-1.35V62.4h-1.55V45.78h3.7Zm-.76,10.73a3.78,3.78,0,0,0,.32-1.76,7.19,7.19,0,0,0-1.27-3.4l1.39-4.16h-1.83V57.48A2,2,0,0,0,367.16,56.51Zm5.15-2.87v5.59a2.31,2.31,0,0,0,1.08,1.14,6.74,6.74,0,0,0,2.7.4c1.94,0,3.72-.08,5.34-.23l-.59,1.79h-4.75a9.22,9.22,0,0,1-2.81-.35,3.44,3.44,0,0,1-1.73-1.13,2.69,2.69,0,0,1-.38-.59l-1.46,1.61c-.1.19-.19.31-.31.31s-.21-.1-.26-.25l-.92-1.24a15.51,15.51,0,0,0,2.38-1.78V55.2h-1.33V53.64Zm-.08-2-1,1A17.14,17.14,0,0,0,369,50.74l1-1A13.42,13.42,0,0,1,372.23,51.63Zm.29-3.34-.95,1a19.05,19.05,0,0,0-2.24-1.86l1-1A12.88,12.88,0,0,1,372.52,48.29Zm2.22-2c.08-.38.15-.79.23-1.27l1.21.19c.27,0,.42.08.42.19s-.09.21-.28.38-.1.36-.14.51h5v1.18h-5.3a6.29,6.29,0,0,1-.43,1.08.06.06,0,0,0,0,0h5.3v1.12h-2.53v1h2.91v1.19h-7.58v-1c-.16.13-.29.27-.44.38l-1.12-1a11.88,11.88,0,0,0,1.75-1.61,6.89,6.89,0,0,0,.72-1.22h-2.17V46.29Zm5.87,6.46v5.93a1.26,1.26,0,0,1-1,1.33,5.07,5.07,0,0,1-1.48.23l-.51-1.41,1.1,0q.45,0,.45-.57v-.3h-4.31v2h-1.4v-7.2h7.12Zm-4-2v-1h-2a.53.53,0,0,0-.1.12,10.44,10.44,0,0,1-.89.91Zm2.6,4.08v-.89h-4.31v.89Zm0,2v-.9h-4.31v.9Z" transform="translate(0 0)"/><path class="cls-35" d="M388.86,46.73V59.5h-1.63v-1h-2.15v1.78h-1.63V46.73Zm-1.63,5.36V48.21h-2.15v3.88Zm0,5V53.42h-2.15v3.63Zm6.46-9.58V45l1.5.13c.26,0,.41.12.41.25s-.09.21-.28.38v1.69h4.6V49h-4.6v2.38h4.14V52.9h-2.07v1.92h2.68v1.56h-2.68v3.86a1.53,1.53,0,0,1-.72,1.38,5.76,5.76,0,0,1-3,.48L393,60.47h1.75c.61,0,1-.18,1-.52V56.38H389.6V54.82h6.16V52.9H390V51.35h3.65V49H389.6v-1.5Zm0,11.44L392.41,60a13.15,13.15,0,0,0-2-1.79l1.18-1.12A15.43,15.43,0,0,1,393.69,58.91Z" transform="translate(0 0)"/><path class="cls-35" d="M409.65,47.11V44.89l1.56.11c.28,0,.43.12.43.25s-.11.26-.3.45v1.41h7.2v1.56h-6.29a13.78,13.78,0,0,0,2.95,1.75,25.81,25.81,0,0,0,4.23,1.36l-1.71,1.56a18,18,0,0,1-3.57-1.67,13.05,13.05,0,0,1-2.81-2.22v4h4.46V60H405.34V53.42h4.31V49.48a19.23,19.23,0,0,1-3,2.34,16.4,16.4,0,0,1-3.78,1.6l-1.33-1.33a26.22,26.22,0,0,0,4.61-1.73,12.85,12.85,0,0,0,2.51-1.69h-6.31V47.11Zm9.19,13.74v1.48H402V60.85Zm-4.75-4.91V54.82h-7v1.12Zm0,1.33h-7v1.26h7Z" transform="translate(0 0)"/><path class="cls-35" d="M427.45,48.21v1.5h-6.53v-1.5Zm-.3,8.09v5.8h-1.63v-.82h-2.66v1h-1.64v-6Zm-.44-10.67V47h-5v-1.4Zm0,5.41v1.41h-5V51Zm0,2.68v1.41h-5V53.72Zm-1.19,6.16V57.71h-2.66v2.17Zm6.25-14.4c.19.05.28.13.28.22a.33.33,0,0,1-.15.21,4.44,4.44,0,0,0-.82,1.52l-.19.42h6.8a83.28,83.28,0,0,1-.4,10.79,4.91,4.91,0,0,1-1.08,3,4.14,4.14,0,0,1-3,.86l-.82-1.69c1.48,0,2.36-.17,2.62-.51a3.9,3.9,0,0,0,.65-1.92,76,76,0,0,0,.36-9h-5.91a20.69,20.69,0,0,1-1.44,2.3l-1.62-.89A20,20,0,0,0,430.27,45Zm2.37,6.23v7.12h-3.8v1.05h-1.56V51.71Zm-1.42,2.89V53.11h-2.38V54.6Zm0,2.83V55.94h-2.38v1.49Z" transform="translate(0 0)"/><polygon class="cls-33" points="255.72 66.33 251.93 85.89 268.78 76.82 255.72 66.33"/><path class="cls-36" d="M140.34,60.63s-3.57-33.83,31.43-36.48S208.41,56,208.41,56,175.6,74.9,140.34,60.63Z" transform="translate(0 0)"/><path class="cls-37" d="M208.2,54s3.5-17.57,16.51-15.73-1,31.4-55.41,27.68Z" transform="translate(0 0)"/><circle class="cls-37" cx="175.56" cy="24.01" r="1.93"/><ellipse class="cls-34" cx="177.63" cy="168.91" rx="4.83" ry="3.53"/><path class="cls-34" d="M179.46,168.91s9.32,29.28,31.17,26.72C210.63,195.63,203.92,172.51,179.46,168.91Z" transform="translate(0 0)"/><path class="cls-38" d="M140.15,156.13s-41.73,6.36-57.53,41.62l41.91,10.89Z" transform="translate(0 0)"/><path class="cls-2" d="M135.59,156.13s0,33.53-13.79,52.51L121.23,229s30-18.48,28.59-74.6Z" transform="translate(0 0)"/><circle class="cls-39" cx="174.3" cy="201.16" r="3.41"/><circle class="cls-39" cx="174.3" cy="215.66" r="3.41"/><path class="cls-34" d="M152.48,144.75s-13,23.59,18.41,24.77,40.7-10.61,29.29-23.08l-7.38,2,.75,5.24s-8.9,5.06-16.93,4.37a115,115,0,0,1-16.09-2.74v-7.63Z" transform="translate(0 0)"/><polygon class="cls-32" points="119.76 94.95 132.02 147.11 137.99 145.38 123.63 93.92 119.76 94.95"/><polygon class="cls-40" points="119.76 94.95 88.1 117.98 126.84 124.13 119.76 94.95"/><path class="cls-2" d="M206.55,156.13s-4.08,67.59,31.46,84.52c-.35-1,.39-3.77,0-6.86a40.35,40.35,0,0,0-2-8s-20.86-41.85-18.1-64.28Z" transform="translate(0 0)"/><path class="cls-31" d="M86.87,198.86S53.76,261.4,145.15,251.8a329.31,329.31,0,0,0,63-12.85l-12.78-19.73-69.91,8.87-.83,0c-6.42,0-11-6.28-9.46-12.5l2.2-8.86Z" transform="translate(0 0)"/><path class="cls-31" d="M277.53,201.16S309.37,174,280.09,174L263,186.26Z" transform="translate(0 0)"/><path class="cls-41" d="M251.41,123.71,214.65,206a6.88,6.88,0,0,0,3.58,9.15l38.47,15.47a6.89,6.89,0,0,0,8.93-3.38l38.82-81.58a6.9,6.9,0,0,0-3.54-9.32l-40.53-16.12A6.9,6.9,0,0,0,251.41,123.71Z" transform="translate(0 0)"/><path class="cls-42" d="M252.84,127.61l-32.71,73.17a6.14,6.14,0,0,0,3.19,8.15l33.17,13.35a6.14,6.14,0,0,0,7.95-3L299,146.68a6.14,6.14,0,0,0-3.16-8.29l-35-13.93A6.13,6.13,0,0,0,252.84,127.61Z" transform="translate(0 0)"/><path class="cls-31" d="M287.72,181.46s-6.32-13.64-1.2-18.28,8.64,12.4,8.64,12.4-5.22,16.71-10.6,11.95Z" transform="translate(0 0)"/><circle class="cls-43" cx="263.14" cy="161.42" r="16.95"/><g class="cls-44"><path class="cls-45" d="M263.14,140.1l-.17,20,20.2,5.36S288.39,143,263.14,140.1Z" transform="translate(0 0)"/><path class="cls-46" d="M282.5,165.29l-19.43-5.15-11.15,17.67S272.19,188.53,282.5,165.29Z" transform="translate(0 0)"/></g><circle class="cls-42" cx="263.14" cy="161.42" r="13.85"/><path class="cls-47" d="M258.24,156.36a71.43,71.43,0,0,0,11.35,4.17,1.13,1.13,0,0,0,.6-2.17,68.28,68.28,0,0,1-10.82-3.94,1.15,1.15,0,0,0-1.54.4,1.13,1.13,0,0,0,.41,1.54Z" transform="translate(0 0)"/><g class="cls-48"><path class="cls-47" d="M255.64,162.11A72.91,72.91,0,0,0,267,166.28a1.13,1.13,0,0,0,.6-2.17,69.28,69.28,0,0,1-10.82-3.94,1.15,1.15,0,0,0-1.54.4,1.13,1.13,0,0,0,.4,1.54Z" transform="translate(0 0)"/></g><path class="cls-49" d="M240,175.45l30.41,12.26a2.33,2.33,0,0,1,1.23,3.15l-7.77,16.44a2.34,2.34,0,0,1-3,1.17l-30.3-12.05a2.33,2.33,0,0,1-1.25-3.14l7.66-16.64A2.34,2.34,0,0,1,240,175.45Z" transform="translate(0 0)"/><rect class="cls-35" x="253.31" y="168.5" width="1" height="32.71" transform="translate(-13.27 349.95) rotate(-67.79)"/><rect class="cls-35" x="251.87" y="172.03" width="1" height="32.71" transform="translate(-17.43 350.81) rotate(-67.79)"/><rect class="cls-35" x="250.04" y="175.61" width="1" height="32.71" transform="translate(-21.88 351.35) rotate(-67.79)"/><path class="cls-31" d="M195.34,219.22l26.55-13.89S236,191,238.54,192.47c7.82,4.54-11.1,22.84-11.1,22.84s3.79,9.83-.75,15.49S208.12,239,208.12,239Z" transform="translate(0 0)"/><path class="cls-34" d="M172.8,168.91s-31.15,2.32-37.21,22.07C135.59,191,160.5,193.44,172.8,168.91Z" transform="translate(0 0)"/><ellipse class="cls-50" cx="182.85" cy="114.58" rx="6.55" ry="5.05"/></g></g></svg>